<?xml version="1.0" encoding="UTF-8" standalone="no"?>
<!-- Created with Inkscape (http://www.inkscape.org/) -->

<svg
   xmlns:dc="http://purl.org/dc/elements/1.1/"
   xmlns:cc="http://creativecommons.org/ns#"
   xmlns:rdf="http://www.w3.org/1999/02/22-rdf-syntax-ns#"
   xmlns:svg="http://www.w3.org/2000/svg"
   xmlns="http://www.w3.org/2000/svg"
   xmlns:sodipodi="http://sodipodi.sourceforge.net/DTD/sodipodi-0.dtd"
   xmlns:inkscape="http://www.inkscape.org/namespaces/inkscape"
   id="svg4155"
   version="1.1"
   inkscape:version="0.91 r13725"
   xml:space="preserve"
   width="109.20912"
   height="51.49094"
   viewBox="0 0 109.20912 51.490939"
   sodipodi:docname="awana-logo.svg"><metadata
     id="metadata4161"><rdf:RDF><cc:Work
         rdf:about=""><dc:format>image/svg+xml</dc:format><dc:type
           rdf:resource="http://purl.org/dc/dcmitype/StillImage" /><dc:title></dc:title></cc:Work></rdf:RDF></metadata><defs
     id="defs4159" /><sodipodi:namedview
     pagecolor="#ffffff"
     bordercolor="#666666"
     borderopacity="1"
     objecttolerance="10"
     gridtolerance="10"
     guidetolerance="10"
     inkscape:pageopacity="0"
     inkscape:pageshadow="2"
     inkscape:window-width="1869"
     inkscape:window-height="1056"
     id="namedview4157"
     showgrid="false"
     fit-margin-top="0"
     fit-margin-left="0"
     fit-margin-right="0"
     fit-margin-bottom="0"
     inkscape:zoom="10.759174"
     inkscape:cx="54.050276"
     inkscape:cy="16.78294"
     inkscape:window-x="51"
     inkscape:window-y="24"
     inkscape:window-maximized="1"
     inkscape:current-layer="g4163" /><g
     id="g4163"
     inkscape:groupmode="layer"
     inkscape:label="ink_ext_XXXXXX"
     transform="matrix(1.25,0,0,-1.25,7.6814747,44.981447)"><ellipse
       style="color:#000000;clip-rule:nonzero;display:inline;overflow:visible;visibility:visible;opacity:1;isolation:auto;mix-blend-mode:normal;color-interpolation:sRGB;color-interpolation-filters:linearRGB;solid-color:#000000;solid-opacity:1;fill:#ffffff;fill-opacity:1;fill-rule:nonzero;stroke:none;stroke-width:5;stroke-linecap:round;stroke-linejoin:round;stroke-miterlimit:4;stroke-dasharray:none;stroke-dashoffset:0;stroke-opacity:1;color-rendering:auto;image-rendering:auto;shape-rendering:auto;text-rendering:auto;enable-background:accumulate"
       id="path4175"
       cx="37.538467"
       cy="-15.388782"
       transform="scale(1,-1)"
       rx="43.683647"
       ry="20.596376" /><g
       id="g4165"
       transform="scale(0.1,0.1)"><path
         d="m 713.762,166.059 c 6.843,-9.918 10.535,-20.344 10.566,-31.129 C 724.602,70.0781 665.676,17.8711 426.301,0.820313 627.16,-7.21875 746.973,44.9727 750.695,107.938 c 1.192,20.226 -12.304,40.089 -36.933,58.121 z M 482.57,59.3555 c 1.973,-6.8946 7.481,-12.2657 14.61,-13.9844 0.136,0 1.054,-0.3906 4.101,-1.1523 2.91,-0.6836 6.172,-1.1133 10.489,-1.4063 3.191,-0.2148 6.425,-0.332 9.656,-0.332 5.226,0 10.48,0.3242 15.742,1.0156 4.875,0.5469 9.641,1.4453 14.465,3.0273 l 0.008,0 c 4.992,1.5821 9.66,3.9258 13.566,6.6211 0.195,-0.0898 0.391,-0.1757 0.586,-0.2539 1.367,-0.4687 12.898,-5.539 29.148,-5.6718 7.18,0.0078 15.5,1.0898 23.957,4.9492 5.957,2.7343 11.329,6.6484 15.711,12.0781 4.329,5.3828 7.766,12.7187 7.786,21.3594 0.156,11.2109 -6.504,21.8745 -15.098,28.0275 -0.547,0.41 -1.113,0.808 -1.68,1.203 l 1.844,4.871 c 0.871,2.297 1.301,4.68 1.32,7.012 1.336,-0.039 2.676,-0.047 4.004,-0.047 1.524,0 3.047,0.008 4.59,0.047 l 0.586,0.019 c 9.656,0.508 19.414,2.09 29.18,4.473 7.519,1.855 13.359,7.91 14.922,15.508 l 0.82,4.062 c 1.992,9.258 2.644,17.957 2.644,26.137 0,0 0,0.016 0,0.672 -0.066,8.859 -1.297,17.414 -3.484,25.57 -2.813,11.16 -7.754,21.102 -15.195,28.887 -7.493,7.937 -17.735,13.234 -28.223,15.109 -4.844,0.867 -9.504,1.324 -14.18,1.324 -6.425,0 -12.949,-0.886 -19.257,-2.972 -7.071,-2.168 -13.672,-5.637 -19.543,-10.113 -1.141,3.027 -2.54,5.976 -4.227,8.863 l 0,0 c -6.543,11.949 -19.297,20.168 -32.051,21.992 -2.922,0.523 -5.898,0.785 -8.887,0.785 -4.746,0.016 -9.542,-0.687 -14.16,-2.023 -3.886,3.281 -8.886,4.976 -14.054,4.683 l -32.957,-1.836 c -10.293,-0.578 -18.457,-8.789 -18.957,-19.089 l -0.907,-18.399 c -0.605,0.582 -1.211,1.152 -1.855,1.707 -7.52,6.633 -17.52,10.969 -28.027,11.777 -2.266,0.211 -4.473,0.309 -6.614,0.305 -6.57,0.012 -13.047,-0.957 -19.129,-2.883 -2.187,4.336 -5.949,7.86 -10.773,9.696 -0.692,0.265 -1.395,0.488 -2.098,0.672 l -5.41,4.386 c -4.582,3.703 -10.641,5.219 -16.426,4.11 -5.781,-1.11 -10.855,-4.75 -13.738,-9.891 l -0.832,-1.477 c -0.809,4.614 -3.223,8.879 -6.824,11.918 -4.219,3.567 -9.817,5.254 -15.297,4.622 l -26.785,-3.125 c -6.477,-0.754 -12.164,-4.583 -15.293,-10.297 l -9.485,-17.282 -9.285,25.942 c -3.57,9.996 -14.211,15.472 -24.414,12.562 l -16.543,-4.699 c -3.164,-0.894 -5.937,-2.496 -8.183,-4.586 l -10.106,30.227 c -2.973,8.855 -11.707,14.535 -21.008,13.625 l -31.222,-3.032 C 153.07,303.965 146.934,299.68 143.906,293.32 L 110.699,223.848 C 43.9688,205.211 1.30859,176.098 0.03125,141.953 -0.730469,121.699 13.207,102.137 38.207,84.6484 31.1641,94.4141 25.0117,108.828 24.7305,119.609 c -0.793,30.996 25.1679,57.911 74.1289,79.469 L 60.5078,118.848 C 56.2266,109.883 59.125,99.1406 67.3594,93.5547 L 110.883,64.0039 c 5.168,-3.5078 11.578,-4.4141 17.512,-2.4805 5.937,1.9219 10.589,6.4454 12.695,12.3164 l 14.93,41.5902 52.351,-0.196 9.27,-27.5309 c 3.336,-9.8828 13.711,-15.5859 23.843,-13.0937 l 19.653,4.8242 c 5.429,1.3281 10.113,4.9141 12.804,9.8047 2.7,4.9101 3.231,10.7817 1.465,16.0817 l -9.75,29.192 27.977,9.179 c 4.351,1.426 8.027,4.278 10.504,8.008 l 0.601,-2.363 c 0.235,-0.898 0.516,-1.777 0.86,-2.637 -1.7,-1.418 -3.321,-2.922 -4.844,-4.48 -11.66,-11.914 -18.531,-27.492 -18.594,-43.9573 -0.152,-14.707 6.242,-30.4297 19.16,-41.0742 12.84,-10.7148 30.547,-16.0664 51.711,-16.0664 l 0.094,0 c 5.527,0.0117 11.344,0.3516 17.453,1.0977 2.383,0.2812 4.672,0.9843 6.766,2.0585 3.051,-1.5546 6.539,-2.3437 10.179,-2.1484 l 17.254,0.9453 c 7.188,0.3828 13.301,4.5235 16.543,10.4219 7.938,-6.3477 17.52,-10.1953 27.754,-10.168 13.074,-0.0664 25.156,6.3594 33.496,16.0274"
         style="fill:#100f0d;fill-opacity:1;fill-rule:nonzero;stroke:none"
         id="path4167"
         inkscape:connector-curvature="0" /><path
         d="m 256.344,98.9453 -19.653,-4.8242 -13.859,41.1329 -80.926,0.332 -19.726,-54.961 -43.5277,29.559 83.3827,174.464 31.231,3.028 63.078,-188.7307 0,0 z m -51.953,89.9497 -21.676,75.378 -28.328,-87.511 50.004,12.133 0,0 z m 181.492,43.296 -46.797,-74.086 -14.867,-3.82 -16.176,63.731 -20.68,-55.235 -28.265,-9.285 -22.993,95.582 16.551,4.699 24.321,-68.023 30.984,56.469 26.785,3.121 3.414,-66.707 34.735,61.761 12.656,-10.238 0.332,2.031 z m 73.445,-71.175 -0.273,-3.86 c -7.793,-2.742 -15.391,-4.519 -22.754,-5.535 -7.383,-1.008 -14.551,-1.25 -21.699,-0.508 -3.868,0.274 -7.539,0.93 -10.625,1.953 -3.262,1.036 -5.938,2.442 -8.418,4.247 -2.871,2.003 -5.137,4.562 -6.446,7.292 -1.289,2.938 -1.797,6.235 -1.531,10.106 0.731,6.375 4.52,11.894 11.383,16.41 7.062,4.504 17.219,8.16 30.625,10.789 -0.899,3.117 -2.41,5.664 -4.883,7.465 -2.293,1.777 -5.547,2.82 -9.422,3.09 -4.062,0.473 -7.93,-0.024 -11.445,-1.508 -3.516,-1.469 -6.856,-3.531 -9.836,-6.758 l -3.399,4.137 c 4.583,5.719 9.895,9.852 16.145,12.637 6.25,2.578 13.242,3.593 21.152,2.851 6.387,-0.523 11.953,-2.957 16.524,-6.933 4.558,-3.961 8.125,-9.649 10.859,-17.055 2.02,-5.852 3.438,-11.898 4.278,-18.488 0.632,-6.41 0.703,-13.18 -0.235,-20.332 l 0,0 z m -27.715,7.746 c 0.489,4.429 0.567,8.703 0.664,13.152 -0.117,4.258 -0.214,8.328 -0.898,12.797 -4.473,-1.07 -8.75,-1.957 -12.461,-3.231 -3.711,-1.085 -7.023,-2.371 -9.953,-3.664 l 4.797,-30.304 c 3.867,-0.266 7.148,-0.344 10.058,-0.207 2.715,0.136 5.047,0.664 6.805,1.406 0.234,1.738 0.461,3.48 0.684,5.019 0.031,1.743 0.265,3.481 0.304,5.032 l 0,0 z m 139.735,-7.707 -37.715,-5.059 c 3.918,20.055 5.637,35 7.148,42.524 1.321,7.335 2.383,11.957 2.629,13.699 1.094,6.176 0.801,11.019 -0.683,14.527 -1.485,3.328 -4.141,5.313 -8.399,5.984 -3.664,0.668 -7.93,-0.417 -12.656,-3.027 -4.688,-2.812 -9.805,-7.148 -15.567,-13.23 l -9.777,-46.743 -19.91,-3.753 4.012,81.812 32.961,1.836 -3.457,-17.539 c 5.918,5.676 11.804,9.805 18.066,12.199 6.035,2.59 12.07,3.238 18.047,2.141 7.91,-1.321 14.004,-5.324 17.949,-12.184 4.121,-6.664 6.231,-16.39 6.758,-28.793 l 0.742,-37.273 -0.148,-7.121 z m 91.886,-6.075 -0.871,-4.238 c -8.738,-2.148 -17.293,-3.515 -25.437,-3.937 -8.332,-0.203 -16.27,0.168 -24.16,1.672 -4.258,0.664 -8.106,1.914 -11.555,3.339 -3.465,1.426 -6.336,3.235 -8.797,5.411 -3.047,2.578 -5.117,5.527 -6.191,8.843 -1.309,3.317 -1.602,6.996 -0.762,11.055 1.309,7.121 5.898,12.836 14.102,17.121 8.23,4.484 19.902,7.34 34.832,8.777 -0.692,3.485 -2.176,6.614 -4.649,8.618 -2.285,2.367 -5.73,3.785 -9.98,4.66 -4.618,0.855 -8.895,0.554 -12.977,-0.711 -3.887,-1.074 -7.812,-3.32 -11.367,-6.344 l -3.379,4.902 c 5.547,5.895 12.02,10.012 19.219,12.2 7.019,2.363 14.961,2.593 23.64,1.058 6.965,-1.312 12.707,-4.332 17.434,-9.269 4.551,-4.742 8.086,-11.399 10.234,-19.969 1.805,-6.621 2.813,-13.613 2.871,-20.578 0.039,-7.36 -0.507,-14.699 -2.207,-22.61 l 0,0 z m -29.777,11.465 c 0.871,4.618 1.555,9.45 1.848,14.293 0.488,4.629 0.574,9.282 0.488,14.114 -5.254,-0.657 -9.902,-1.153 -14.191,-2.024 -4.266,-1.07 -7.977,-2.16 -11.297,-3.258 l 2.207,-33.925 c 4.246,-0.665 7.91,-1.125 11.015,-1.387 3.086,-0.07 5.625,0.469 7.762,1.004 0.422,1.926 0.852,3.847 1.086,5.597 0.43,1.914 0.652,3.661 1.082,5.586 l 0,0 z m -284.125,-24.043 3.258,-16.308 c -12.004,-0.84 -33.434,-9.793 -32.559,-23.067 0.657,-9.9411 10.496,-28.1559 45.614,-20.984 l 2.554,-19.875 c -93.097,-11.1211 -76.422,79.355 -18.867,80.234 z M 501.906,64.9023 c 3.106,-0.7617 3.77,-1.5351 11.199,-2.0312 7.473,-0.5078 14.661,-0.3828 21.829,0.5977 3.867,0.4375 7.539,1.1601 10.586,2.1953 3.242,1.0351 5.886,2.3711 8.32,4.0429 2.793,1.8477 5,4.1485 6.191,6.5625 1.199,2.586 1.59,5.4493 1.172,8.7422 -0.937,5.4375 -4.941,9.9688 -11.992,13.5117 -7.246,3.5196 -20.742,6.6716 -34.277,8.3006 0.691,6.242 0,33.828 0,33.828 l -23.106,-5.632 10.078,-70.1177 z m 14.004,33.1641 c 4.539,-0.7031 8.867,-1.2617 12.625,-2.1797 3.762,-0.75 7.141,-1.6875 10.149,-2.664 l -3.125,-22.9102 c -3.868,-0.4102 -7.149,-0.6172 -10.09,-0.6562 -2.735,-0.0079 -5.067,0.3437 -6.883,0.8984 -0.293,1.4766 -3.184,23.625 -2.676,27.5117 z m -39.055,29.5786 c 13.489,-79.6177 -61.062,-90.2622 -62.156,-3.34 l 13.446,-1.453 c 4.414,-32.4809 12.011,-42.6567 18.39,-41.9926 10.567,1.0742 16.817,26.9606 15.039,43.4376 l 15.391,3.476 -0.11,-0.128 z m 99.454,-43.0356 c 37.804,-8.418 37.011,7.1367 4.113,14.4609 -49.621,11.0077 -17.375,55.5387 28.262,27.7657 l -4.297,-11.281 c -24.278,16.32 -47.852,-2.071 -13.828,-8.66 41.914,-8.1059 35.273,-29.5122 19.961,-36.4653 -16.485,-7.5586 -36.973,0.9961 -36.973,0.9961 l 2.762,13.1836 z m -189.883,-22.4219 17.258,0.9375 -2.95,72.891 -25.929,5.312 11.621,-79.1405"
         style="fill:#f9de05;fill-opacity:1;fill-rule:evenodd;stroke:none"
         id="path4169"
         inkscape:connector-curvature="0" /><path
         d="m 715.82,208.891 c 9.043,0 16.055,-7.012 16.055,-15.762 0,-8.941 -7.012,-15.856 -16.152,-15.856 -9.024,0 -16.231,6.915 -16.231,15.856 0,8.75 7.207,15.762 16.231,15.762 l 0.097,0 z m -0.183,-3.172 c -6.907,0 -12.11,-5.692 -12.11,-12.59 0,-7.016 5.203,-12.602 12.293,-12.602 6.914,-0.074 12.024,5.586 12.024,12.602 0,6.898 -5.11,12.59 -12.121,12.59 l -0.086,0 z m -2.414,-20.762 -3.641,0 0,15.668 c 1.445,0.289 3.457,0.582 6.055,0.582 2.957,0 4.324,-0.508 5.488,-1.258 0.848,-0.672 1.523,-1.922 1.523,-3.379 0,-1.808 -1.339,-3.148 -3.253,-3.722 l 0,-0.196 c 1.523,-0.48 2.394,-1.738 2.871,-3.851 0.468,-2.41 0.773,-3.371 1.152,-3.844 l -3.945,0 c -0.469,0.586 -0.77,1.922 -1.239,3.754 -0.285,1.723 -1.261,2.496 -3.273,2.496 l -1.738,0 0,-6.25 z m 0.109,8.856 1.719,0 c 2.031,0 3.652,0.667 3.652,2.289 0,1.453 -1.055,2.41 -3.359,2.41 -0.949,0 -1.633,-0.094 -2.012,-0.211 l 0,-4.488"
         style="fill:#100f0d;fill-opacity:1;fill-rule:nonzero;stroke:none"
         id="path4171"
         inkscape:connector-curvature="0" /></g></g></svg>