<?xml version="1.0" encoding="UTF-8" standalone="no"?>
<!-- Created with Inkscape (http://www.inkscape.org/) -->

<svg
   xmlns:dc="http://purl.org/dc/elements/1.1/"
   xmlns:cc="http://creativecommons.org/ns#"
   xmlns:rdf="http://www.w3.org/1999/02/22-rdf-syntax-ns#"
   xmlns:svg="http://www.w3.org/2000/svg"
   xmlns="http://www.w3.org/2000/svg"
   xmlns:sodipodi="http://sodipodi.sourceforge.net/DTD/sodipodi-0.dtd"
   xmlns:inkscape="http://www.inkscape.org/namespaces/inkscape"
   id="svg5262"
   version="1.1"
   inkscape:version="0.91 r13725"
   xml:space="preserve"
   width="393.75"
   height="102.4125"
   viewBox="0 0 393.75 102.4125"
   sodipodi:docname="CubbiesLogo.svg"><metadata
     id="metadata5268"><rdf:RDF><cc:Work
         rdf:about=""><dc:format>image/svg+xml</dc:format><dc:type
           rdf:resource="http://purl.org/dc/dcmitype/StillImage" /><dc:title></dc:title></cc:Work></rdf:RDF></metadata><defs
     id="defs5266" /><sodipodi:namedview
     pagecolor="#ffffff"
     bordercolor="#666666"
     borderopacity="1"
     objecttolerance="10"
     gridtolerance="10"
     guidetolerance="10"
     inkscape:pageopacity="0"
     inkscape:pageshadow="2"
     inkscape:window-width="1869"
     inkscape:window-height="1056"
     id="namedview5264"
     showgrid="false"
     inkscape:zoom="3.6469841"
     inkscape:cx="196.875"
     inkscape:cy="51.206249"
     inkscape:window-x="51"
     inkscape:window-y="24"
     inkscape:window-maximized="1"
     inkscape:current-layer="g5272" /><g
     id="g5270"
     inkscape:groupmode="layer"
     inkscape:label="ink_ext_XXXXXX"
     transform="matrix(1.25,0,0,-1.25,0,102.4125)"><g
       id="g5272"
       transform="scale(0.1,0.1)"><path
         d="m 2988.87,422.523 c -17.26,0 -36.12,2.129 -56.02,6.368 l -4.94,1.035 -4.2,2.832 c -76.53,51.691 -92.02,139.492 -78.36,182.539 l 0.45,1.445 0.62,1.387 c 30.38,67.305 84.92,105.918 149.67,105.918 46.64,0 91.99,-21.094 121.34,-56.445 27.31,-32.911 37.96,-74.473 29.99,-117.071 -3.5,-18.574 -12.83,-28.75 -22.95,-33.125 -14.85,-49.793 -56.1,-94.883 -135.6,-94.883"
         style="fill:#231f20;fill-opacity:1;fill-rule:nonzero;stroke:none"
         id="path5274"
         inkscape:connector-curvature="0" /><path
         d="m 2390.86,248.145 0,165.472 -24.73,12.363 c -39.2,19.629 -75.67,27.969 -121.89,27.969 -71.43,0 -127.92,-27.949 -155.96,-72.816 -3.4,4.219 -6.82,8.437 -10.58,12.344 -37.4,38.988 -92.26,60.472 -154.47,60.472 -63.66,0 -118.08,-24.062 -155.73,-64.164 l 1.77,58.031 -13.99,0 c 5.07,11.926 7.89,25.039 7.89,38.809 0,54.863 -44.62,99.473 -99.46,99.473 -54.83,0 -99.45,-44.61 -99.45,-99.473 0,-13.77 2.81,-26.883 7.89,-38.809 l -24.2,0 2.6,-43.007 c -34.39,30.957 -80.06,49.14 -132.36,49.14 -6.7,0 -13.06,-0.234 -19.18,-0.742 l 31.56,132.461 -237.64,16.465 0,-202.973 c -35,34.391 -82.95,54.789 -138.39,54.789 -6.69,0 -13.04,-0.234 -19.15,-0.742 l 31.56,132.461 -237.669,16.465 0,-145.039 -161.808,-12.957 3.195,19.937 c 0,0 -142.352,-11.332 -187.953,-13.918 l 0,88.317 -17.758,13.445 C 421.617,584.684 366.156,601.996 304.57,601.996 115.816,601.996 6.98047,456.02 0.433594,318.672 -3.78906,230.352 22.707,153.535 77.0273,96.5625 132.289,38.6328 212.672,5.35156 297.543,5.35156 c 72.328,0 132.863,17.10934 202.434,57.18754 l 14.867,8.5937 c 30.801,-23.9844 68.715,-36.914 110.273,-36.914 24.278,0 48.164,4.5312 69.668,12.4609 L 853.891,31.4648 1004.44,45.8594 c 18.43,-5.918 37.45,-8.9063 56.96,-8.9063 52.43,0 97.92,19.7852 131.53,53.2813 l 0,-61.1524 175.13,16.7774 c 18.42,-5.918 37.45,-8.9063 56.96,-8.9063 59.08,0 109.38,25.0586 143.69,66.6409 l 3.9,-64.7073 184.51,17.6563 1.7,54.512 c 39.83,-46.6995 102.96,-74.1019 180.82,-74.1019 24.19,0 84.22,0.0782 145.73,36.2305 l 13.51,-7.4805 c 21.74,-11.9336 77.8,-28.75 134.43,-28.75 127.76,0 173.29,76.0739 173.29,147.3049 0,25.176 -6,46.23 -15.74,63.887"
         style="fill:#231f20;fill-opacity:1;fill-rule:nonzero;stroke:none"
         id="path5276"
         inkscape:connector-curvature="0" /><path
         d="m 565.453,704.691 c -1.875,7.082 -2.988,12.051 -4.867,19.231 -1.875,-7.18 -3.106,-12.266 -9.5,-36.75 l 9.289,0 c 3.555,0 6.094,0 9.645,0.137 l -4.567,17.382 z m -17.246,-29.824 c -1.984,-7.304 -3.305,-12.273 -4.644,-19.57 l -0.758,-0.684 c -0.895,0.02 -2.899,0.11 -4.336,0.11 -2.219,-0.032 -3.75,-0.11 -5.985,-0.227 l -0.546,0.684 c 2.753,8.722 4.542,15.168 7.082,24.14 l 7.949,28.125 c 2.648,9.18 4.304,15.723 6.969,24.785 l 0.675,0.567 c 5.075,-0.02 8.61,0.137 13.61,0.226 L 569,732.484 c 1.113,-4.675 16.195,-59.023 21.523,-77.058 l -0.562,-0.656 c -4.203,-0.137 -7.195,-0.118 -11.523,-0.352 l -0.661,0.645 c -1.66,7.773 -2.976,13.3 -4.867,20.957 l -0.683,2.636 -16.051,0 c -2.543,0 -4.434,0 -6.973,-0.097 l -0.996,-3.692"
         style="fill:#141316;fill-opacity:1;fill-rule:nonzero;stroke:none"
         id="path5278"
         inkscape:connector-curvature="0" /><path
         d="m 590.035,711.898 c 3.672,0.098 6.317,0.196 10.078,0.547 l 0.68,-0.672 c 1.004,-6.406 2.012,-10.929 8.887,-45.273 7.058,34.344 8.383,39.219 9.05,44.969 l 0.774,0.644 3.988,0 c 2.977,0 5.094,0.149 7.973,0.254 l 0.777,-0.664 c 1.883,-10.301 5.985,-28.574 9.422,-45.183 4.535,23.347 7.977,40.886 8.516,44.968 l 0.672,0.645 3.527,0 c 1.781,0.019 3.105,0 4.863,0.129 l 0.461,-0.676 c -2.765,-10.41 -10.273,-44.285 -12.941,-56.25 l -0.77,-0.672 -3.527,0 c -2.676,0 -4.645,-0.098 -7.324,-0.226 l -0.672,0.683 c -1.094,6.32 -2.074,10.625 -3.43,16.934 l -6.316,29.238 c 0,0 -6.516,-30.039 -9.836,-45.957 l -0.653,-0.672 -2.882,-0.012 c -2.883,0 -4.887,-0.105 -7.762,-0.214 l -0.77,0.644 c -1.34,5.762 -2.121,9.856 -3.566,15.723 l -4.75,20.156 c -1.785,7.519 -2.906,12.844 -4.895,20.266 l 0.426,0.671"
         style="fill:#141316;fill-opacity:1;fill-rule:nonzero;stroke:none"
         id="path5280"
         inkscape:connector-curvature="0" /><path
         d="m 691.285,686.695 -4.769,-0.988 c -8.188,-1.66 -13.735,-5 -13.746,-13.535 0.011,-7.078 4.679,-10.059 9.105,-10.059 4.758,0.02 7.883,2.883 9.41,4.328 l 0,20.254 z m 10.528,-32.004 c -4.641,0 -5.426,-0.019 -9.61,-0.214 l -0.683,0.664 c 0,0 -0.114,1.75 -0.125,3.761 -2.418,-2.011 -6.411,-5.089 -13.172,-5.089 -9.953,0 -15.836,7.851 -15.852,17.363 0,16.621 15.711,20.195 24.035,21.738 l 4.864,0.879 c -0.004,6.105 -0.004,11.516 -9.743,11.516 -7.211,-0.039 -11.179,-2.571 -13.629,-4.211 l -0.769,0.41 c 0.316,3.332 0.328,5.762 0.437,7.773 l 0.547,0.754 c 5.309,2.449 11.637,3.367 16.274,3.367 13.511,0 17.406,-6.757 17.406,-17.07 l 0,-18.144 c 0.008,-10.653 0.008,-15.293 0.684,-22.833 l -0.664,-0.664"
         style="fill:#141316;fill-opacity:1;fill-rule:nonzero;stroke:none"
         id="path5282"
         inkscape:connector-curvature="0" /><path
         d="m 743.555,655.18 c 0.23,8.633 0.316,24.699 0.316,28.234 0,13.633 -0.016,20.809 -8.074,20.809 -4.781,0 -9.086,-3.575 -11.309,-5.868 0.032,-8.652 0.024,-32.882 0.703,-42.968 l -0.671,-0.664 c -5.102,0 -6.086,-0.032 -10.516,-0.227 l -0.66,0.684 c 0.219,5.078 0.422,11.816 0.422,22.461 -0.012,10.937 -0.129,22.031 -0.786,32.988 l 0.543,0.684 c 4.426,0.558 5.969,0.878 10.739,1.875 l 0.664,-0.665 c -0.223,-2.324 -0.438,-3.308 -0.438,-6.414 4.86,4.188 9.864,7.176 16.16,7.196 7.645,0 10.739,-4.649 12.297,-8.75 1.66,-4.317 1.668,-6.973 1.668,-16.395 0.149,-12.941 0.149,-24.562 0.578,-32.754 l -0.671,-0.664 c -4.985,0 -5.868,0 -10.387,-0.234 l -0.578,0.672"
         style="fill:#141316;fill-opacity:1;fill-rule:nonzero;stroke:none"
         id="path5284"
         inkscape:connector-curvature="0" /><path
         d="m 792.711,686.762 -4.773,-0.996 c -8.192,-1.668 -13.704,-4.981 -13.704,-13.516 0,-7.098 4.661,-10.078 9.086,-10.078 4.778,0.012 7.852,2.891 9.399,4.348 l -0.008,20.242 z m 10.547,-31.992 c -4.664,0 -5.438,0 -9.641,-0.243 l -0.664,0.672 c 0,0 -0.105,1.778 -0.105,3.77 -2.422,-1.992 -6.438,-5.098 -13.164,-5.098 -9.996,0 -15.856,7.844 -15.871,17.375 0.015,16.59 15.73,20.156 24.019,21.699 l 4.879,0.899 c 0,6.101 0,11.523 -9.746,11.492 -7.184,0.031 -11.184,-2.539 -13.625,-4.188 l -0.77,0.438 c 0.325,3.332 0.34,5.762 0.418,7.754 l 0.567,0.754 c 5.324,2.488 11.64,3.347 16.281,3.347 13.512,0 17.383,-6.777 17.402,-17.07 l 0.008,-18.125 c -0.008,-10.613 0.012,-15.293 0.676,-22.82 l -0.664,-0.656"
         style="fill:#141316;fill-opacity:1;fill-rule:nonzero;stroke:none"
         id="path5286"
         inkscape:connector-curvature="0" /><path
         d="m 586.656,633.793 c -0.34,-3.457 -0.562,-5.879 -0.765,-9.395 l -0.879,-0.488 c -3.11,2.473 -6.657,4.785 -13.528,4.785 -12.949,-0.019 -22.476,-10.761 -22.457,-31.914 0.012,-19.16 8.879,-30.34 22.832,-30.34 7.2,0.028 11.508,2.801 14.621,5.34 l 0.875,-0.449 c -0.328,-3.652 -0.425,-6.211 -0.558,-9.852 l -0.543,-0.792 c -2.887,-1.856 -8.633,-3.758 -16.055,-3.758 -20.277,-0.032 -33.554,14.597 -33.578,40.41 0,18.816 8.731,40.633 33.863,40.633 7.411,0 12.731,-1.856 15.739,-3.184 l 0.433,-0.996"
         style="fill:#141316;fill-opacity:1;fill-rule:nonzero;stroke:none"
         id="path5288"
         inkscape:connector-curvature="0" /><path
         d="m 595.898,558.832 c 0.211,9.856 0.215,16.719 0.2,26.582 l 0,9.063 c -0.008,15.937 -0.129,28.781 -1.121,46.074 l 0.531,0.664 c 4.097,0.566 7.191,1.133 10.859,1.894 l 0.653,-0.683 c -0.082,-9.617 -0.082,-15.703 -0.082,-21.914 0.011,-22.696 0.242,-38.77 0.929,-61.434 l -0.566,-0.664 c -0.555,-0.031 -2.551,0.086 -3.778,0.086 -2.543,0 -4.418,-0.234 -7.074,-0.332 l -0.551,0.664"
         style="fill:#141316;fill-opacity:1;fill-rule:nonzero;stroke:none"
         id="path5290"
         inkscape:connector-curvature="0" /><path
         d="m 660.434,615.563 c -0.246,-5.54 -0.34,-9.758 -0.34,-20.059 0.008,-11.281 0.008,-25.566 0.574,-36.406 l -0.648,-0.657 c -4.985,0 -6.102,-0.027 -9.985,-0.253 l -0.656,0.664 0.223,5.312 c -7.102,-6.738 -13.079,-6.738 -15.399,-6.758 -8.086,0.02 -12.734,4.317 -14.285,11.192 -0.664,3.097 -0.777,6.425 -0.785,12.402 0,2.539 -0.016,29.133 -0.227,34.102 l 0.664,0.625 c 4.977,0.031 5.864,0.136 10.278,0.488 l 0.675,-0.672 c -0.214,-9.641 -0.433,-21.809 -0.418,-36.633 0,-4.558 0,-12.84 8.543,-12.84 5.297,0.02 8.735,3.309 10.711,5.321 l 0.004,12.714 c -0.004,10.403 -0.117,20.723 -0.554,31.028 l 0.66,0.644 c 4.09,0 5.652,0.106 10.281,0.438 l 0.684,-0.652"
         style="fill:#141316;fill-opacity:1;fill-rule:nonzero;stroke:none"
         id="path5292"
         inkscape:connector-curvature="0" /><path
         d="m 683.023,583.695 c 0.024,-5.761 0.141,-14.746 0.141,-17.175 0.984,-0.11 1.539,-0.11 2.527,-0.09 14.735,0 18.836,11.074 18.836,22.675 -0.011,11.739 -3.914,19.395 -11.972,19.395 -4.778,-0.02 -7.766,-2.879 -9.532,-4.246 l 0,-20.559 z m -10.937,-24.843 c 0.203,8.996 0.215,15.187 0.215,24.171 -0.016,19.258 -0.133,38.075 -1.262,57.586 l 0.539,0.664 c 4.11,0.547 6.973,0.977 10.973,1.875 l 0.668,-0.566 c -0.227,-7.285 -0.328,-12.383 -0.328,-19.707 0,-1.777 0.117,-6.855 0.117,-10.848 5.637,4.676 11.187,5.106 13.07,5.106 10.625,0 19.61,-9.063 19.613,-27.09 0,-17.09 -8.175,-26.719 -17.484,-29.941 -4.301,-1.524 -10.176,-1.649 -13.297,-1.649 -4.504,0 -7.855,-0.129 -12.277,-0.234 l -0.547,0.633"
         style="fill:#141316;fill-opacity:1;fill-rule:nonzero;stroke:none"
         id="path5294"
         inkscape:connector-curvature="0" /><path
         d="m 753.66,614.066 c -0.226,-2.644 -0.324,-5.546 -0.324,-8.183 l -0.781,-0.254 c -3.313,3.008 -7.735,4.004 -10.739,4.004 -5.527,0 -8.968,-3.231 -8.957,-7.871 -0.011,-4.422 3.329,-6.543 6.871,-8.399 l 3.528,-1.883 c 5.765,-3 12.644,-6.886 12.637,-16.621 0.023,-8.078 -5.629,-17.609 -19.7,-17.609 -4.75,0 -9.414,0.762 -13.722,2.746 l -0.559,1.024 c 0.215,2.656 0.328,5.41 0.328,8.058 l 0.77,0.34 c 1.875,-1.434 5.996,-4.648 12.183,-4.648 6.09,0.031 9.41,4.238 9.41,8.886 -0.011,4.961 -3.332,6.985 -7.199,9.063 l -3.218,1.75 c -7.094,3.886 -12.192,7.449 -12.192,16.023 -0.016,10.332 7.086,16.641 18.824,16.68 2.438,0 7.743,-0.332 12.516,-2.332 l 0.324,-0.774"
         style="fill:#141316;fill-opacity:1;fill-rule:nonzero;stroke:none"
         id="path5296"
         inkscape:connector-curvature="0" /><path
         d="m 973.18,174.219 c 170.76,-50.293 165.3,202.051 0,136.816 l 0,-136.816 z m 0,201.094 c 31.46,18.476 50.6,23.945 81.36,23.945 90.96,0 153.86,-66.309 153.86,-162.735 0,-97.089 -60.86,-164.7847 -147,-164.7847 -31.46,0 -60.87,10.2734 -88.22,30.0977 l 0,-23.9258 -99.141,-9.5118 0,475.8246 137.131,-9.493 -37.99,-159.417"
         style="fill:#1574c4;fill-opacity:1;fill-rule:nonzero;stroke:none"
         id="path5298"
         inkscape:connector-curvature="0" /><path
         d="m 1336.81,174.219 c 170.76,-50.293 165.29,202.051 0,136.816 l 0,-136.816 z m 0,201.094 c 31.47,18.476 50.62,23.945 81.38,23.945 90.93,0 153.84,-66.309 153.84,-162.735 0,-97.089 -60.85,-164.7847 -147.01,-164.7847 -31.45,0 -60.85,10.2734 -88.21,30.0977 l 0,-23.9258 -99.13,-9.5118 0,475.8246 137.11,-9.493 -37.98,-159.417"
         style="fill:#1574c4;fill-opacity:1;fill-rule:nonzero;stroke:none"
         id="path5300"
         inkscape:connector-curvature="0" /><path
         d="m 1713.63,87.3828 -99.14,-9.4726 -19.01,315.1948 127.64,0 -9.49,-305.7222 z m 4.78,389.2932 c 0,-30.09 -24.61,-54.699 -54.7,-54.699 -30.08,0 -54.71,24.609 -54.71,54.699 0,30.086 24.63,54.707 54.71,54.707 30.09,0 54.7,-24.621 54.7,-54.707"
         style="fill:#1574c4;fill-opacity:1;fill-rule:nonzero;stroke:none"
         id="path5302"
         inkscape:connector-curvature="0" /><path
         d="m 2346.12,296.094 c -84.61,51.191 -140.86,41.621 -140.86,19.746 0,-34.883 156.59,-36.25 156.59,-141.543 0,-65.625 -46.5,-102.5587 -128.54,-102.5587 -50.62,0 -99.16,15.7226 -112.84,23.2617 l 0,88.711 c 32.14,-13.691 111.46,-38.711 113.51,-6.035 2.34,37.539 -120.34,21.269 -120.34,124.492 0,58.125 52.65,97.09 130.6,97.09 39.65,0 69.06,-6.856 101.88,-23.223 l 0,-79.941"
         style="fill:#1574c4;fill-opacity:1;fill-rule:nonzero;stroke:none"
         id="path5304"
         inkscape:connector-curvature="0" /><path
         d="m 734.602,123.027 c -18.821,-49.0426 -147.75,-90.4684 -215.813,-2.988 -36.703,47.188 -35.504,131.856 -35.496,273.066 46.219,2.559 133.02,9.489 133.02,9.489 0,0 -44.559,-245.563 40.39,-245.563 74.11,0 58.223,236.074 58.223,236.074 l 118.812,9.489 0,-334.1956 -99.136,9.5118 0,45.1168"
         style="fill:#1574c4;fill-opacity:1;fill-rule:nonzero;stroke:none"
         id="path5306"
         inkscape:connector-curvature="0" /><path
         d="m 314.898,177.988 c -73.312,0 -125.429,47.657 -125.429,114.473 0,66.269 52.644,113.383 127.511,113.383 43.356,0 82.594,-15.336 121.301,-38.324 l -0.316,138.753 C 401.785,533.637 355.883,547.309 304.57,547.309 145.863,547.309 50.9023,427.328 45.1406,306.602 36.4844,125.82 173.715,40.1563 297.543,40.1563 c 52.434,0 118.687,9.2187 185.742,46.3085 -19.492,29.4332 -40.594,72.1682 -43.262,131.4062 -49.121,-25 -79.941,-39.883 -125.125,-39.883"
         style="fill:#1574c4;fill-opacity:1;fill-rule:nonzero;stroke:none"
         id="path5308"
         inkscape:connector-curvature="0" /><path
         d="M 1994.45,279.375 1859.1,267.539 c 7.2,78.945 105.26,96.504 135.35,11.836 z m -134.83,-69.453 226.36,19.023 c 4.8,114.864 -71.12,170.313 -162.75,170.313 -97.09,0 -166.15,-68.379 -166.15,-164.805 0,-98.437 71.78,-162.7147 182.56,-162.7147 24.61,0 84.11,0 140.88,41.7187 l 0,62.246 c -112.2,-71.68 -217.46,-21.855 -220.9,34.219"
         style="fill:#1574c4;fill-opacity:1;fill-rule:nonzero;stroke:none"
         id="path5310"
         inkscape:connector-curvature="0" /><path
         d="m 963.254,194.121 c 170.736,-50.293 165.276,202.031 0,136.817 l 0,-136.817 z m 0,201.094 c 31.457,18.48 50.586,23.93 81.356,23.93 90.94,0 153.85,-66.313 153.85,-162.739 0,-97.09 -60.87,-164.7654 -147.01,-164.7654 -31.45,0 -60.848,10.2544 -88.196,30.0784 l 0,-23.926 -99.168,-9.5117 0,475.8237 137.134,-9.472 -37.966,-159.418"
         style="fill:#97d9f6;fill-opacity:1;fill-rule:nonzero;stroke:none"
         id="path5312"
         inkscape:connector-curvature="0" /><path
         d="m 1326.87,194.121 c 170.75,-50.293 165.3,202.031 0,136.817 l 0,-136.817 z m 0,201.094 c 31.47,18.48 50.61,23.93 81.37,23.93 90.94,0 153.85,-66.313 153.85,-162.739 0,-97.09 -60.84,-164.7654 -147,-164.7654 -31.46,0 -60.87,10.2544 -88.22,30.0784 l 0,-23.926 -99.14,-9.5117 0,475.8237 137.14,-9.472 -38,-159.418"
         style="fill:#97d9f6;fill-opacity:1;fill-rule:nonzero;stroke:none"
         id="path5314"
         inkscape:connector-curvature="0" /><path
         d="m 1703.69,107.285 -99.15,-9.492 -19,315.219 127.64,0 -9.49,-305.727 z m 4.78,389.281 c 0,-30.078 -24.63,-54.707 -54.71,-54.707 -30.07,0 -54.7,24.629 -54.7,54.707 0,30.079 24.63,54.707 54.7,54.707 30.08,0 54.71,-24.628 54.71,-54.707"
         style="fill:#97d9f6;fill-opacity:1;fill-rule:nonzero;stroke:none"
         id="path5316"
         inkscape:connector-curvature="0" /><path
         d="m 2336.17,315.977 c -84.61,51.211 -140.86,41.64 -140.86,19.765 0,-34.883 156.6,-36.25 156.6,-141.562 0,-65.625 -46.5,-102.5394 -128.56,-102.5394 -50.6,0 -99.16,15.7224 -112.83,23.2424 l 0,88.711 c 32.13,-13.672 111.46,-38.692 113.5,-6.016 2.36,37.539 -120.33,21.231 -120.33,124.492 0,58.106 52.65,97.075 130.6,97.075 39.65,0 69.06,-6.836 101.88,-23.227 l 0,-79.941"
         style="fill:#97d9f6;fill-opacity:1;fill-rule:nonzero;stroke:none"
         id="path5318"
         inkscape:connector-curvature="0" /><path
         d="m 724.648,142.91 c -18.82,-49.0233 -147.746,-90.4491 -215.8,-2.969 -36.715,47.168 -35.508,131.856 -35.496,273.071 46.214,2.57 133.015,9.484 133.015,9.484 0,0 -44.547,-245.562 40.395,-245.562 74.105,0 58.215,236.078 58.215,236.078 l 118.836,9.484 0,-334.2147 -99.165,9.5117 0,45.117"
         style="fill:#97d9f6;fill-opacity:1;fill-rule:nonzero;stroke:none"
         id="path5320"
         inkscape:connector-curvature="0" /><path
         d="m 304.965,197.871 c -73.317,0 -125.438,47.656 -125.438,114.492 0,66.27 52.641,113.383 127.504,113.383 43.364,0 82.594,-15.351 121.324,-38.344 l -0.332,138.746 C 391.84,553.512 345.938,567.172 294.625,567.172 135.934,567.172 40.9531,447.203 35.1914,326.504 26.5586,145.703 163.773,60.0391 287.594,60.0391 c 52.429,0 118.711,9.2382 185.746,46.2889 -19.496,29.434 -40.59,72.188 -43.262,131.426 -49.121,-24.981 -79.941,-39.883 -125.113,-39.883"
         style="fill:#97d9f6;fill-opacity:1;fill-rule:nonzero;stroke:none"
         id="path5322"
         inkscape:connector-curvature="0" /><path
         d="m 1984.5,299.258 -135.34,-11.856 c 7.2,78.965 105.25,96.543 135.34,11.856 z m -134.8,-69.453 226.33,19.023 c 4.8,114.863 -71.11,170.317 -162.74,170.317 -97.08,0 -166.15,-68.383 -166.15,-164.79 0,-98.457 71.8,-162.7144 182.56,-162.7144 24.6,0 84.1,0 140.88,41.6994 l 0,62.207 C 1958.39,123.926 1853.12,173.75 1849.7,229.805"
         style="fill:#97d9f6;fill-opacity:1;fill-rule:nonzero;stroke:none"
         id="path5324"
         inkscape:connector-curvature="0" /><path
         d="m 2511.5,578.949 c -6.88,6.895 -51.83,81.211 -21.76,144.16 -2.36,7.696 -2.3,18.34 5.47,31.817 15.19,26.301 60.25,64.336 102.01,64.336 3.88,0 7.7,-0.332 11.38,-0.957 29.34,-5.098 37.9,-25.899 44.77,-42.637 8.19,-19.852 20.55,-49.902 75.02,-92.91 l 36.66,-28.945 -241.97,-86.504 -11.58,11.64"
         style="fill:#231f20;fill-opacity:1;fill-rule:nonzero;stroke:none"
         id="path5326"
         inkscape:connector-curvature="0" /><path
         d="m 2529.84,597.211 c -1.66,1.652 -49.14,78.047 -7.02,130.078 -32.61,-3.301 35.51,73.496 81.35,65.508 36.94,-6.395 6.2,-49.824 108.19,-130.352 l -182.52,-65.234"
         style="fill:#e59738;fill-opacity:1;fill-rule:nonzero;stroke:none"
         id="path5328"
         inkscape:connector-curvature="0" /><path
         d="m 2624.16,0 c -45.03,0 -84.34,5.625 -116.84,16.6992 -81.41,27.7735 -213.73,188.3398 -213.36,279.3748 0.18,41.582 12.27,69.043 23.34,85.508 -0.97,5.156 -0.63,10.664 1.06,16.113 2.01,6.364 5.99,19.086 52.43,41.45 16.14,39.707 73.95,175.117 126.35,213.105 53.77,39.004 116.7,58.77 187.05,58.77 34.73,0 65.18,-4.942 87.72,-10.196 0.69,3.965 1.95,7.774 3.92,11.309 4.91,8.847 13.54,14.746 23.68,16.203 1.58,0.223 3.14,0.34 4.67,0.34 15.68,0 26.07,-9.375 34.17,-22.461 1.27,0.156 2.56,0.234 3.87,0.234 l 1.05,0 1.81,-0.125 c 19.97,-1.711 26.69,-19.113 29.56,-26.543 3.08,-7.98 5.75,-14.863 17.64,-21.828 28.57,-16.797 139.48,-131.074 142.12,-214.285 1.94,-60.855 -14.29,-133.082 -21.2,-163.941 -0.03,-0.098 -0.06,-0.215 -0.08,-0.332 16.64,-19.2 23.02,-40.02 16.7,-56.524 -2.84,-7.422 -7.95,-13.242 -14.45,-16.836 -0.55,-24.687 -9.6,-49.004 -26.87,-71.64 C 2921.89,47.1094 2751.07,0 2624.16,0"
         style="fill:#231f20;fill-opacity:1;fill-rule:nonzero;stroke:none"
         id="path5330"
         inkscape:connector-curvature="0" /><path
         d="m 2515.39,40.3711 c -75.09,25.625 -196.74,178.3399 -196.43,255.6059 0.25,62.168 31.05,85.351 31.05,85.351 0,0 -10.64,-0.273 -7.78,8.926 3.14,10.004 48.1,30.434 48.1,30.434 0,0 67.61,172.265 121.48,211.32 134.25,97.363 291.51,33.387 291.51,33.387 0,0 -15.81,35.968 -0.27,38.195 15.53,2.215 26.03,-41.445 38.67,-63.723 -6.39,16.477 -11.74,42.637 1.26,41.543 11.06,-0.945 4.5,-26.199 36.68,-45.039 27.59,-16.211 127.54,-123.613 129.75,-193.496 2.23,-69.906 -21.12,-156.996 -23.56,-171.391 31.27,-28.066 25.14,-55.234 1.43,-40.351 C 3027.12,85.6055 2677.2,-14.8438 2515.39,40.3711"
         style="fill:#e59738;fill-opacity:1;fill-rule:nonzero;stroke:none"
         id="path5332"
         inkscape:connector-curvature="0" /><path
         d="m 2517.65,417.621 c -9.87,-19.516 -28.44,-29.965 -41.45,-23.402 -13.03,6.625 -15.59,27.758 -5.73,47.269 9.86,19.492 28.43,29.973 41.48,23.379 13.01,-6.582 15.55,-27.754 5.7,-47.246"
         style="fill:#231f20;fill-opacity:1;fill-rule:nonzero;stroke:none"
         id="path5334"
         inkscape:connector-curvature="0" /><path
         d="m 2735.85,363.301 c -5.01,-21.25 -21.91,-35.508 -37.71,-31.778 -15.79,3.731 -24.54,23.985 -19.53,45.254 5.02,21.27 21.89,35.543 37.71,31.801 15.78,-3.73 24.55,-24.008 19.53,-45.277"
         style="fill:#231f20;fill-opacity:1;fill-rule:nonzero;stroke:none"
         id="path5336"
         inkscape:connector-curvature="0" /><path
         d="m 2628.86,324.648 c -5.78,-19.101 -37.92,-26.308 -71.79,-16.054 -33.85,10.254 -56.63,34.043 -50.84,53.144 5.78,19.102 37.91,26.289 71.77,16.055 33.89,-10.234 56.64,-34.063 50.86,-53.145"
         style="fill:#231f20;fill-opacity:1;fill-rule:nonzero;stroke:none"
         id="path5338"
         inkscape:connector-curvature="0" /><path
         d="m 2870,607.484 c 73.41,162.668 277.19,82.481 251.98,-52.187 -4.32,-23.047 -18.46,-13.731 -17.59,-6.934 -0.96,-6.843 -9.04,-127.441 -166.2,-94.16 -67.65,45.695 -78.29,121.328 -68.19,153.281"
         style="fill:#e59738;fill-opacity:1;fill-rule:nonzero;stroke:none"
         id="path5340"
         inkscape:connector-curvature="0" /><path
         d="m 3002.3,470.582 c -0.57,9.695 -10.47,48.211 -35.32,69.18 16.32,3.972 -5.16,23.23 -29.41,33.855 31.35,-1.269 46.64,38.488 66.23,48.77 24.34,12.773 41.94,4.375 41.94,4.375 0,0 -18.33,13.593 -45.46,5.832 -39.93,-11.418 -27.13,-55.324 -104.95,-46.301 89.78,-42.988 54.47,-43.172 54.47,-43.172 0,0 27.59,-18.82 52.5,-72.539"
         style="fill:#231f20;fill-opacity:1;fill-rule:nonzero;stroke:none"
         id="path5342"
         inkscape:connector-curvature="0" /><path
         d="m 2515.93,442.133 c -0.33,-5.41 -4.98,-9.52 -10.39,-9.188 -5.39,0.332 -9.5,4.981 -9.16,10.379 0.33,5.41 4.98,9.512 10.37,9.18 5.39,-0.332 9.51,-4.981 9.18,-10.371"
         style="fill:#ffffff;fill-opacity:1;fill-rule:nonzero;stroke:none"
         id="path5344"
         inkscape:connector-curvature="0" /><path
         d="m 2725.91,385.527 c 0.34,-5.39 -3.77,-10.058 -9.19,-10.39 -5.38,-0.332 -10.02,3.789 -10.36,9.199 -0.33,5.391 3.77,10.039 9.16,10.371 5.41,0.332 10.04,-3.769 10.39,-9.18"
         style="fill:#ffffff;fill-opacity:1;fill-rule:nonzero;stroke:none"
         id="path5346"
         inkscape:connector-curvature="0" /><path
         d="m 2479.95,234.258 c 0,0 -12,-46.992 8.96,-70.703 61.13,-69.18 205.03,30.508 205.03,30.508 l -3.16,11.894 c 0,0 -142.21,-46.562 -210.83,28.301"
         style="fill:#231f20;fill-opacity:1;fill-rule:evenodd;stroke:none"
         id="path5348"
         inkscape:connector-curvature="0" /><path
         d="m 2452.36,264.707 c 0,0 33.21,-41.406 79.77,-55.703 75.23,-23.125 156.04,-0.84 156.04,-0.84 l 2.1,-5.215 c 0,0 -76.97,-23.691 -145.78,-8.008 -68.8,15.684 -94.89,68.106 -94.89,68.106 l 2.76,1.66"
         style="fill:#231f20;fill-opacity:1;fill-rule:evenodd;stroke:none"
         id="path5350"
         inkscape:connector-curvature="0" /><path
         d="m 2678.15,223.887 c -5.75,-1.641 5.22,-11.602 9.76,-20.547 5.76,-11.328 -1.08,-28.867 1.98,-34.043 2.62,-4.492 12.89,13.183 11.2,31.621 -1.43,15.605 -16.86,24.707 -22.94,22.969"
         style="fill:#231f20;fill-opacity:1;fill-rule:evenodd;stroke:none"
         id="path5352"
         inkscape:connector-curvature="0" /><path
         d="m 2995.85,76.4258 22.8,0 0,-3.4766 -9.51,0 0,-23.8476 -3.93,0 0,23.8476 -9.36,0 0,3.4766"
         style="fill:#231f20;fill-opacity:1;fill-rule:nonzero;stroke:none"
         id="path5354"
         inkscape:connector-curvature="0" /><path
         d="m 3044.04,76.3867 3.65,0 0,-27.2851 -3.93,0 0,21.2304 -8.38,-10.5468 -0.73,0 -8.48,10.5468 0,-21.2304 -3.91,0 0,27.2851 3.7,0 9.06,-11.2109 9.02,11.2109"
         style="fill:#231f20;fill-opacity:1;fill-rule:nonzero;stroke:none"
         id="path5356"
         inkscape:connector-curvature="0" /></g></g></svg>