<?xml version="1.0" encoding="UTF-8" standalone="no"?>
<!-- Created with Inkscape (http://www.inkscape.org/) -->

<svg
   xmlns:dc="http://purl.org/dc/elements/1.1/"
   xmlns:cc="http://creativecommons.org/ns#"
   xmlns:rdf="http://www.w3.org/1999/02/22-rdf-syntax-ns#"
   xmlns:svg="http://www.w3.org/2000/svg"
   xmlns="http://www.w3.org/2000/svg"
   xmlns:sodipodi="http://sodipodi.sourceforge.net/DTD/sodipodi-0.dtd"
   xmlns:inkscape="http://www.inkscape.org/namespaces/inkscape"
   id="svg2"
   version="1.1"
   inkscape:version="0.91 r13725"
   xml:space="preserve"
   width="333.61749"
   height="333.61874"
   viewBox="0 0 333.61749 333.61874"
   sodipodi:docname="FB-fLogo_2016.svg"><metadata
     id="metadata8"><rdf:RDF><cc:Work
         rdf:about=""><dc:format>image/svg+xml</dc:format><dc:type
           rdf:resource="http://purl.org/dc/dcmitype/StillImage" /><dc:title></dc:title></cc:Work></rdf:RDF></metadata><defs
     id="defs6"><clipPath
       clipPathUnits="userSpaceOnUse"
       id="clipPath42"><path
         d="M 0,500 1024,500 1024,0 0,0 0,500 Z"
         id="path44"
         inkscape:connector-curvature="0" /></clipPath><clipPath
       clipPathUnits="userSpaceOnUse"
       id="clipPath54"><path
         d="M 0,500 1024,500 1024,0 0,0 0,500 Z"
         id="path56"
         inkscape:connector-curvature="0" /></clipPath></defs><sodipodi:namedview
     pagecolor="#ffffff"
     bordercolor="#666666"
     borderopacity="1"
     objecttolerance="10"
     gridtolerance="10"
     guidetolerance="10"
     inkscape:pageopacity="0"
     inkscape:pageshadow="2"
     inkscape:window-width="1869"
     inkscape:window-height="1056"
     id="namedview4"
     showgrid="false"
     fit-margin-top="0"
     fit-margin-left="0"
     fit-margin-right="0"
     fit-margin-bottom="0"
     inkscape:zoom="0.93028736"
     inkscape:cx="-22.548364"
     inkscape:cy="144.5752"
     inkscape:window-x="51"
     inkscape:window-y="24"
     inkscape:window-maximized="1"
     inkscape:current-layer="g10" /><g
     id="g10"
     inkscape:groupmode="layer"
     inkscape:label="FB-fLogo_2016"
     transform="matrix(1.25,0,0,-1.25,-794.441,484.30912)"><g
       id="g38"
       style="fill:#ffffff"><g
         id="g40"
         clip-path="url(#clipPath42)"
         style="fill:#ffffff"><g
           id="g46"
           transform="translate(887.7168,387.4473)"
           style="fill:#ffffff"><path
             d="m 0,0 -237.434,0 c -8.136,0 -14.73,-6.594 -14.73,-14.73 l 0,-237.434 c 0,-8.135 6.594,-14.731 14.73,-14.731 l 127.827,0 0,103.356 -34.782,0 0,40.28 34.782,0 0,29.705 c 0,34.472 21.054,53.243 51.806,53.243 14.731,0 27.391,-1.096 31.08,-1.586 l 0,-36.026 -21.328,-0.01 c -16.724,0 -19.963,-7.947 -19.963,-19.609 l 0,-25.717 39.887,0 -5.193,-40.28 -34.694,0 0,-103.356 68.012,0 c 8.135,0 14.73,6.596 14.73,14.731 l 0,237.434 C 14.73,-6.594 8.135,0 0,0"
             style="fill:#ffffff;fill-opacity:1;fill-rule:nonzero;stroke:none"
             id="path48"
             inkscape:connector-curvature="0" /></g></g></g></g></svg>