<?xml version="1.0" encoding="UTF-8" standalone="no"?>
<!-- Created with Inkscape (http://www.inkscape.org/) -->

<svg
   xmlns:dc="http://purl.org/dc/elements/1.1/"
   xmlns:cc="http://creativecommons.org/ns#"
   xmlns:rdf="http://www.w3.org/1999/02/22-rdf-syntax-ns#"
   xmlns:svg="http://www.w3.org/2000/svg"
   xmlns="http://www.w3.org/2000/svg"
   xmlns:sodipodi="http://sodipodi.sourceforge.net/DTD/sodipodi-0.dtd"
   xmlns:inkscape="http://www.inkscape.org/namespaces/inkscape"
   width="112.88889mm"
   height="62.919842mm"
   viewBox="0 0 399.99999 222.94432"
   id="svg2"
   version="1.1"
   inkscape:version="0.91 r13725"
   sodipodi:docname="missions-white.svg">
  <defs
     id="defs4" />
  <sodipodi:namedview
     id="base"
     pagecolor="#ffffff"
     bordercolor="#666666"
     borderopacity="1.0"
     inkscape:pageopacity="0.0"
     inkscape:pageshadow="2"
     inkscape:zoom="1.979899"
     inkscape:cx="225.15383"
     inkscape:cy="119.93272"
     inkscape:document-units="px"
     inkscape:current-layer="layer1"
     showgrid="false"
     showborder="true"
     fit-margin-top="0"
     fit-margin-left="0"
     fit-margin-right="0"
     fit-margin-bottom="0"
     inkscape:window-width="1869"
     inkscape:window-height="1056"
     inkscape:window-x="51"
     inkscape:window-y="24"
     inkscape:window-maximized="1" />
  <metadata
     id="metadata7">
    <rdf:RDF>
      <cc:Work
         rdf:about="">
        <dc:format>image/svg+xml</dc:format>
        <dc:type
           rdf:resource="http://purl.org/dc/dcmitype/StillImage" />
        <dc:title></dc:title>
      </cc:Work>
    </rdf:RDF>
  </metadata>
  <g
     inkscape:label="Layer 1"
     inkscape:groupmode="layer"
     id="layer1"
     transform="translate(-101.04284,45.570683)">
    <text
       xml:space="preserve"
       style="font-style:normal;font-weight:normal;font-size:89.2963028px;line-height:125%;font-family:sans-serif;letter-spacing:0px;word-spacing:0px;fill:#ffffff;fill-opacity:1;stroke:none;stroke-width:1px;stroke-linecap:butt;stroke-linejoin:miter;stroke-opacity:1;"
       x="91.666725"
       y="176.65927"
       id="text4136"
       sodipodi:linespacing="125%"><tspan
         sodipodi:role="line"
         id="tspan4138"
         x="91.666725"
         y="176.65927"
         style="font-style:normal;font-variant:normal;font-weight:300;font-stretch:normal;font-family:Lato;-inkscape-font-specification:'Lato Light';letter-spacing:0px;fill:#ffffff;">MISSIONS</tspan></text>
    <path
       style="color:#000000;clip-rule:nonzero;display:inline;overflow:visible;visibility:visible;opacity:1;isolation:auto;mix-blend-mode:normal;color-interpolation:sRGB;color-interpolation-filters:linearRGB;solid-color:#000000;solid-opacity:1;fill:#ffffff;fill-opacity:1;fill-rule:nonzero;stroke:none;stroke-width:3;stroke-linecap:round;stroke-linejoin:round;stroke-miterlimit:4;stroke-dasharray:none;stroke-dashoffset:0;stroke-opacity:1;color-rendering:auto;image-rendering:auto;shape-rendering:auto;text-rendering:auto;enable-background:accumulate"
       d="m 296.63382,-45.570683 a 62.139784,62.139784 0 0 0 -61.69666,55.0554961 36.796753,107.47702 75.96188 0 1 65.25914,-26.9975811 36.796753,107.47702 75.96188 0 1 42.06028,-8.019987 62.139784,62.139784 0 0 0 -45.62276,-20.037928 z m 45.62276,20.037928 a 62.139784,62.139784 0 0 1 0.67815,0.772467 36.796753,107.47702 75.96188 0 1 4.63008,-0.601543 c 0.11038,0.04576 0.28032,0.07579 0.55801,0.11611 0.21196,0.03045 0.44129,0.09084 0.51039,0.133056 0.0694,0.04218 0.15788,0.07865 0.1976,0.08225 0.097,0.0065 0.13981,0.09813 0.0774,0.166115 -0.0277,0.03031 -0.0806,0.130637 -0.11773,0.22335 -0.0372,0.09274 -0.163,0.246756 -0.27658,0.342719 -0.30905,0.261293 -0.27834,0.342519 0.12419,0.348327 0.12018,0.002 0.22921,0.02613 0.24433,0.05404 0.0178,0.03314 0.10316,0.02698 0.24351,-0.01292 0.11927,-0.03438 0.41845,-0.07945 0.662,-0.102392 0.58024,-0.05475 1.13209,-0.162602 1.61112,-0.308854 l 0.38704,-0.117724 0.82813,0.13871 c 0.4559,0.07508 1.37202,0.218148 2.03363,0.320122 0.66162,0.101528 1.55985,0.241683 1.99652,0.312854 0.43671,0.07129 1.02663,0.147365 1.31274,0.167735 0.28607,0.02097 0.73151,0.08815 0.98779,0.148354 0.58846,0.138908 2.68756,0.303265 3.66165,0.287073 0.49872,-0.0082 1.40355,0.04829 3.38671,0.213692 1.48844,0.124207 2.72588,0.240823 2.74807,0.256399 0.0219,0.0156 -0.0277,0.0598 -0.10968,0.09839 -0.0827,0.03826 -0.41283,0.27363 -0.73134,0.524946 -0.57603,0.454659 -0.57876,0.459027 -0.82413,0.441076 -0.16464,-0.01212 -0.29367,-0.05454 -0.3862,-0.124992 -0.0762,-0.05863 -0.18523,-0.109258 -0.24355,-0.113685 -0.0584,-0.0045 -0.1189,-0.03031 -0.13304,-0.05888 -0.0368,-0.07024 -0.24812,-0.08063 -0.29674,-0.01292 -0.0248,0.03428 0.0537,0.148488 0.20322,0.303205 l 0.24189,0.250756 -0.0137,0.487857 -0.012,0.485423 0.13552,0.01048 c 0.10133,0.0073 0.16216,-0.02921 0.24834,-0.148363 0.27008,-0.374133 0.77316,-0.616417 1.21355,-0.58382 0.33166,0.02444 1.03064,-0.03865 1.50711,-0.137066 l 0.36204,-0.0734 0.11047,0.137096 0.10725,0.136285 0.23784,-0.0766 c 0.12961,-0.04124 0.38762,-0.130761 0.57577,-0.199974 0.35428,-0.130398 0.59509,-0.147857 0.64749,-0.04765 0.0219,0.04203 0.24368,0.06512 0.80149,0.08144 0.44489,0.01242 0.76614,0.0396 0.76523,0.06531 0,0.02435 -0.0946,0.09784 -0.20719,0.164506 -0.11261,0.06657 -0.19742,0.142853 -0.19031,0.170944 0.007,0.02812 0.12274,0.08588 0.25966,0.127383 0.13684,0.04198 0.29678,0.123492 0.35315,0.184676 0.064,0.06939 0.1644,0.117709 0.26852,0.124173 0.13571,0.0091 0.19547,0.05187 0.32578,0.226584 l 0.16047,0.214497 0.69267,0.08468 c 0.8373,0.102536 1.74548,0.08598 2.49724,-0.04601 0.79483,-0.13951 0.95037,-0.252861 1.04102,-0.762813 0.0277,-0.163522 0.0747,-0.298302 0.0976,-0.296762 0.15857,0.01148 1.50004,-0.05016 1.82719,-0.08386 0.43998,-0.04541 0.98824,-0.244669 1.03619,-0.377357 0.0178,-0.0463 0.0617,-0.313962 0.0984,-0.596708 0.10984,-0.812049 -0.0137,-1.394737 -0.32096,-1.519168 -0.0825,-0.03388 -0.38932,-0.07695 -0.68216,-0.09759 -0.80342,-0.05645 -0.86397,-0.06269 -0.90716,-0.11288 -0.0441,-0.05077 0.33617,-0.204784 0.61604,-0.248365 0.0951,-0.01496 0.56268,-0.112875 1.03857,-0.218511 1.22931,-0.272949 1.29833,-0.282394 1.89415,-0.298362 0.50912,-0.01366 1.90222,-0.104851 3.78903,-0.244331 0.47074,-0.03488 0.91118,-0.08125 0.97977,-0.105611 0.25954,-0.09205 0.43709,-0.114559 0.99101,-0.118534 0.33045,-0.0025 0.65013,-0.03269 0.75957,-0.07176 0.10398,-0.03706 0.2876,-0.0763 0.40885,-0.08709 0.25711,-0.02325 1.5163,-0.318439 1.75863,-0.412866 0.31262,-0.121744 0.81405,-0.443501 0.95955,-0.614445 0.15144,-0.178029 0.1683,-0.228641 0.17901,-0.507199 0.009,-0.231637 -0.0132,-0.364897 -0.0951,-0.53139 -0.0602,-0.122086 -0.12997,-0.22253 -0.15323,-0.22416 -0.024,-4.12e-4 -0.17428,-0.128361 -0.33703,-0.28061 -0.72292,-0.675848 -1.04887,-0.929435 -1.50547,-1.178098 -0.16737,-0.09112 -0.44196,-0.247775 -0.6088,-0.347533 -0.34827,-0.20843 -1.14486,-0.462951 -1.92398,-0.61203 l 0,9.93e-4 c -0.82515,-0.158111 -3.29257,-0.318642 -4.28577,-0.279 -0.44274,0.01774 -0.88358,0.03418 -0.97731,0.03552 -0.0937,9.93e-4 -0.52252,0.03279 -0.95311,0.06772 -0.43064,0.03503 -1.14603,0.08434 -1.58931,0.109655 -0.44337,0.02534 -0.9934,0.06318 -1.22246,0.08548 -0.22902,0.02216 -0.59222,0.05018 -0.80717,0.06288 -1.18462,0.06976 -2.26923,0.143083 -2.81014,0.187092 -0.3364,0.02747 -1.05105,0.07451 -1.58849,0.106426 -0.81857,0.04879 -1.00335,0.04675 -1.13779,-0.01292 -0.144,-0.06323 -0.16953,-0.05995 -0.24515,0.0234 -0.0718,0.07905 -0.2274,0.101179 -1.06032,0.150773 -0.5376,0.03209 -1.09752,0.083 -1.24261,0.1145 -0.21722,0.04799 -0.31187,0.04367 -0.53384,-0.01779 -0.35712,-0.0989 -0.47296,-0.236938 -0.49507,-0.58785 -0.0223,-0.352401 -0.11509,-0.515138 -0.33868,-0.590249 -0.10481,-0.03582 -0.90269,-0.106148 -1.9425,-0.170954 -1.75301,-0.109482 -2.15505,-0.16148 -2.58198,-0.345918 -0.0779,-0.03364 -0.39831,-0.137468 -0.71278,-0.230614 -0.31446,-0.09318 -0.62389,-0.19505 -0.68864,-0.22337 -0.0648,-0.02782 -0.45296,-0.148934 -0.85877,-0.272551 -0.40575,-0.123959 -0.93793,-0.293373 -1.18614,-0.376547 -0.24802,-0.08373 -0.72035,-0.227772 -1.04825,-0.318543 -0.32795,-0.09086 -1.00151,-0.30483 -1.4974,-0.478164 -0.49593,-0.17325 -1.02254,-0.344627 -1.16764,-0.377348 -0.44093,-0.102764 -1.3011,-0.237907 -1.70462,-0.266902 -0.34975,-0.02524 -0.66678,-0.121892 -1.04907,-0.319318 -0.5159,-0.265551 -0.91005,-0.397404 -0.98456,-0.33303 -0.0169,0.01401 0.0672,0.14342 0.18709,0.288673 l 0.2193,0.265288 -0.0161,0.416895 c -0.0157,0.409219 -0.0124,0.414192 0.11203,0.437846 0.10068,0.01958 0.16383,-0.01893 0.32013,-0.183867 0.10841,-0.114474 0.23846,-0.20299 0.28951,-0.199979 0.0507,0.0045 0.33376,0.144399 0.62893,0.312869 0.2952,0.168316 0.56309,0.309833 0.5959,0.312084 0.0335,0.002 0.15627,0.06569 0.27096,0.143519 0.1148,0.07745 0.46456,0.277083 0.77895,0.441076 0.31433,0.163989 0.62735,0.34574 0.69508,0.407217 0.0678,0.06159 0.14288,0.113516 0.1669,0.11531 0.12769,0.0092 1.84888,1.235785 1.84331,1.313539 9e-5,0.02057 0.0507,0.0394 0.11775,0.04278 0.0743,0.005 0.11935,0.03642 0.11608,0.08064 -0.005,0.04173 -0.0322,0.0593 -0.0718,0.04034 -0.0372,-0.01719 -0.14195,0.03065 -0.23466,0.10724 -0.0918,0.07574 -0.18317,0.133394 -0.20399,0.132247 -0.0768,-0.0054 -0.11734,0.19977 -0.054,0.272541 0.054,0.06245 0.12949,0.06273 0.52814,0.005 0.25557,-0.03711 0.50724,-0.06552 0.56041,-0.06207 0.13063,0.008 0.81936,0.455534 0.81444,0.52976 -0.009,0.115399 -0.4124,0.3825 -0.56201,0.371734 -0.23173,-0.01669 -1.14389,0.0704 -1.20877,0.115304 -0.0326,0.02261 -0.15692,0.02966 -0.27657,0.01456 -0.12204,-0.01565 -0.25259,-0.0025 -0.2967,0.02906 -0.0514,0.03677 -0.31672,0.04824 -0.76039,0.03388 -0.58388,-0.01888 -0.71034,-0.03811 -0.90314,-0.128221 -0.23698,-0.110595 -0.59417,-0.380523 -0.82086,-0.621689 -0.0746,-0.07938 -0.19494,-0.170244 -0.26693,-0.203204 -0.0719,-0.03314 -0.14337,-0.102267 -0.15886,-0.154007 -0.0153,-0.05187 -0.11985,-0.184428 -0.23223,-0.292713 -0.11245,-0.10813 -0.22912,-0.240242 -0.26041,-0.292687 -0.0315,-0.05246 -0.082,-0.09508 -0.10968,-0.09759 -0.0574,-0.0045 -0.27916,-0.199393 -0.75556,-0.662001 -0.17953,-0.174233 -0.46432,-0.436212 -0.63381,-0.582206 -0.16944,-0.145849 -0.41547,-0.371808 -0.54507,-0.50154 -0.12965,-0.129747 -0.38212,-0.375723 -0.56124,-0.548336 -0.17903,-0.172569 -0.32306,-0.3293 -0.32335,-0.349153 -8e-5,-0.02012 -0.0722,-0.08111 -0.16693,-0.134671 -0.0946,-0.05338 -0.32512,-0.275398 -0.51201,-0.492652 -0.29339,-0.341054 -0.46584,-0.498777 -1.02571,-0.946695 -0.19185,-0.153485 -0.78251,-0.739293 -0.95795,-0.950684 -0.0981,-0.118385 -0.26256,-0.275999 -0.36444,-0.350752 -0.10211,-0.07466 -0.27416,-0.220851 -0.38463,-0.324967 l -0.2016,-0.191096 -0.72654,-0.03875 c -0.19991,-0.01098 -0.39907,-0.01759 -0.5588,-0.01938 -0.15973,-0.0015 -0.27971,9.94e-4 -0.32174,0.01048 -0.38402,0.08404 -0.91918,0.152363 -1.21918,0.152403 -0.33856,-2.49e-4 -0.40741,0.05006 -0.2621,0.189516 0.1277,0.122453 0.41452,0.657301 0.55963,1.041808 0.0772,0.204391 0.23118,0.546737 0.34107,0.760354 0.10989,0.213686 0.2278,0.451892 0.26289,0.526565 0.11436,0.243248 0.53615,1.164854 0.6386,1.3966 0.14618,0.330601 0.32951,0.664948 0.44593,0.812009 0.15436,0.195001 0.58466,1.038599 0.75718,1.483699 0.0841,0.217016 0.21357,0.472928 0.28788,0.570903 0.0743,0.09809 0.20991,0.374744 0.30157,0.612815 0.0918,0.238081 0.20652,0.482209 0.25479,0.543503 0.11724,0.149193 0.0753,0.289801 -0.0806,0.271731 -0.14015,-0.01639 -0.59347,-0.154216 -1.09338,-0.33465 -0.88698,-0.32127 -1.35986,-0.452851 -1.71192,-0.477354 -0.20032,-0.01366 -0.46395,-0.04976 -0.5862,-0.08225 -0.35794,-0.09496 -2.13117,-0.0961 -2.13848,-0.0015 0,0.02514 0.38266,0.264577 0.85152,0.534619 1.23294,0.710169 1.44942,0.826944 1.73772,0.933773 0.14196,0.0537 0.32997,0.161782 0.41523,0.240292 0.15303,0.140652 0.34673,0.263215 0.60718,0.387855 0.16623,0.07942 0.1354,0.169528 -0.0774,0.223345 -0.0701,0.01779 -0.0965,0.05709 -0.13547,0.0887 -0.0252,0.06612 -0.0477,0.128202 -0.0661,0.190301 a 36.796753,107.47702 75.96188 0 0 -5.1413,0.592694 z m 0.67815,0.772467 a 36.796753,107.47702 75.96188 0 0 -38.46962,7.598288 36.796753,107.47702 75.96188 0 0 -69.78517,30.001252 62.139784,62.139784 0 0 0 -0.18627,3.730201 62.139784,62.139784 0 0 0 62.14015,62.139358 62.139784,62.139784 0 0 0 62.13935,-62.139358 62.139784,62.139784 0 0 0 -15.83844,-41.329741 z m -108.25479,37.59954 a 62.139784,62.139784 0 0 1 0.25722,-3.3544389 36.796753,107.47702 75.96188 0 0 -24.84864,35.1441979 36.796753,107.47702 75.96188 0 0 39.93554,16.244837 36.796753,107.47702 75.96188 0 1 -35.66834,-15.894875 36.796753,107.47702 75.96188 0 1 20.32422,-32.139721 z"
       id="path4140"
       inkscape:connector-curvature="0" />
  </g>
</svg>
