<?xml version="1.0" encoding="UTF-8" standalone="no"?>
<!-- Created with Inkscape (http://www.inkscape.org/) -->

<svg
   xmlns:dc="http://purl.org/dc/elements/1.1/"
   xmlns:cc="http://creativecommons.org/ns#"
   xmlns:rdf="http://www.w3.org/1999/02/22-rdf-syntax-ns#"
   xmlns:svg="http://www.w3.org/2000/svg"
   xmlns="http://www.w3.org/2000/svg"
   xmlns:sodipodi="http://sodipodi.sourceforge.net/DTD/sodipodi-0.dtd"
   xmlns:inkscape="http://www.inkscape.org/namespaces/inkscape"
   width="64.005936mm"
   height="10.131641mm"
   viewBox="0 0 226.79269 35.899517"
   id="svg5006"
   version="1.1"
   inkscape:version="0.91 r13725"
   sodipodi:docname="PBCAltLogo_white.svg">
  <defs
     id="defs5008" />
  <sodipodi:namedview
     id="base"
     pagecolor="#ffffff"
     bordercolor="#666666"
     borderopacity="1.0"
     inkscape:pageopacity="0.0"
     inkscape:pageshadow="2"
     inkscape:zoom="11.2"
     inkscape:cx="47.271774"
     inkscape:cy="4.8056236"
     inkscape:document-units="px"
     inkscape:current-layer="text5463"
     showgrid="false"
     inkscape:window-width="1869"
     inkscape:window-height="1056"
     inkscape:window-x="51"
     inkscape:window-y="24"
     inkscape:window-maximized="1"
     fit-margin-top="0"
     fit-margin-left="0"
     fit-margin-right="0"
     fit-margin-bottom="0" />
  <metadata
     id="metadata5011">
    <rdf:RDF>
      <cc:Work
         rdf:about="">
        <dc:format>image/svg+xml</dc:format>
        <dc:type
           rdf:resource="http://purl.org/dc/dcmitype/StillImage" />
        <dc:title></dc:title>
      </cc:Work>
    </rdf:RDF>
  </metadata>
  <g
     inkscape:label="Layer 1"
     inkscape:groupmode="layer"
     id="layer1"
     transform="translate(781.96783,139.87327)">
    <g
       id="g4804"
       transform="matrix(1.0174508,0,0,-1.0174508,-1149.117,599.79169)">
      <g
         transform="scale(1,-1)"
         style="font-style:normal;font-weight:normal;font-size:13.20774841px;line-height:125%;font-family:sans-serif;letter-spacing:0px;word-spacing:0px;fill:#6f7c91;fill-opacity:1;stroke:none;stroke-width:1px;stroke-linecap:butt;stroke-linejoin:miter;stroke-opacity:1"
         id="text5463">
        <g
           id="g4265">
          <g
             transform="matrix(0.09483543,0,0,0.09483543,163.22038,-566.08784)"
             id="g5471">
            <g
               transform="translate(-1.5025819e-5,0)"
               id="g5473">
              <circle
                 style="color:#000000;clip-rule:nonzero;display:inline;overflow:visible;visibility:visible;opacity:1;isolation:auto;mix-blend-mode:normal;color-interpolation:sRGB;color-interpolation-filters:linearRGB;solid-color:#000000;solid-opacity:1;fill:#ffbb88;fill-opacity:1;fill-rule:nonzero;stroke:none;stroke-width:0.30000001;stroke-linecap:round;stroke-linejoin:round;stroke-miterlimit:4;stroke-dasharray:none;stroke-dashoffset:0;stroke-opacity:1;color-rendering:auto;image-rendering:auto;shape-rendering:auto;text-rendering:auto;enable-background:accumulate"
                 id="circle5475"
                 cx="2269.968"
                 cy="-1510.4996"
                 r="166.5578" />
              <path
                 inkscape:connector-curvature="0"
                 style="color:#000000;font-style:normal;font-variant:normal;font-weight:normal;font-stretch:normal;font-size:medium;line-height:normal;font-family:sans-serif;text-indent:0;text-align:start;text-decoration:none;text-decoration-line:none;text-decoration-style:solid;text-decoration-color:#000000;letter-spacing:normal;word-spacing:normal;text-transform:none;direction:ltr;block-progression:tb;writing-mode:lr-tb;baseline-shift:baseline;text-anchor:start;white-space:normal;clip-rule:nonzero;display:inline;overflow:visible;visibility:visible;opacity:1;isolation:auto;mix-blend-mode:normal;color-interpolation:sRGB;color-interpolation-filters:linearRGB;solid-color:#000000;solid-opacity:1;fill:#ca002b;fill-opacity:1;fill-rule:nonzero;stroke:none;stroke-width:8.91647911;stroke-linecap:round;stroke-linejoin:round;stroke-miterlimit:4;stroke-dasharray:none;stroke-dashoffset:0;stroke-opacity:1;color-rendering:auto;image-rendering:auto;shape-rendering:auto;text-rendering:auto;enable-background:accumulate"
                 d="m 2269.9693,-1696.5259 c -102.5207,0 -186.0263,83.5057 -186.0263,186.0264 0,102.5208 83.5056,186.0264 186.0263,186.0264 102.5207,0 186.0263,-83.5056 186.0263,-186.0264 0,-102.5208 -83.5056,-186.0264 -186.0263,-186.0264 z"
                 id="path5477" />
              <path
                 inkscape:connector-curvature="0"
                 style="color:#000000;font-style:normal;font-variant:normal;font-weight:normal;font-stretch:normal;font-size:medium;line-height:normal;font-family:sans-serif;text-indent:0;text-align:start;text-decoration:none;text-decoration-line:none;text-decoration-style:solid;text-decoration-color:#000000;letter-spacing:normal;word-spacing:normal;text-transform:none;direction:ltr;block-progression:tb;writing-mode:lr-tb;baseline-shift:baseline;text-anchor:start;white-space:normal;clip-rule:nonzero;display:inline;overflow:visible;visibility:visible;opacity:1;isolation:auto;mix-blend-mode:normal;color-interpolation:sRGB;color-interpolation-filters:linearRGB;solid-color:#000000;solid-opacity:1;fill:#ffffff;fill-opacity:1;fill-rule:nonzero;stroke:none;stroke-width:8.91647911;stroke-linecap:round;stroke-linejoin:round;stroke-miterlimit:4;stroke-dasharray:none;stroke-dashoffset:0;stroke-opacity:1;color-rendering:auto;image-rendering:auto;shape-rendering:auto;text-rendering:auto;enable-background:accumulate"
                 d="m 2269.9693,-1684.8884 c -96.2187,0 -174.3888,78.1701 -174.3888,174.3889 0,96.2188 78.1701,174.3889 174.3888,174.3889 96.2187,0 174.389,-78.1701 174.389,-174.3889 0,-96.2188 -78.1703,-174.3889 -174.389,-174.3889 z"
                 id="path5479" />
              <circle
                 cy="-1510.4996"
                 cx="2269.968"
                 id="circle5481"
                 style="color:#000000;clip-rule:nonzero;display:inline;overflow:visible;visibility:visible;opacity:1;isolation:auto;mix-blend-mode:normal;color-interpolation:sRGB;color-interpolation-filters:linearRGB;solid-color:#000000;solid-opacity:1;fill:#ca002b;fill-opacity:1;fill-rule:nonzero;stroke:none;stroke-width:0.30000001;stroke-linecap:round;stroke-linejoin:round;stroke-miterlimit:4;stroke-dasharray:none;stroke-dashoffset:0;stroke-opacity:1;color-rendering:auto;image-rendering:auto;shape-rendering:auto;text-rendering:auto;enable-background:accumulate"
                 r="166.5578" />
              <g
                 id="g5483"
                 style="fill:#ffffff;fill-opacity:1"
                 transform="matrix(1.8993601,0,0,1.8993601,2152.6798,-1686.7747)">
                <path
                   style="fill:#ffffff;fill-opacity:1;stroke:none;stroke-width:0.5;stroke-miterlimit:4;stroke-dasharray:none;stroke-opacity:1"
                   d="m 998.48633,-624.83008 c -0.0423,0.003 -0.0847,0.006 -0.12695,0.01 -0.0338,-0.003 -0.0677,-0.006 -0.10157,-0.008 l 0,0.0156 c -2.96799,0.19255 -5.27873,2.65272 -5.28515,5.62695 10e-4,2.97799 2.3134,5.44392 5.28515,5.63672 l 0,0.0117 c 0.0456,-10e-4 0.0912,-0.003 0.13672,-0.006 0.0306,0.002 0.0612,0.003 0.0918,0.004 l 0,-0.008 c 0.0469,-0.003 0.0921,-0.0114 0.13867,-0.0156 0.0466,0.004 0.0918,0.0126 0.13867,0.0156 l 0,0.008 c 0.0306,-9.4e-4 0.0612,-0.002 0.0918,-0.004 0.0455,0.003 0.0911,0.005 0.13672,0.006 l 0,-0.0117 c 2.97171,-0.1928 5.28411,-2.65873 5.28511,-5.63672 -0.01,-2.97423 -2.3171,-5.4344 -5.28511,-5.62695 l 0,-0.0156 c -0.0339,0.002 -0.0677,0.005 -0.10157,0.008 -0.0422,-0.004 -0.0847,-0.007 -0.12695,-0.01 l 0,0.0195 c -0.0469,0.003 -0.0921,0.0115 -0.13867,0.0156 -0.0465,-0.004 -0.0918,-0.0126 -0.13867,-0.0156 l 0,-0.0195 z m -0.23242,12.37305 c -1.6267,0.007 -3.3944,0.33267 -5.20313,0.72461 -8.80878,2.68098 -19.66415,12.19169 -25.50586,14.92578 -5.8417,2.73409 -5.83128,2.33508 -8.82617,3.16406 -3.21062,0.88869 -10.31396,0.9281 -10.22461,1.97461 0.0752,0.88108 10.62584,0.13487 11.33008,1.44531 1.97363,3.67248 10.48047,20.01172 10.48047,20.01172 l -11.00391,17.62696 c -2.12494,-1.32108 -4.10676,-2.76061 -5.91797,-4.30469 l -2.34375,2.79492 c 1.92476,1.66404 4.03626,3.21206 6.30469,4.62695 l -5.09375,8.12305 c 0.67038,0.46762 1.35691,0.9109 2.05859,1.33008 0.59842,0.34092 1.2066,0.66399 1.82422,0.96875 l 4.51172,-8.51953 c 2.49172,1.30893 5.0246,2.38197 7.56055,3.22265 l 1.25,-3.42382 c -2.37341,-0.80426 -4.47064,-2.32715 -6.8086,-3.5586 l 10.05469,-18.88672 0.004,-0.008 c -2.46142,-6.34343 -4.79129,-21.25535 -3.95117,-22.42383 0.84012,-1.16848 11.46722,-13.15476 20.93945,-12.5625 1.56262,0.35101 4.18578,9.54084 7.07422,34.99414 l -1.22852,33.58399 c -3.93229,-0.12834 -7.76296,-0.53226 -11.44336,-1.21094 l -0.99218,5.65039 c 3.92932,0.75275 8.0212,1.20047 12.22265,1.34375 l -0.55078,15.06445 a 54.625443,54.625431 0 0 0 3.84961,0.19336 54.625443,54.625431 0 0 0 3.84961,-0.19336 l -0.5508,-15.06445 c 4.2015,-0.14328 8.2934,-0.591 12.2227,-1.34375 l -0.9922,-5.65039 c -3.6804,0.67868 -7.5111,1.08259 -11.4434,1.21094 l -1.2285,-33.58399 c 2.8885,-25.4533 5.5116,-34.64313 7.0742,-34.99414 9.4723,-0.59226 20.0994,11.39402 20.9395,12.5625 0.8401,1.16848 -1.4898,16.0804 -3.9512,22.42383 l 0,0.008 10.0547,18.88672 c -2.3379,1.23145 -4.4352,2.75434 -6.8086,3.5586 l 1.25,3.42382 c 2.536,-0.84068 5.0689,-1.91372 7.5606,-3.22265 l 4.5117,8.51953 c 0.6176,-0.30476 1.2258,-0.62783 1.8242,-0.96875 0.7017,-0.41918 1.3882,-0.86246 2.0586,-1.33008 l -5.0938,-8.12305 c 2.2686,-1.41489 4.38,-2.96291 6.3047,-4.62695 l -2.3437,-2.79492 c -1.8112,1.54408 -3.793,2.98361 -5.918,4.30469 l -11.0039,-17.62696 c 0,0 8.5069,-16.33924 10.4805,-20.01172 0.7042,-1.31044 11.2549,-0.56423 11.3301,-1.44531 0.089,-1.04651 -7.0139,-1.08592 -10.2247,-1.97461 -2.9948,-0.82898 -2.9844,-0.42997 -8.8261,-3.16406 -5.8417,-2.73409 -16.6971,-12.2448 -25.5059,-14.92578 -1.8087,-0.39194 -3.5764,-0.71712 -5.20312,-0.72461 l -0.004,0 c -0.0754,0 -0.14991,9.4e-4 -0.22461,0.002 -0.0466,2e-4 -0.0958,0.007 -0.14258,0.008 -0.0468,-7.1e-4 -0.096,-0.008 -0.14258,-0.008 -0.0747,-9.9e-4 -0.14925,-0.002 -0.22461,-0.002 l -0.004,0 z m -36.00977,9.05273 c -1.88749,4.9e-4 -3.41748,1.53048 -3.41797,3.41797 4.9e-4,1.88749 1.53048,3.41748 3.41797,3.41797 1.88825,5.9e-4 3.41943,-1.52972 3.41992,-3.41797 -4.9e-4,-1.88825 -1.53167,-3.41856 -3.41992,-3.41797 z m 72.76176,0 c -1.8883,-5.9e-4 -3.4195,1.52972 -3.42,3.41797 5e-4,1.88825 1.5317,3.41856 3.42,3.41797 1.8875,-4.9e-4 3.4174,-1.53048 3.4179,-3.41797 -5e-4,-1.88749 -1.5304,-3.41748 -3.4179,-3.41797 z"
                   transform="matrix(1.4860799,0,0,1.4860799,-1422.2843,940.1864)"
                   id="path5485"
                   inkscape:connector-curvature="0" />
              </g>
              <path
                 style="color:#000000;font-style:normal;font-variant:normal;font-weight:normal;font-stretch:normal;font-size:medium;line-height:normal;font-family:sans-serif;text-indent:0;text-align:start;text-decoration:none;text-decoration-line:none;text-decoration-style:solid;text-decoration-color:#000000;letter-spacing:normal;word-spacing:normal;text-transform:none;direction:ltr;block-progression:tb;writing-mode:lr-tb;baseline-shift:baseline;text-anchor:start;white-space:normal;clip-rule:nonzero;display:inline;overflow:visible;visibility:visible;opacity:1;isolation:auto;mix-blend-mode:normal;color-interpolation:sRGB;color-interpolation-filters:linearRGB;solid-color:#000000;solid-opacity:1;fill:#ca002b;fill-opacity:1;fill-rule:evenodd;stroke:none;stroke-width:3.91862702;stroke-linecap:butt;stroke-linejoin:miter;stroke-miterlimit:4;stroke-dasharray:none;stroke-dashoffset:0;stroke-opacity:1;color-rendering:auto;image-rendering:auto;shape-rendering:auto;text-rendering:auto;enable-background:accumulate"
                 d="m 2184.0332,-1512.459 0,3.918 170,0 0,-3.918 -170,0 z"
                 id="path5487"
                 inkscape:connector-curvature="0" />
            </g>
            <circle
               r="166.5578"
               cy="-1510.4996"
               cx="2269.968"
               id="circle5489"
               style="color:#000000;clip-rule:nonzero;display:inline;overflow:visible;visibility:visible;opacity:1;isolation:auto;mix-blend-mode:normal;color-interpolation:sRGB;color-interpolation-filters:linearRGB;solid-color:#000000;solid-opacity:1;fill:#ffbb88;fill-opacity:1;fill-rule:nonzero;stroke:none;stroke-width:0.30000001;stroke-linecap:round;stroke-linejoin:round;stroke-miterlimit:4;stroke-dasharray:none;stroke-dashoffset:0;stroke-opacity:1;color-rendering:auto;image-rendering:auto;shape-rendering:auto;text-rendering:auto;enable-background:accumulate" />
            <path
               id="path5491"
               d="m 2269.9693,-1696.5259 c -102.5207,0 -186.0263,83.5057 -186.0263,186.0264 0,102.5208 83.5056,186.0264 186.0263,186.0264 102.5207,0 186.0263,-83.5056 186.0263,-186.0264 0,-102.5208 -83.5056,-186.0264 -186.0263,-186.0264 z"
               style="color:#000000;font-style:normal;font-variant:normal;font-weight:normal;font-stretch:normal;font-size:medium;line-height:normal;font-family:sans-serif;text-indent:0;text-align:start;text-decoration:none;text-decoration-line:none;text-decoration-style:solid;text-decoration-color:#000000;letter-spacing:normal;word-spacing:normal;text-transform:none;direction:ltr;block-progression:tb;writing-mode:lr-tb;baseline-shift:baseline;text-anchor:start;white-space:normal;clip-rule:nonzero;display:inline;overflow:visible;visibility:visible;opacity:1;isolation:auto;mix-blend-mode:normal;color-interpolation:sRGB;color-interpolation-filters:linearRGB;solid-color:#000000;solid-opacity:1;fill:#ffffff;fill-opacity:1;fill-rule:nonzero;stroke:none;stroke-width:8.91647911;stroke-linecap:round;stroke-linejoin:round;stroke-miterlimit:4;stroke-dasharray:none;stroke-dashoffset:0;stroke-opacity:1;color-rendering:auto;image-rendering:auto;shape-rendering:auto;text-rendering:auto;enable-background:accumulate"
               inkscape:connector-curvature="0" />
            <path
               id="path5493"
               d="m 2269.9693,-1684.8884 c -96.2187,0 -174.3888,78.1701 -174.3888,174.3889 0,96.2188 78.1701,174.3889 174.3888,174.3889 96.2187,0 174.389,-78.1701 174.389,-174.3889 0,-96.2188 -78.1703,-174.3889 -174.389,-174.3889 z"
               style="color:#000000;font-style:normal;font-variant:normal;font-weight:normal;font-stretch:normal;font-size:medium;line-height:normal;font-family:sans-serif;text-indent:0;text-align:start;text-decoration:none;text-decoration-line:none;text-decoration-style:solid;text-decoration-color:#000000;letter-spacing:normal;word-spacing:normal;text-transform:none;direction:ltr;block-progression:tb;writing-mode:lr-tb;baseline-shift:baseline;text-anchor:start;white-space:normal;clip-rule:nonzero;display:inline;overflow:visible;visibility:visible;opacity:1;isolation:auto;mix-blend-mode:normal;color-interpolation:sRGB;color-interpolation-filters:linearRGB;solid-color:#000000;solid-opacity:1;fill:#214478;fill-opacity:1;fill-rule:nonzero;stroke:none;stroke-width:8.91647911;stroke-linecap:round;stroke-linejoin:round;stroke-miterlimit:4;stroke-dasharray:none;stroke-dashoffset:0;stroke-opacity:1;color-rendering:auto;image-rendering:auto;shape-rendering:auto;text-rendering:auto;enable-background:accumulate"
               inkscape:connector-curvature="0" />
            <circle
               r="166.5578"
               style="color:#000000;clip-rule:nonzero;display:inline;overflow:visible;visibility:visible;opacity:1;isolation:auto;mix-blend-mode:normal;color-interpolation:sRGB;color-interpolation-filters:linearRGB;solid-color:#000000;solid-opacity:1;fill:#ffffff;fill-opacity:1;fill-rule:nonzero;stroke:none;stroke-width:0.30000001;stroke-linecap:round;stroke-linejoin:round;stroke-miterlimit:4;stroke-dasharray:none;stroke-dashoffset:0;stroke-opacity:1;color-rendering:auto;image-rendering:auto;shape-rendering:auto;text-rendering:auto;enable-background:accumulate"
               id="circle5495"
               cx="2269.968"
               cy="-1510.4996" />
            <g
               transform="matrix(1.8993601,0,0,1.8993601,2152.6798,-1686.7747)"
               style="fill:#214478;fill-opacity:1"
               id="g5497">
              <path
                 inkscape:connector-curvature="0"
                 id="path5499"
                 transform="matrix(1.4860799,0,0,1.4860799,-1422.2843,940.1864)"
                 d="m 998.48633,-624.83008 c -0.0423,0.003 -0.0847,0.006 -0.12695,0.01 -0.0338,-0.003 -0.0677,-0.006 -0.10157,-0.008 l 0,0.0156 c -2.96799,0.19255 -5.27873,2.65272 -5.28515,5.62695 10e-4,2.97799 2.3134,5.44392 5.28515,5.63672 l 0,0.0117 c 0.0456,-10e-4 0.0912,-0.003 0.13672,-0.006 0.0306,0.002 0.0612,0.003 0.0918,0.004 l 0,-0.008 c 0.0469,-0.003 0.0921,-0.0114 0.13867,-0.0156 0.0466,0.004 0.0918,0.0126 0.13867,0.0156 l 0,0.008 c 0.0306,-9.4e-4 0.0612,-0.002 0.0918,-0.004 0.0455,0.003 0.0911,0.005 0.13672,0.006 l 0,-0.0117 c 2.97171,-0.1928 5.28411,-2.65873 5.28511,-5.63672 -0.01,-2.97423 -2.3171,-5.4344 -5.28511,-5.62695 l 0,-0.0156 c -0.0339,0.002 -0.0677,0.005 -0.10157,0.008 -0.0422,-0.004 -0.0847,-0.007 -0.12695,-0.01 l 0,0.0195 c -0.0469,0.003 -0.0921,0.0115 -0.13867,0.0156 -0.0465,-0.004 -0.0918,-0.0126 -0.13867,-0.0156 l 0,-0.0195 z m -0.23242,12.37305 c -1.6267,0.007 -3.3944,0.33267 -5.20313,0.72461 -8.80878,2.68098 -19.66415,12.19169 -25.50586,14.92578 -5.8417,2.73409 -5.83128,2.33508 -8.82617,3.16406 -3.21062,0.88869 -10.31396,0.9281 -10.22461,1.97461 0.0752,0.88108 10.62584,0.13487 11.33008,1.44531 1.97363,3.67248 10.48047,20.01172 10.48047,20.01172 l -11.00391,17.62696 c -2.12494,-1.32108 -4.10676,-2.76061 -5.91797,-4.30469 l -2.34375,2.79492 c 1.92476,1.66404 4.03626,3.21206 6.30469,4.62695 l -5.09375,8.12305 c 0.67038,0.46762 1.35691,0.9109 2.05859,1.33008 0.59842,0.34092 1.2066,0.66399 1.82422,0.96875 l 4.51172,-8.51953 c 2.49172,1.30893 5.0246,2.38197 7.56055,3.22265 l 1.25,-3.42382 c -2.37341,-0.80426 -4.47064,-2.32715 -6.8086,-3.5586 l 10.05469,-18.88672 0.004,-0.008 c -2.46142,-6.34343 -4.79129,-21.25535 -3.95117,-22.42383 0.84012,-1.16848 11.46722,-13.15476 20.93945,-12.5625 1.56262,0.35101 4.18578,9.54084 7.07422,34.99414 l -1.22852,33.58399 c -3.93229,-0.12834 -7.76296,-0.53226 -11.44336,-1.21094 l -0.99218,5.65039 c 3.92932,0.75275 8.0212,1.20047 12.22265,1.34375 l -0.55078,15.06445 a 54.625443,54.625431 0 0 0 3.84961,0.19336 54.625443,54.625431 0 0 0 3.84961,-0.19336 l -0.5508,-15.06445 c 4.2015,-0.14328 8.2934,-0.591 12.2227,-1.34375 l -0.9922,-5.65039 c -3.6804,0.67868 -7.5111,1.08259 -11.4434,1.21094 l -1.2285,-33.58399 c 2.8885,-25.4533 5.5116,-34.64313 7.0742,-34.99414 9.4723,-0.59226 20.0994,11.39402 20.9395,12.5625 0.8401,1.16848 -1.4898,16.0804 -3.9512,22.42383 l 0,0.008 10.0547,18.88672 c -2.3379,1.23145 -4.4352,2.75434 -6.8086,3.5586 l 1.25,3.42382 c 2.536,-0.84068 5.0689,-1.91372 7.5606,-3.22265 l 4.5117,8.51953 c 0.6176,-0.30476 1.2258,-0.62783 1.8242,-0.96875 0.7017,-0.41918 1.3882,-0.86246 2.0586,-1.33008 l -5.0938,-8.12305 c 2.2686,-1.41489 4.38,-2.96291 6.3047,-4.62695 l -2.3437,-2.79492 c -1.8112,1.54408 -3.793,2.98361 -5.918,4.30469 l -11.0039,-17.62696 c 0,0 8.5069,-16.33924 10.4805,-20.01172 0.7042,-1.31044 11.2549,-0.56423 11.3301,-1.44531 0.089,-1.04651 -7.0139,-1.08592 -10.2247,-1.97461 -2.9948,-0.82898 -2.9844,-0.42997 -8.8261,-3.16406 -5.8417,-2.73409 -16.6971,-12.2448 -25.5059,-14.92578 -1.8087,-0.39194 -3.5764,-0.71712 -5.20312,-0.72461 l -0.004,0 c -0.0754,0 -0.14991,9.4e-4 -0.22461,0.002 -0.0466,2e-4 -0.0958,0.007 -0.14258,0.008 -0.0468,-7.1e-4 -0.096,-0.008 -0.14258,-0.008 -0.0747,-9.9e-4 -0.14925,-0.002 -0.22461,-0.002 l -0.004,0 z m -36.00977,9.05273 c -1.88749,4.9e-4 -3.41748,1.53048 -3.41797,3.41797 4.9e-4,1.88749 1.53048,3.41748 3.41797,3.41797 1.88825,5.9e-4 3.41943,-1.52972 3.41992,-3.41797 -4.9e-4,-1.88825 -1.53167,-3.41856 -3.41992,-3.41797 z m 72.76176,0 c -1.8883,-5.9e-4 -3.4195,1.52972 -3.42,3.41797 5e-4,1.88825 1.5317,3.41856 3.42,3.41797 1.8875,-4.9e-4 3.4174,-1.53048 3.4179,-3.41797 -5e-4,-1.88749 -1.5304,-3.41748 -3.4179,-3.41797 z"
                 style="fill:#214478;fill-opacity:1;stroke:none;stroke-width:0.5;stroke-miterlimit:4;stroke-dasharray:none;stroke-opacity:1" />
            </g>
          </g>
          <g
             id="g4296"
             style="fill:#ffffff">
            <path
               inkscape:connector-curvature="0"
               d="m 404.76796,-697.49599 0,-17.9097 1.40002,0 q 0.5019,0 0.63397,0.48868 l 0.19812,1.58493 q 0.8585,-1.04341 1.95475,-1.67738 1.10945,-0.63397 2.54909,-0.63397 1.14908,0 2.08683,0.44906 0.93775,0.43586 1.59813,1.30757 0.66039,0.8585 1.017,2.13965 0.35661,1.28115 0.35661,2.94533 0,1.47927 -0.39623,2.76042 -0.39623,1.26794 -1.13587,2.20569 -0.73963,0.92455 -1.82267,1.46606 -1.06982,0.52831 -2.41702,0.52831 -1.24152,0 -2.12644,-0.40944 -0.87171,-0.40944 -1.54531,-1.16228 l 0,5.91707 -2.35098,0 z m 5.9567,-16.24553 q -1.14908,0 -2.02079,0.52831 -0.8585,0.52831 -1.58493,1.49248 l 0,6.47179 q 0.64718,0.87172 1.41323,1.22832 0.77926,0.35661 1.73021,0.35661 1.8623,0 2.86609,-1.33398 1.00379,-1.33398 1.00379,-3.80383 0,-1.30757 -0.23774,-2.24532 -0.22454,-0.93775 -0.66039,-1.5321 -0.43586,-0.60755 -1.06983,-0.88492 -0.63397,-0.27736 -1.43964,-0.27736 z"
               style="letter-spacing:-0.92471099px;fill:#ffffff"
               id="path5599" />
            <path
               inkscape:connector-curvature="0"
               d="m 418.444,-702.02625 0,-13.37944 1.34719,0 q 0.38303,0 0.52831,0.14528 0.14529,0.14529 0.19812,0.5019 l 0.15849,2.08682 q 0.68681,-1.40002 1.69059,-2.17928 1.017,-0.79246 2.3774,-0.79246 0.55472,0 1.00379,0.13207 0.44906,0.11887 0.83209,0.34341 l -0.30378,1.75663 q -0.0925,0.33019 -0.40944,0.33019 -0.18491,0 -0.56794,-0.11887 -0.38302,-0.13208 -1.06982,-0.13208 -1.22832,0 -2.06041,0.71322 -0.81888,0.71322 -1.37361,2.07362 l 0,8.51899 -2.35098,0 z"
               style="letter-spacing:-0.92471099px;fill:#ffffff"
               id="path5601" />
            <path
               inkscape:connector-curvature="0"
               d="m 430.76254,-715.40569 0,13.37944 -2.35098,0 0,-13.37944 2.35098,0 z m 0.52831,-4.20007 q 0,0.3434 -0.14529,0.64718 -0.13208,0.29057 -0.36982,0.52831 -0.22453,0.22453 -0.52831,0.35661 -0.30377,0.13208 -0.64718,0.13208 -0.3434,0 -0.64718,-0.13208 -0.29057,-0.13208 -0.52831,-0.35661 -0.22453,-0.23774 -0.3566,-0.52831 -0.13208,-0.30378 -0.13208,-0.64718 0,-0.3434 0.13208,-0.64718 0.13207,-0.31698 0.3566,-0.54152 0.23774,-0.23774 0.52831,-0.36981 0.30378,-0.13208 0.64718,-0.13208 0.34341,0 0.64718,0.13208 0.30378,0.13207 0.52831,0.36981 0.23774,0.22454 0.36982,0.54152 0.14529,0.30378 0.14529,0.64718 z"
               style="letter-spacing:-0.92471099px;fill:#ffffff"
               id="path5603" />
            <path
               inkscape:connector-curvature="0"
               d="m 433.98134,-702.02625 0,-13.37944 1.40003,0 q 0.50189,0 0.63397,0.48868 l 0.18491,1.45285 q 0.87171,-0.96416 1.94153,-1.55851 1.08304,-0.59435 2.49627,-0.59435 1.09624,0 1.92833,0.36982 0.8453,0.35661 1.40002,1.0302 0.56794,0.66039 0.85851,1.59814 0.29057,0.93775 0.29057,2.07362 l 0,8.51899 -2.35098,0 0,-8.51899 q 0,-1.51889 -0.70001,-2.35098 -0.68681,-0.8453 -2.11324,-0.8453 -1.04342,0 -1.95475,0.5019 -0.89813,0.50189 -1.66418,1.36039 l 0,9.85298 -2.35098,0 z"
               style="letter-spacing:-0.92471099px;fill:#ffffff"
               id="path5605" />
            <path
               inkscape:connector-curvature="0"
               d="m 456.88713,-713.0283 q -0.10567,0.14529 -0.21133,0.22453 -0.10566,0.0793 -0.30378,0.0793 -0.19811,0 -0.43585,-0.15849 -0.22453,-0.17171 -0.58114,-0.36982 -0.35661,-0.19812 -0.87171,-0.35661 -0.5019,-0.1717 -1.24153,-0.1717 -0.97738,0 -1.73022,0.35661 -0.75284,0.3434 -1.26794,1.00379 -0.5019,0.66038 -0.76605,1.59813 -0.25095,0.93775 -0.25095,2.10004 0,1.21511 0.27737,2.16607 0.27736,0.93775 0.77925,1.58493 0.5019,0.63397 1.21512,0.97737 0.72642,0.33019 1.62455,0.33019 0.8585,0 1.41323,-0.19811 0.55472,-0.21133 0.92454,-0.46227 0.36982,-0.25095 0.60756,-0.44907 0.23774,-0.21132 0.47548,-0.21132 0.30377,0 0.44906,0.22453 l 0.66039,0.8585 q -0.87172,1.06983 -2.17928,1.57173 -1.30757,0.48868 -2.76042,0.48868 -1.25474,0 -2.33777,-0.46227 -1.06983,-0.46227 -1.8623,-1.33398 -0.79246,-0.88492 -1.25473,-2.16607 -0.44907,-1.28115 -0.44907,-2.91891 0,-1.49248 0.40944,-2.76042 0.42265,-1.26795 1.21512,-2.17928 0.80567,-0.92454 1.98116,-1.43965 1.17549,-0.5151 2.69438,-0.5151 1.40002,0 2.48306,0.46227 1.08303,0.44907 1.91512,1.28115 l -0.62076,0.8453 z"
               style="letter-spacing:-0.92471099px;fill:#ffffff"
               id="path5607" />
            <path
               inkscape:connector-curvature="0"
               d="m 464.46284,-715.61702 q 1.2019,0 2.2189,0.40944 1.017,0.39623 1.75663,1.16228 0.73964,0.75285 1.14908,1.8755 0.42264,1.10945 0.42264,2.53589 0,0.55473 -0.11887,0.73964 -0.11887,0.1849 -0.44906,0.1849 l -8.90202,0 q 0.0264,1.26795 0.3434,2.2057 0.31699,0.93775 0.87171,1.57172 0.55473,0.62076 1.32078,0.93775 0.76605,0.30378 1.717,0.30378 0.88492,0 1.51889,-0.19812 0.64718,-0.21132 1.10946,-0.44906 0.46227,-0.23774 0.76604,-0.43586 0.31699,-0.21132 0.54152,-0.21132 0.29057,0 0.44907,0.22453 l 0.66038,0.8585 q -0.43585,0.52831 -1.04341,0.92455 -0.60756,0.38302 -1.30757,0.63397 -0.6868,0.25095 -1.42643,0.36982 -0.73964,0.13207 -1.46606,0.13207 -1.38682,0 -2.56231,-0.46227 -1.16228,-0.47548 -2.02078,-1.3736 -0.8453,-0.91134 -1.32078,-2.24532 -0.47548,-1.33398 -0.47548,-3.0642 0,-1.40002 0.42265,-2.61513 0.43586,-1.21512 1.24153,-2.10003 0.80567,-0.89813 1.96796,-1.40003 1.16228,-0.5151 2.61513,-0.5151 z m 0.0528,1.73022 q -1.7038,0 -2.68117,0.99058 -0.97738,0.97737 -1.21512,2.72079 l 7.27747,0 q 0,-0.81888 -0.22453,-1.49247 -0.22453,-0.6868 -0.66039,-1.17549 -0.43585,-0.5019 -1.06982,-0.76605 -0.62077,-0.27736 -1.42644,-0.27736 z"
               style="letter-spacing:-0.92471099px;fill:#ffffff"
               id="path5609" />
            <path
               inkscape:connector-curvature="0"
               d="m 476.12346,-701.81492 q -1.58493,0 -2.44343,-0.88492 -0.8453,-0.88492 -0.8453,-2.5491 l 0,-8.1888 -1.61134,0 q -0.21133,0 -0.35661,-0.11887 -0.14529,-0.13208 -0.14529,-0.39623 l 0,-0.93775 2.19249,-0.27736 0.54152,-4.13403 q 0.0264,-0.19812 0.1717,-0.31699 0.14528,-0.13207 0.36981,-0.13207 l 1.1887,0 0,4.6095 3.83025,0 0,1.7038 -3.83025,0 0,8.03031 q 0,0.8453 0.40944,1.25474 0.40944,0.40944 1.05662,0.40944 0.36982,0 0.63397,-0.0925 0.27736,-0.10566 0.47548,-0.22453 0.19812,-0.11887 0.33019,-0.21132 0.14529,-0.10566 0.25095,-0.10566 0.18491,0 0.3302,0.22453 l 0.6868,1.12266 q -0.60756,0.56793 -1.46606,0.89812 -0.8585,0.31699 -1.76984,0.31699 z"
               style="letter-spacing:-0.92471099px;fill:#ffffff"
               id="path5611" />
            <path
               inkscape:connector-curvature="0"
               d="m 486.41336,-715.61702 q 1.46606,0 2.64155,0.48869 1.1887,0.48869 2.00758,1.38681 0.83209,0.89813 1.26794,2.17928 0.44907,1.26794 0.44907,2.83967 0,1.58493 -0.44907,2.85287 -0.43585,1.26794 -1.26794,2.16607 -0.81888,0.89813 -2.00758,1.38681 -1.17549,0.47548 -2.64155,0.47548 -1.46606,0 -2.65475,-0.47548 -1.17549,-0.48868 -2.00758,-1.38681 -0.83209,-0.89813 -1.28115,-2.16607 -0.44907,-1.26794 -0.44907,-2.85287 0,-1.57173 0.44907,-2.83967 0.44906,-1.28115 1.28115,-2.17928 0.83209,-0.89812 2.00758,-1.38681 1.18869,-0.48869 2.65475,-0.48869 z m 0,11.93981 q 1.98117,0 2.95854,-1.32078 0.97737,-1.33398 0.97737,-3.71138 0,-2.3906 -0.97737,-3.72458 -0.97737,-1.33398 -2.95854,-1.33398 -1.00379,0 -1.74342,0.3434 -0.73963,0.3434 -1.24153,0.99058 -0.48868,0.64718 -0.73963,1.59814 -0.23774,0.93775 -0.23774,2.12644 0,1.1887 0.23774,2.12645 0.25095,0.93775 0.73963,1.58493 0.5019,0.63397 1.24153,0.97737 0.73963,0.34341 1.74342,0.34341 z"
               style="letter-spacing:-0.92471099px;fill:#ffffff"
               id="path5613" />
            <path
               inkscape:connector-curvature="0"
               d="m 494.77741,-702.02625 0,-13.37944 1.40003,0 q 0.50189,0 0.63397,0.48868 l 0.18491,1.45285 q 0.87171,-0.96416 1.94153,-1.55851 1.08304,-0.59435 2.49627,-0.59435 1.09624,0 1.92833,0.36982 0.8453,0.35661 1.40002,1.0302 0.56794,0.66039 0.85851,1.59814 0.29057,0.93775 0.29057,2.07362 l 0,8.51899 -2.35098,0 0,-8.51899 q 0,-1.51889 -0.70001,-2.35098 -0.68681,-0.8453 -2.11324,-0.8453 -1.04342,0 -1.95475,0.5019 -0.89813,0.50189 -1.66418,1.36039 l 0,9.85298 -2.35098,0 z"
               style="letter-spacing:-0.92471099px;fill:#ffffff"
               id="path5615" />
            <path
               inkscape:connector-curvature="0"
               d="m 508.90004,-702.02625 0,-19.21727 1.26795,0 0,8.37371 q 0.87171,-1.16228 2.02078,-1.83587 1.14908,-0.6736 2.58872,-0.6736 2.41702,0 3.76421,1.67739 1.3604,1.66417 1.3604,5.01894 0,1.43964 -0.38303,2.69438 -0.36981,1.24153 -1.10945,2.16607 -0.72642,0.91134 -1.79625,1.43965 -1.05662,0.52831 -2.44343,0.52831 -1.37361,0 -2.36419,-0.52831 -0.99058,-0.54152 -1.7038,-1.58493 l -0.0793,1.61134 q -0.0396,0.33019 -0.35661,0.33019 l -0.76605,0 z m 5.52084,-12.34924 q -1.30756,0 -2.36418,0.6736 -1.05662,0.67359 -1.88871,1.8755 l 0,6.93406 q 0.75284,1.13587 1.66417,1.59814 0.91134,0.44906 2.10004,0.44906 1.16228,0 2.03399,-0.42264 0.87171,-0.42265 1.45285,-1.1887 0.59435,-0.77926 0.88492,-1.84909 0.30378,-1.08303 0.30378,-2.37739 0,-2.93212 -1.08304,-4.30573 -1.08303,-1.38681 -3.10382,-1.38681 z"
               style="font-style:normal;font-variant:normal;font-weight:300;font-stretch:normal;font-family:Lato;-inkscape-font-specification:'Lato Light';fill:#ffffff;fill-opacity:1"
               id="path5617" />
            <path
               inkscape:connector-curvature="0"
               d="m 531.60086,-702.02625 q -0.39623,0 -0.48868,-0.36981 l -0.18491,-1.67739 q -0.54152,0.52831 -1.08304,0.95096 -0.52831,0.42265 -1.10945,0.71322 -0.58114,0.29057 -1.25473,0.43586 -0.6736,0.15849 -1.47927,0.15849 -0.6736,0 -1.30757,-0.19812 -0.63397,-0.19811 -1.12266,-0.60755 -0.48868,-0.40944 -0.79246,-1.04342 -0.29057,-0.64718 -0.29057,-1.5453 0,-0.83209 0.47548,-1.54531 0.47547,-0.71322 1.47926,-1.24153 1.017,-0.52831 2.60193,-0.84529 1.59814,-0.31699 3.83025,-0.36982 l 0,-1.37361 q 0,-1.82267 -0.79247,-2.80004 -0.77926,-0.99058 -2.32456,-0.99058 -0.95096,0 -1.62455,0.26416 -0.66039,0.26415 -1.12266,0.58114 -0.46227,0.31698 -0.75285,0.58114 -0.29057,0.26415 -0.48868,0.26415 -0.26416,0 -0.39623,-0.23774 l -0.22454,-0.38302 q 1.03021,-1.03021 2.16607,-1.55852 1.13587,-0.52831 2.57552,-0.52831 1.05662,0 1.84908,0.3434 0.79247,0.3302 1.30757,0.96417 0.52831,0.62076 0.79246,1.51889 0.26416,0.88492 0.26416,1.98116 l 0,8.55862 -0.5019,0 z m -5.2831,-0.70001 q 0.76605,0 1.40002,-0.15849 0.64718,-0.1717 1.1887,-0.46227 0.55473,-0.30378 1.03021,-0.71322 0.47548,-0.40944 0.93775,-0.88492 l 0,-3.4208 q -1.8755,0.0528 -3.2359,0.29057 -1.34719,0.22453 -2.23211,0.62076 -0.87171,0.39623 -1.29436,0.95096 -0.40944,0.54152 -0.40944,1.24153 0,0.66038 0.21132,1.14907 0.22454,0.47548 0.58114,0.79247 0.35661,0.30377 0.83209,0.44906 0.47548,0.14528 0.99058,0.14528 z"
               style="font-style:normal;font-variant:normal;font-weight:300;font-stretch:normal;font-family:Lato;-inkscape-font-specification:'Lato Light';fill:#ffffff;fill-opacity:1"
               id="path5619" />
            <path
               inkscape:connector-curvature="0"
               d="m 536.06054,-697.37712 0,-17.79083 0.6868,0 q 0.1717,0 0.27736,0.0792 0.10567,0.066 0.11887,0.25095 l 0.11887,2.03399 q 0.87171,-1.1887 2.034,-1.88871 1.17549,-0.70001 2.62834,-0.70001 2.43022,0 3.77741,1.67739 1.3472,1.67738 1.3472,5.03215 0,1.43964 -0.38303,2.69438 -0.36982,1.24153 -1.09624,2.16607 -0.72643,0.91134 -1.79626,1.43965 -1.05662,0.52831 -2.44343,0.52831 -1.34719,0 -2.32456,-0.48869 -0.97738,-0.48869 -1.6906,-1.45285 l 0,6.41896 -1.25473,0 z m 5.50763,-16.99837 q -1.30757,0 -2.3774,0.6868 -1.05662,0.6736 -1.8755,1.88871 l 0,6.89445 q 0.75285,1.13586 1.66418,1.59813 0.92454,0.46227 2.10003,0.46227 1.16228,0 2.034,-0.42264 0.87171,-0.42265 1.45285,-1.1887 0.59435,-0.77926 0.88492,-1.84909 0.30378,-1.08303 0.30378,-2.37739 0,-2.93212 -1.08304,-4.30573 -1.06983,-1.38681 -3.10382,-1.38681 z"
               style="font-style:normal;font-variant:normal;font-weight:300;font-stretch:normal;font-family:Lato;-inkscape-font-specification:'Lato Light';fill:#ffffff;fill-opacity:1"
               id="path5621" />
            <path
               inkscape:connector-curvature="0"
               d="m 553.78947,-701.81492 q -1.33398,0 -2.08682,-0.73964 -0.73963,-0.73963 -0.73963,-2.28494 l 0,-8.98126 -1.88871,0 q -0.14529,0 -0.23774,-0.0793 -0.0925,-0.0793 -0.0925,-0.22453 l 0,-0.48869 2.24532,-0.15849 0.31699,-4.70196 q 0.0132,-0.11887 0.0924,-0.21132 0.0925,-0.0925 0.23774,-0.0925 l 0.59435,0 0,5.01895 4.13403,0 0,0.93775 -4.13403,0 0,8.91523 q 0,0.54151 0.13208,0.93775 0.14528,0.38302 0.38302,0.63397 0.25095,0.25095 0.58114,0.36981 0.3302,0.11887 0.71322,0.11887 0.47548,0 0.81888,-0.13207 0.3434,-0.14529 0.59435,-0.30378 0.25095,-0.1717 0.40944,-0.30378 0.15849,-0.14528 0.25095,-0.14528 0.10566,0 0.21132,0.13207 l 0.3434,0.55473 q -0.50189,0.55472 -1.28115,0.89813 -0.76605,0.33019 -1.59814,0.33019 z"
               style="font-style:normal;font-variant:normal;font-weight:300;font-stretch:normal;font-family:Lato;-inkscape-font-specification:'Lato Light';fill:#ffffff;fill-opacity:1"
               id="path5623" />
            <path
               inkscape:connector-curvature="0"
               d="m 561.26299,-715.16795 0,13.1417 -1.25474,0 0,-13.1417 1.25474,0 z m 0.55472,-4.53026 q 0,0.23774 -0.10566,0.44906 -0.0924,0.19812 -0.25095,0.35661 -0.15849,0.15849 -0.36981,0.25095 -0.21133,0.0924 -0.44907,0.0924 -0.23774,0 -0.44906,-0.0924 -0.21132,-0.0925 -0.36982,-0.25095 -0.15849,-0.15849 -0.25094,-0.35661 -0.0925,-0.21132 -0.0925,-0.44906 0,-0.23774 0.0925,-0.44907 0.0924,-0.22453 0.25094,-0.38302 0.1585,-0.15849 0.36982,-0.25095 0.21132,-0.0924 0.44906,-0.0924 0.23774,0 0.44907,0.0924 0.21132,0.0925 0.36981,0.25095 0.1585,0.15849 0.25095,0.38302 0.10566,0.21133 0.10566,0.44907 z"
               style="font-style:normal;font-variant:normal;font-weight:300;font-stretch:normal;font-family:Lato;-inkscape-font-specification:'Lato Light';fill:#ffffff;fill-opacity:1"
               id="path5625" />
            <path
               inkscape:connector-curvature="0"
               d="m 573.17061,-713.5434 q -0.0925,0.18491 -0.29057,0.18491 -0.14529,0 -0.38303,-0.1585 -0.22453,-0.1717 -0.60755,-0.36981 -0.36982,-0.21133 -0.92455,-0.36982 -0.54151,-0.1717 -1.33398,-0.1717 -0.71322,0 -1.30757,0.21132 -0.58114,0.19812 -1.00379,0.54152 -0.40944,0.3434 -0.64717,0.80567 -0.22454,0.44907 -0.22454,0.95096 0,0.62077 0.31699,1.03021 0.31699,0.40944 0.83209,0.70001 0.5151,0.29057 1.16228,0.50189 0.66039,0.21132 1.34719,0.42265 0.6868,0.21132 1.33398,0.47548 0.66039,0.25094 1.17549,0.63397 0.5151,0.38302 0.83209,0.93775 0.31699,0.55473 0.31699,1.34719 0,0.8585 -0.31699,1.59814 -0.30378,0.73963 -0.89813,1.28115 -0.58114,0.54152 -1.43964,0.8585 -0.8585,0.31699 -1.95475,0.31699 -1.38681,0 -2.3906,-0.43586 -1.00379,-0.44906 -1.79625,-1.16228 l 0.30377,-0.44906 q 0.066,-0.10566 0.14529,-0.1585 0.0793,-0.0528 0.22453,-0.0528 0.1717,0 0.42265,0.21133 0.25095,0.21132 0.64718,0.46227 0.40944,0.23774 1.00379,0.44906 0.60755,0.21133 1.49247,0.21133 0.83209,0 1.46606,-0.22454 0.63397,-0.23773 1.05662,-0.63397 0.42265,-0.39623 0.63397,-0.92454 0.22454,-0.54152 0.22454,-1.13587 0,-0.66038 -0.31699,-1.09624 -0.31699,-0.43585 -0.83209,-0.73963 -0.5151,-0.30378 -1.17549,-0.51511 -0.64718,-0.21132 -1.34719,-0.42264 -0.6868,-0.21133 -1.34719,-0.46227 -0.64718,-0.25095 -1.16228,-0.63398 -0.5151,-0.38302 -0.83209,-0.92454 -0.31698,-0.55472 -0.31698,-1.3736 0,-0.70002 0.30377,-1.34719 0.30378,-0.64718 0.85851,-1.13587 0.56793,-0.48869 1.3736,-0.77926 0.80568,-0.29057 1.80947,-0.29057 1.2019,0 2.12644,0.3434 0.93775,0.3434 1.71701,1.05662 l -0.27736,0.43586 z"
               style="font-style:normal;font-variant:normal;font-weight:300;font-stretch:normal;font-family:Lato;-inkscape-font-specification:'Lato Light';fill:#ffffff;fill-opacity:1"
               id="path5627" />
            <path
               inkscape:connector-curvature="0"
               d="m 580.87567,-701.81492 q -1.33398,0 -2.08682,-0.73964 -0.73964,-0.73963 -0.73964,-2.28494 l 0,-8.98126 -1.8887,0 q -0.14529,0 -0.23774,-0.0793 -0.0925,-0.0793 -0.0925,-0.22453 l 0,-0.48869 2.24532,-0.15849 0.31699,-4.70196 q 0.0132,-0.11887 0.0924,-0.21132 0.0925,-0.0925 0.23774,-0.0925 l 0.59435,0 0,5.01895 4.13402,0 0,0.93775 -4.13402,0 0,8.91523 q 0,0.54151 0.13207,0.93775 0.14529,0.38302 0.38303,0.63397 0.25095,0.25095 0.58114,0.36981 0.33019,0.11887 0.71322,0.11887 0.47548,0 0.81888,-0.13207 0.3434,-0.14529 0.59435,-0.30378 0.25095,-0.1717 0.40944,-0.30378 0.15849,-0.14528 0.25095,-0.14528 0.10566,0 0.21132,0.13207 l 0.3434,0.55473 q -0.50189,0.55472 -1.28115,0.89813 -0.76605,0.33019 -1.59814,0.33019 z"
               style="font-style:normal;font-variant:normal;font-weight:300;font-stretch:normal;font-family:Lato;-inkscape-font-specification:'Lato Light';fill:#ffffff;fill-opacity:1"
               id="path5629" />
          </g>
        </g>
      </g>
    </g>
  </g>
</svg>
