<?xml version="1.0" encoding="UTF-8" standalone="no"?>
<!-- Created with Inkscape (http://www.inkscape.org/) -->

<svg
   xmlns:dc="http://purl.org/dc/elements/1.1/"
   xmlns:cc="http://creativecommons.org/ns#"
   xmlns:rdf="http://www.w3.org/1999/02/22-rdf-syntax-ns#"
   xmlns:svg="http://www.w3.org/2000/svg"
   xmlns="http://www.w3.org/2000/svg"
   xmlns:sodipodi="http://sodipodi.sourceforge.net/DTD/sodipodi-0.dtd"
   xmlns:inkscape="http://www.inkscape.org/namespaces/inkscape"
   id="svg5452"
   version="1.1"
   inkscape:version="0.91 r13725"
   xml:space="preserve"
   width="411.21249"
   height="262.23749"
   viewBox="0 0 411.21249 262.23749"
   sodipodi:docname="puggles.svg"><metadata
     id="metadata5458"><rdf:RDF><cc:Work
         rdf:about=""><dc:format>image/svg+xml</dc:format><dc:type
           rdf:resource="http://purl.org/dc/dcmitype/StillImage" /><dc:title></dc:title></cc:Work></rdf:RDF></metadata><defs
     id="defs5456"><clipPath
       clipPathUnits="userSpaceOnUse"
       id="clipPath5486"><path
         d="m 687.422,359.488 c -55.547,0 -68.836,-3.316 -106.973,-14.097 -47.285,-13.282 -64.695,-14.93 -78.789,-14.93 -28.203,0 -77.961,9.129 -113.613,63.848 -31.504,48.929 -33.992,130.203 -33.992,158.402 0,19.09 1.648,122.75 5.789,133.531 2.48,5.797 8.301,9.11 29.863,9.11 9.121,0 48.926,-1.661 57.227,-1.661 58.054,0 61.367,0 61.367,-17.402 0,-4.98 -0.84,-18.269 -1.66,-26.539 -1.653,-26.559 -1.653,12.809 -1.653,-13.711 0,-82.949 3.313,-159.23 64.68,-159.23 19.07,0 31.504,6.621 37.312,9.113 0.833,19.898 6.633,119.039 6.633,153.039 0,16.59 -0.832,38.148 0,45.609 1.66,13.262 15.762,14.09 24.055,14.09 14.109,0 77.129,-1.64 90.391,-1.64 27.363,0 34.839,0 34.839,-22.411 0,-136 -0.835,-160.859 -3.328,-250.429 -1.66,-61.391 -10.769,-66.36 -32.351,-66.36 l -39.797,1.668 z"
         id="path5488"
         inkscape:connector-curvature="0" /></clipPath><linearGradient
       x1="0"
       y1="0"
       x2="1"
       y2="0"
       gradientUnits="userSpaceOnUse"
       gradientTransform="matrix(-1.61e-5,368.203,368.203,1.61e-5,558.477,330.46)"
       spreadMethod="pad"
       id="linearGradient5490"><stop
         style="stop-opacity:1;stop-color:#f6eb4e"
         offset="0"
         id="stop5492" /><stop
         style="stop-opacity:1;stop-color:#ffffff"
         offset="1"
         id="stop5494" /></linearGradient><clipPath
       clipPathUnits="userSpaceOnUse"
       id="clipPath5502"><path
         d="m 976.105,653.711 c 0,-56.441 43.435,-58.602 56.465,-58.602 33.65,0 74.9,22.782 74.9,72.711 0,57.551 -44.5,57.551 -58.62,57.551 -40.18,0 -72.745,-28.242 -72.745,-71.66 z M 888.164,280.25 c 0,-46.68 80.332,-97.691 181.326,-97.691 52.1,0 118.32,14.101 118.32,46.66 0,17.39 -14.11,19.562 -66.22,25 -73.83,7.601 -156.317,24.961 -223.652,53.172 -4.325,-7.602 -9.774,-15.18 -9.774,-27.141 z m 413.286,517.859 c 10.86,0 15.2,-2.168 15.2,-16.289 2.19,-30.379 3.26,-55.359 3.26,-64.05 0,-15.211 -4.34,-22.79 -15.19,-26.051 -9.78,-2.168 -37.66,-2.168 -46.33,-2.168 2.16,-29.321 3.25,-56.449 -14.13,-95.551 -19.54,-45.59 -73.82,-121.578 -201.93,-121.578 -66.225,0 -99.869,16.289 -128.092,29.308 -3.269,-3.25 -6.523,-8.679 -6.523,-16.281 0,-29.301 42.344,-39.078 132.445,-59.711 27.14,-5.449 146.56,-31.476 171.54,-36.929 51.02,-11.918 119.41,-41.25 119.41,-124.829 0,-111.82 -134.62,-183.4683 -300.71,-183.4683 -97.712,0 -258.388,21.6993 -258.388,163.9183 0,56.449 27.148,78.172 64.043,99.902 -19.539,16.277 -46.668,37.977 -46.668,81.406 0,64.051 56.453,96.614 77.058,108.563 C 845.84,554.922 810,589.672 810,658.059 c 0,99.89 78.164,192.171 222.57,192.171 100.96,0 159.57,-43.429 182.37,-60.808 1.1,0 78.92,8.687 86.51,8.687 z"
         id="path5504"
         inkscape:connector-curvature="0" /></clipPath><linearGradient
       x1="0"
       y1="0"
       x2="1"
       y2="0"
       gradientUnits="userSpaceOnUse"
       gradientTransform="matrix(-3.36e-5,769.727,769.727,3.36e-5,1051.56,80.5102)"
       spreadMethod="pad"
       id="linearGradient5506"><stop
         style="stop-opacity:1;stop-color:#f6eb4e"
         offset="0"
         id="stop5508" /><stop
         style="stop-opacity:1;stop-color:#ffffff"
         offset="1"
         id="stop5510" /></linearGradient><clipPath
       clipPathUnits="userSpaceOnUse"
       id="clipPath5518"><path
         d="m 331.055,971.02 c 84.519,4.082 117.004,53.82 114.367,108.53 -4.641,96.11 -106.574,91.19 -123.149,90.39 -10.769,-0.53 -18.191,-1.71 -27.261,-2.99 1.367,-28.16 3.242,-67.11 3.062,-97.85 -0.039,-68.1 -0.496,-75.6 0.512,-96.319 13.355,-1.84 20.047,-2.351 32.469,-1.761 z M 298.313,353.441 c -3.254,-8.691 -15.2,-10.851 -34.739,-11.941 -23.886,-1.07 -64.054,-1.07 -71.66,-1.07 -13.027,0 -92.6171,0 -99.1406,2.16 -8.6718,2.16 -10.8593,13.039 -11.9336,18.449 -2.1679,15.203 -2.1679,24.981 -2.1679,55.371 0,119.41 0.3515,709.76 4.7187,818.32 2.1641,49.95 3.2422,53.21 56.4334,53.21 8.692,0 159.231,0 180.946,-1.1 160.668,-7.6 226.886,-40.16 269.23,-71.64 54.277,-40.18 92.273,-110.75 92.273,-190 0,-72.731 -32.566,-151.989 -100.964,-202.989 -72.735,-55.391 -154.153,-61.902 -223.633,-61.902 -33.66,0 -49.942,1.082 -69.492,3.261 0,-26.07 15.546,-394.941 10.129,-410.129 z"
         id="path5520"
         inkscape:connector-curvature="0" /></clipPath><linearGradient
       x1="0"
       y1="0"
       x2="1"
       y2="0"
       gradientUnits="userSpaceOnUse"
       gradientTransform="matrix(-4.14e-5,947.505,947.505,4.14e-5,380.474,340.43)"
       spreadMethod="pad"
       id="linearGradient5522"><stop
         style="stop-opacity:1;stop-color:#f6eb4e"
         offset="0"
         id="stop5524" /><stop
         style="stop-opacity:1;stop-color:#ffffff"
         offset="1"
         id="stop5526" /></linearGradient><clipPath
       clipPathUnits="userSpaceOnUse"
       id="clipPath5534"><path
         d="m 1554.57,648.5 c 3.61,-56.352 47.11,-55.73 60.1,-54.891 33.6,2.18 73.3,27.563 70.1,77.391 -3.7,57.422 -48.11,54.57 -62.19,53.66 -40.1,-2.57 -70.78,-32.84 -68.01,-76.16 z m -63.78,-378.34 c 2.99,-46.601 86.47,-92.359 187.22,-85.879 51.99,3.36 117.16,21.68 115.1,54.18 -1.14,17.34 -15.35,18.629 -67.7,20.68 -74.17,2.828 -157.63,14.879 -226.6,38.711 -3.86,-7.852 -8.78,-15.793 -8.02,-27.692 z m 379.19,543.32 c 10.84,0.68 15.31,-1.21 16.21,-15.289 4.14,-30.179 6.82,-55.05 7.38,-63.722 0.96,-15.16 -2.89,-23.02 -13.49,-26.977 -9.62,-2.781 -37.44,-4.562 -46.12,-5.133 4.05,-29.121 6.9,-56.109 -7.94,-96.25 -16.6,-46.75 -65.88,-126.07 -193.72,-134.289 -66.08,-4.25 -100.72,9.84 -129.72,21.012 -3.05,-3.441 -5.94,-9.07 -5.45,-16.66 1.89,-29.242 44.75,-36.293 136.01,-51.09 27.43,-3.672 148.28,-22 173.54,-25.82 51.69,-8.633 121.84,-33.524 127.2,-116.91 C 1941.04,170.75 1811.3,90.6094 1645.55,79.9492 1548.06,73.6719 1386.3,85.0195 1377.19,226.93 c -3.64,56.351 22.06,79.769 57.49,103.808 -20.54,15 -49.02,34.922 -51.82,78.25 -4.1,63.922 50.15,100.051 69.96,113.282 -21.89,19.269 -59.9,51.628 -64.28,119.89 -6.41,99.672 65.67,196.789 209.76,206.039 100.77,6.5 162.06,-33.078 185.92,-48.957 1.09,0.078 78.19,13.727 85.76,14.238 z"
         id="path5536"
         inkscape:connector-curvature="0" /></clipPath><linearGradient
       x1="0"
       y1="0"
       x2="1"
       y2="0"
       gradientUnits="userSpaceOnUse"
       gradientTransform="matrix(-3.37e-5,770.273,770.273,3.37e-5,1655.5,78.6402)"
       spreadMethod="pad"
       id="linearGradient5538"><stop
         style="stop-opacity:1;stop-color:#f6eb4e"
         offset="0"
         id="stop5540" /><stop
         style="stop-opacity:1;stop-color:#ffffff"
         offset="1"
         id="stop5542" /></linearGradient><clipPath
       clipPathUnits="userSpaceOnUse"
       id="clipPath5550"><path
         d="m 2457.95,529.711 c 17.44,-1.551 22.05,-8.981 23.99,-32.82 2.02,-25.993 4.15,-62.481 4.48,-71.153 1.76,-48.828 2.03,-63.648 -65.23,-66.066 -16.27,-0.59 -407.86,-3.621 -418.7,-3.621 -55.24,0 -54.68,2.078 -56.82,61.781 -4.11,113.887 -5.23,476.777 1.43,562.828 4.02,39.26 6.04,43.69 51.6,45.32 16.27,0.59 84.6,4.14 98.74,3.56 54.33,-0.21 54.33,-0.21 55.1,-21.9 0.98,-27.128 -3.86,-405.429 -0.83,-488.968 40.14,1.449 291.01,11.578 306.24,11.039 z"
         id="path5552"
         inkscape:connector-curvature="0" /></clipPath><linearGradient
       x1="0"
       y1="0"
       x2="1"
       y2="0"
       gradientUnits="userSpaceOnUse"
       gradientTransform="matrix(-2.94e-5,673.545,673.545,2.94e-5,2214.61,356.05)"
       spreadMethod="pad"
       id="linearGradient5554"><stop
         style="stop-opacity:1;stop-color:#f6eb4e"
         offset="0"
         id="stop5556" /><stop
         style="stop-opacity:1;stop-color:#ffffff"
         offset="1"
         id="stop5558" /></linearGradient><clipPath
       clipPathUnits="userSpaceOnUse"
       id="clipPath5566"><path
         d="m 2443.37,933.898 c -50.08,-1.808 -49.51,-38.406 -52.87,-59.097 16.46,-0.231 85.47,1.449 106.79,3.039 0.94,19.781 -3.82,57.859 -53.92,56.058 z m 172.89,-115.867 c 1.24,-34.832 -10.18,-40.222 -30.05,-40.922 -33.98,-1.23 -120.37,0.621 -141.91,-0.16 -27.35,-0.969 -55.56,-1.168 -82.91,-2.148 2.38,-19.84 7.05,-80.231 85.78,-77.391 67.96,2.449 137.02,14.102 146.12,14.43 5.82,0.211 16.86,-5.711 18.94,-17.27 2.07,-11.539 -0.78,-65.761 -0.78,-74.289 0,-25.222 -58.41,-40.441 -192.96,-40.441 -134.53,0 -215.18,91.32 -219.23,204.051 -5.44,150.828 124.58,203.66 223.2,207.199 96.15,3.48 188.94,-37.981 193.8,-173.059 z"
         id="path5568"
         inkscape:connector-curvature="0" /></clipPath><linearGradient
       x1="0"
       y1="0"
       x2="1"
       y2="0"
       gradientUnits="userSpaceOnUse"
       gradientTransform="matrix(-1.8e-5,411.445,411.445,1.8e-5,2407.71,579.84)"
       spreadMethod="pad"
       id="linearGradient5570"><stop
         style="stop-opacity:1;stop-color:#f6eb4e"
         offset="0"
         id="stop5572" /><stop
         style="stop-opacity:1;stop-color:#ffffff"
         offset="1"
         id="stop5574" /></linearGradient><clipPath
       clipPathUnits="userSpaceOnUse"
       id="clipPath5582"><path
         d="m 3034.46,951.211 c 2.8,-26.77 3,-40.922 1.17,-60.441 -3.22,-18.391 -7.92,-22.739 -23.23,-24.329 -22.93,-2.421 -36.23,1.348 -70.64,-2.242 -39.5,-4.14 -56.76,-23.969 -54.77,-43.097 2.28,-21.68 16.1,-30.532 85.82,-81.243 84.95,-60.679 100.08,-106.777 104.07,-145.039 6.52,-62.48 -3.27,-220.879 -194.13,-238.879 -140.4,-13.23 -204.52,2.93 -253.65,12.829 -37.79,7.621 -43.16,20.39 -44.51,33.152 -1.73,16.558 -0.35,77.168 1.95,104.488 1.97,18.231 2.44,26 15.19,27.34 26.78,2.789 122.72,-33.77 205.83,-25.09 15.29,1.602 45.62,7.371 42.82,34.121 -1.46,14.039 -8.64,21.02 -75.96,73.258 -95.34,73.801 -103.76,129.609 -106.81,158.922 -11.34,108.359 74.45,199.801 260.56,219.258 100.71,10.521 101.24,5.422 106.29,-43.008 z"
         id="path5584"
         inkscape:connector-curvature="0" /></clipPath><linearGradient
       x1="0"
       y1="0"
       x2="1"
       y2="0"
       gradientUnits="userSpaceOnUse"
       gradientTransform="matrix(-2.83e-5,647.832,647.832,2.83e-5,2831.02,350.95)"
       spreadMethod="pad"
       id="linearGradient5586"><stop
         style="stop-opacity:1;stop-color:#f6eb4e"
         offset="0"
         id="stop5588" /><stop
         style="stop-opacity:1;stop-color:#ffffff"
         offset="1"
         id="stop5590" /></linearGradient></defs><sodipodi:namedview
     pagecolor="#ffffff"
     bordercolor="#666666"
     borderopacity="1"
     objecttolerance="10"
     gridtolerance="10"
     guidetolerance="10"
     inkscape:pageopacity="0"
     inkscape:pageshadow="2"
     inkscape:window-width="1869"
     inkscape:window-height="1056"
     id="namedview5454"
     showgrid="false"
     inkscape:zoom="3.3176035"
     inkscape:cx="205.60625"
     inkscape:cy="131.11874"
     inkscape:window-x="51"
     inkscape:window-y="24"
     inkscape:window-maximized="1"
     inkscape:current-layer="g5460" /><g
     id="g5460"
     inkscape:groupmode="layer"
     inkscape:label="ink_ext_XXXXXX"
     transform="matrix(1.25,0,0,-1.25,0,262.2375)"><g
       id="g5462"
       transform="scale(0.1,0.1)"><path
         d="m 666.777,1056.96 c 107.024,229.95 319.817,369.08 526.933,324.52 230.08,-49.49 373.2,-308.48 342.75,-598.082 27.83,-80.757 41.78,-170.437 39.58,-264.039 l 32.41,-0.078 c 0.51,93.649 -14.92,183.379 -43.98,264.598 30.94,301.941 -123.36,572.921 -369.36,625.841 -218.301,46.96 -441.524,-92.3 -556.067,-325.52 9.187,-9.39 18.477,-18.5 27.734,-27.24"
         style="fill:#231f20;fill-opacity:1;fill-rule:nonzero;stroke:none"
         id="path5464"
         inkscape:connector-curvature="0" /><path
         d="m 705.637,1420.88 c 7.547,-27.74 238.511,-85.87 244.058,-112.65 44.453,-214.9 -76.57,-404.398 -152.007,-424.89 -84.875,-23.031 -410.168,272.14 -425.833,463.41 -21.203,259.25 -121.652,442.15 -36.765,465.18 84.844,23.05 302.644,-140.92 370.547,-391.05"
         style="fill:#152a5f;fill-opacity:1;fill-rule:nonzero;stroke:none"
         id="path5466"
         inkscape:connector-curvature="0" /><path
         d="m 1503.29,1233.03 c -18.91,-24.42 -262.53,22.65 -279.16,-1.74 -133.22,-195.74 -98.91,-441.47 -36.1,-496.501 70.65,-61.949 504.23,86.199 600.22,271.301 130.08,250.88 302.84,388.83 232.16,450.77 -70.63,61.93 -346.64,-3.44 -517.12,-223.83"
         style="fill:#152a5f;fill-opacity:1;fill-rule:nonzero;stroke:none"
         id="path5468"
         inkscape:connector-curvature="0" /><path
         d="m 1523.4,1220.13 c -18.4,-21.4 -223.99,16.63 -240.39,-4.7 -131.97,-171.09 -124.07,-383.649 -74.84,-430.641 55.37,-52.84 441.59,80.41 540.52,241.911 134.03,218.86 294.9,340.36 239.53,393.2 -55.37,52.89 -298.7,-6.88 -464.82,-199.77"
         style="fill:#6c99d7;fill-opacity:1;fill-rule:nonzero;stroke:none"
         id="path5470"
         inkscape:connector-curvature="0" /><path
         d="m 1536.46,783.398 c 30.45,289.602 -112.67,548.592 -342.75,598.082 -207.116,44.56 -619.726,-85.99 -726.745,-315.95 0.027,-0.02 0.055,-0.05 0.086,-0.08 l 1.269,-547.098 1107.72,1.007 c 2.2,93.602 -11.75,183.282 -39.58,264.039"
         style="fill:#6c99d7;fill-opacity:1;fill-rule:nonzero;stroke:none"
         id="path5472"
         inkscape:connector-curvature="0" /><path
         d="m 686.063,1421.54 c -17.696,54.77 -42.301,104.74 -70.372,148.88 -88.171,138.68 -210.75,218.86 -262.753,202.04 -68.524,-22.14 27.074,-187.29 62.445,-423.02 26.082,-173.95 315.191,-438.19 383.711,-416.042 46.304,14.993 107.605,119.262 111.765,254.082 63.008,-24.08 133.171,-39.95 207.711,-45.19 240.21,-16.91 542.53,126.5 557.37,336.69 -472.6,-306.54 -989.877,-57.44 -989.877,-57.44"
         style="fill:#6c99d7;fill-opacity:1;fill-rule:nonzero;stroke:none"
         id="path5474"
         inkscape:connector-curvature="0" /><path
         d="m 3125.29,599.898 c -5.08,48.563 -23.82,107.852 -124.21,179.571 0.35,-0.227 -10.87,7.91 -10.87,7.91 -14.9,10.82 -28.63,20.801 -39.01,28.75 13.28,1.172 22.75,1.113 32.35,0.91 10.13,-0.199 20.59,-0.41 33.93,0.992 55.82,5.801 63.55,49.84 66.08,64.309 l 0.35,1.941 0.19,1.969 c 2.14,23.012 1.83,40.672 -1.23,70.02 -2.74,26.312 -5.58,53.52 -29.92,73.24 -27.83,22.58 -63.66,20.02 -129.83,13.12 l 0,0 c -117.22,-12.26 -206.38,-52.321 -257.87,-115.81 -5.87,-7.25 -11.01,-14.808 -15.81,-22.511 -11.13,30.691 -28.14,56.8 -51.01,78.089 -43.16,40.142 -104.6,59.982 -177.72,57.352 -40.32,-1.46 -141.56,-12.84 -210.53,-86.98 -3.15,-3.391 -6.13,-6.872 -9.03,-10.411 0.12,20.911 0.2,36.993 0.2,48.313 0,9.408 -0.05,15.598 -0.17,18.718 -2.43,68.19 -51.23,68.62 -103.02,68.82 -11.25,0.32 -36.25,-0.65 -80.43,-2.68 l -20.81,-0.92 0.04,0 c -68.58,-2.45 -91.53,-23.24 -98.28,-88.981 l -0.11,-1.199 c -1.92,-24.739 -3.18,-70.371 -3.95,-125.719 -8.28,2.769 -17.56,3.988 -27.71,3.34 -5.67,-0.391 -17.38,-2.153 -72.53,-11.68 -33.65,20.348 -100.4,52.758 -199.2,46.41 -114.9,-7.402 -191.05,-63.07 -228.5,-133.769 -0.42,6.929 -0.92,14.367 -1.48,22.277 l 0.12,-3.469 c 0,39.461 -25.08,64.961 -63.87,64.961 -5.62,0 -17.42,-1.019 -73.07,-6.992 -32.31,22.461 -96.8,59.109 -195.81,59.109 -124.035,0 -206.855,-58.777 -245.695,-134.898 -45.723,9.91 -123.992,2.352 -172.41,7.801 5.476,3.668 10.933,7.558 16.336,11.691 75.09,55.977 120.156,146.449 120.156,241.708 0,91.56 -41.863,177.21 -112.004,229.12 -47.637,35.43 -120.113,72.83 -295.887,81.14 -21.125,1.06 -165.586,1.16 -203.242,1.16 -78.1326,0 -101.699,-22.38 -105.0662,-99.77 l 0,-0.17 C 30.1289,1121.37 30,488.219 30,416.41 c 0,-31.762 0,-43.66 2.6563,-62.25 l 0.1953,-1.351 0.2734,-1.34 c 7.6289,-38.129 30.6055,-51.039 45.293,-55.399 8.0273,-2.609 37.102,-4.308 133.496,-4.308 l 73.856,1.109 c 18.488,1.059 59.582,3.438 76.093,38.949 35.559,-42.429 85.293,-66.25 139.797,-66.25 19.973,0 42.317,2.801 91.953,16.731 34.09,9.629 43.465,12.25 92.95,12.289 2.226,-0.102 39.628,-1.66 39.628,-1.66 l 1.028,0 c 0.984,0 1.824,0.14 2.769,0.16 -4.148,-14.07 -6.648,-30.098 -6.648,-48.66 0,-135.098 111.933,-212.5902 307.06,-212.5902 145.36,0 259.67,47.711 314.27,123.8982 10.39,-23.777 25.52,-44.699 45.63,-62.3864 68.85,-60.543 178.52,-67.1094 258.36,-61.961 199.07,12.7891 334.18,111.4184 334.18,241.7894 0,4.07 -0.13,8.172 -0.39,12.289 -0.47,6.972 -1.37,14.672 -2.92,22.82 7.1,-0.539 14.6,-0.898 22.96,-0.898 3.19,0 401.9,2.98 420.45,3.64 91.36,3.289 112.21,38.629 112.36,102.821 0.16,-6.903 0.44,-12.762 0.88,-16.993 6.29,-60.257 64.26,-71.961 83.29,-75.808 0.01,0 9.71,-1.981 9.71,-1.981 50.52,-10.39 119.7,-24.629 258.12,-11.59 79.73,7.52 141.4,37.27 183.31,88.418 60.82,74.243 58.5,167.383 54.68,204"
         style="fill:#231f20;fill-opacity:1;fill-rule:nonzero;stroke:none"
         id="path5476"
         inkscape:connector-curvature="0" /><path
         d="m 4.78516,1238.14 0,-0.26 C 0.136719,1122.15 0,488.301 0,416.41 0,384.02 0,370.629 2.95703,349.922 2.96875,349.879 3.28125,347.66 3.28125,347.66 l 0.44922,-2.191 c 7.90233,-39.489 32.02343,-68.028 66.15233,-78.16 11.5508,-3.77 41.2382,-5.547 142.0312,-5.547 0.449,0.008 74.934,1.129 74.934,1.129 l 0.625,0.031 c 15.523,0.879 49.824,3.027 76.57,24.398 38.445,-33.422 86.113,-51.75 137.617,-51.75 22.5,0 47.09,2.981 100.07,17.86 32.508,9.172 39.442,11.101 84.293,11.16 0.305,-0.02 5.532,-0.231 8.645,-0.371 -0.598,-6.528 -1.328,-13.008 -1.328,-19.789 0,-151.9105 126.008,-242.59016 337.06,-242.59016 131.91,0 241.57,37.10156 309.2,102.78916 8.94,-12.2774 19.26,-23.5899 30.9,-33.8087 C 1447.06,3.5 1565.07,-4.05859 1650.59,1.44922 1867.27,15.3711 2012.84,124.57 2012.84,273.18 c 0,0 -0.08,2.468 -0.13,4.281 60.45,0.437 394.02,2.969 411.29,3.578 56.56,2.051 94.03,16.41 116.25,44.672 16.25,-14.762 39.39,-27.219 73.29,-34.063 0.02,-0.007 9.61,-1.957 9.61,-1.957 52.39,-10.781 124.11,-25.531 266.97,-12.07 88.01,8.301 156.53,41.699 203.69,99.27 52.8,64.441 63.11,140.847 63.11,190.668 0,14.32 -0.85,26.441 -1.79,35.453 -5.45,52.058 -25.21,114.758 -119.6,187.648 32.39,7.192 67.45,28.731 77.59,86.5 l 0.53,3.02 0.31,3.121 c 2.33,25.051 2,44.91 -1.25,76.078 -2.91,27.801 -6.87,65.871 -40.86,93.431 -38.78,31.45 -86.21,26.51 -151.85,19.65 -116.27,-12.16 -206.99,-51.07 -264.75,-112.358 -10.27,16.289 -22.32,31.168 -36.38,44.258 -49.12,45.7 -118.02,68.3 -199.24,65.37 -36.35,-1.31 -117.93,-10.77 -188.46,-60.08 0,0.08 -0.01,0.87 -0.01,0.87 -3.46,97.17 -84.47,97.5 -132.88,97.69 -11.71,0.34 -36.85,-0.65 -81.91,-2.7 0.04,0 -20.76,-0.92 -20.76,-0.92 -82.9,-2.97 -118.52,-35.47 -126.77,-115.899 -0.04,-0.39 -0.15,-1.589 -0.15,-1.589 -1.49,-19.262 -2.65,-51.512 -3.49,-95.114 -0.07,0 -0.13,0 -0.19,0 -6.48,-0.449 -15.54,-1.699 -65.94,-10.367 -61.49,34.379 -130.52,49.938 -205.82,45.09 -86.91,-5.59 -160.92,-38.57 -211.9,-92.551 -15.93,26.36 -44.39,42.621 -79.9,42.621 -6.4,0 -15.14,-0.652 -66.59,-6.14 -59.16,38.211 -126.93,58.257 -202.29,58.257 -115.39,0 -208.781,-48.168 -260.824,-132.156 -24.129,2.746 -51.902,2.867 -79.246,2.828 55.82,60.45 88.457,141.11 88.457,225.63 0,101.03 -46.414,195.7 -124.16,253.24 -51.262,38.11 -128.496,78.3 -312.317,86.99 -21.21,1.07 -156.21,1.19 -204.656,1.19 -94.3631,0 -130.96853,-34.82 -135.03884,-128.48"
         style="fill:#152a5f;fill-opacity:1;fill-rule:nonzero;stroke:none"
         id="path5478"
         inkscape:connector-curvature="0" /><path
         d="m 3125.29,599.898 c -5.08,48.563 -23.82,107.852 -124.21,179.571 0.35,-0.227 -10.87,7.91 -10.87,7.91 -14.9,10.82 -28.63,20.801 -39.01,28.75 13.28,1.172 22.75,1.113 32.35,0.91 10.13,-0.199 20.59,-0.41 33.93,0.992 55.82,5.801 63.55,49.84 66.08,64.309 l 0.35,1.941 0.19,1.969 c 2.14,23.012 1.83,40.672 -1.23,70.02 -2.74,26.312 -5.58,53.52 -29.92,73.24 -27.83,22.58 -63.66,20.02 -129.83,13.12 l 0,0 c -117.22,-12.26 -206.38,-52.321 -257.87,-115.81 -5.87,-7.25 -11.01,-14.808 -15.81,-22.511 -11.13,30.691 -28.14,56.8 -51.01,78.089 -43.16,40.142 -104.6,59.982 -177.72,57.352 -40.32,-1.46 -141.56,-12.84 -210.53,-86.98 -3.15,-3.391 -6.13,-6.872 -9.03,-10.411 0.12,20.911 0.2,36.993 0.2,48.313 0,9.408 -0.05,15.598 -0.17,18.718 -2.43,68.19 -51.23,68.62 -103.02,68.82 -11.25,0.32 -36.25,-0.65 -80.43,-2.68 l -20.81,-0.92 0.04,0 c -68.58,-2.45 -91.53,-23.24 -98.28,-88.981 l -0.11,-1.199 c -1.92,-24.739 -3.18,-70.371 -3.95,-125.719 -8.28,2.769 -17.56,3.988 -27.71,3.34 -5.67,-0.391 -17.38,-2.153 -72.53,-11.68 -33.65,20.348 -100.4,52.758 -199.2,46.41 -114.9,-7.402 -191.05,-63.07 -228.5,-133.769 -0.42,6.929 -0.92,14.367 -1.48,22.277 l 0.12,-3.469 c 0,39.461 -25.08,64.961 -63.87,64.961 -5.62,0 -17.42,-1.019 -73.07,-6.992 -32.31,22.461 -96.8,59.109 -195.81,59.109 -124.035,0 -206.855,-58.777 -245.695,-134.898 -45.723,9.91 -123.992,2.352 -172.41,7.801 5.476,3.668 10.933,7.558 16.336,11.691 75.09,55.977 120.156,146.449 120.156,241.708 0,91.56 -41.863,177.21 -112.004,229.12 -47.637,35.43 -120.113,72.83 -295.887,81.14 -21.125,1.06 -165.586,1.16 -203.242,1.16 -78.1326,0 -101.699,-22.38 -105.0662,-99.77 l 0,-0.17 C 30.1289,1121.37 30,488.219 30,416.41 c 0,-31.762 0,-43.66 2.6563,-62.25 l 0.1953,-1.351 0.2734,-1.34 c 7.6289,-38.129 30.6055,-51.039 45.293,-55.399 8.0273,-2.609 37.102,-4.308 133.496,-4.308 l 73.856,1.109 c 18.488,1.059 59.582,3.438 76.093,38.949 35.559,-42.429 85.293,-66.25 139.797,-66.25 19.973,0 42.317,2.801 91.953,16.731 34.09,9.629 43.465,12.25 92.95,12.289 2.226,-0.102 39.628,-1.66 39.628,-1.66 l 1.028,0 c 0.984,0 1.824,0.14 2.769,0.16 -4.148,-14.07 -6.648,-30.098 -6.648,-48.66 0,-135.098 111.933,-212.5902 307.06,-212.5902 145.36,0 259.67,47.711 314.27,123.8982 10.39,-23.777 25.52,-44.699 45.63,-62.3864 68.85,-60.543 178.52,-67.1094 258.36,-61.961 199.07,12.7891 334.18,111.4184 334.18,241.7894 0,4.07 -0.13,8.172 -0.39,12.289 -0.47,6.972 -1.37,14.672 -2.92,22.82 7.1,-0.539 14.6,-0.898 22.96,-0.898 3.19,0 401.9,2.98 420.45,3.64 91.36,3.289 112.21,38.629 112.36,102.821 0.16,-6.903 0.44,-12.762 0.88,-16.993 6.29,-60.257 64.26,-71.961 83.29,-75.808 0.01,0 9.71,-1.981 9.71,-1.981 50.52,-10.39 119.7,-24.629 258.12,-11.59 79.73,7.52 141.4,37.27 183.31,88.418 60.82,74.243 58.5,167.383 54.68,204"
         style="fill:#2d5aa7;fill-opacity:1;fill-rule:nonzero;stroke:none"
         id="path5480"
         inkscape:connector-curvature="0" /><g
         id="g5482"><g
           id="g5484"
           clip-path="url(#clipPath5486)"><path
             d="m 687.422,359.488 c -55.547,0 -68.836,-3.316 -106.973,-14.097 -47.285,-13.282 -64.695,-14.93 -78.789,-14.93 -28.203,0 -77.961,9.129 -113.613,63.848 -31.504,48.929 -33.992,130.203 -33.992,158.402 0,19.09 1.648,122.75 5.789,133.531 2.48,5.797 8.301,9.11 29.863,9.11 9.121,0 48.926,-1.661 57.227,-1.661 58.054,0 61.367,0 61.367,-17.402 0,-4.98 -0.84,-18.269 -1.66,-26.539 -1.653,-26.559 -1.653,12.809 -1.653,-13.711 0,-82.949 3.313,-159.23 64.68,-159.23 19.07,0 31.504,6.621 37.312,9.113 0.833,19.898 6.633,119.039 6.633,153.039 0,16.59 -0.832,38.148 0,45.609 1.66,13.262 15.762,14.09 24.055,14.09 14.109,0 77.129,-1.64 90.391,-1.64 27.363,0 34.839,0 34.839,-22.411 0,-136 -0.835,-160.859 -3.328,-250.429 -1.66,-61.391 -10.769,-66.36 -32.351,-66.36 l -39.797,1.668"
             style="fill:url(#linearGradient5490);fill-opacity:1;fill-rule:nonzero;stroke:none"
             id="path5496"
             inkscape:connector-curvature="0" /></g></g><g
         id="g5498"><g
           id="g5500"
           clip-path="url(#clipPath5502)"><path
             d="m 976.105,653.711 c 0,-56.441 43.435,-58.602 56.465,-58.602 33.65,0 74.9,22.782 74.9,72.711 0,57.551 -44.5,57.551 -58.62,57.551 -40.18,0 -72.745,-28.242 -72.745,-71.66 z M 888.164,280.25 c 0,-46.68 80.332,-97.691 181.326,-97.691 52.1,0 118.32,14.101 118.32,46.66 0,17.39 -14.11,19.562 -66.22,25 -73.83,7.601 -156.317,24.961 -223.652,53.172 -4.325,-7.602 -9.774,-15.18 -9.774,-27.141 z m 413.286,517.859 c 10.86,0 15.2,-2.168 15.2,-16.289 2.19,-30.379 3.26,-55.359 3.26,-64.05 0,-15.211 -4.34,-22.79 -15.19,-26.051 -9.78,-2.168 -37.66,-2.168 -46.33,-2.168 2.16,-29.321 3.25,-56.449 -14.13,-95.551 -19.54,-45.59 -73.82,-121.578 -201.93,-121.578 -66.225,0 -99.869,16.289 -128.092,29.308 -3.269,-3.25 -6.523,-8.679 -6.523,-16.281 0,-29.301 42.344,-39.078 132.445,-59.711 27.14,-5.449 146.56,-31.476 171.54,-36.929 51.02,-11.918 119.41,-41.25 119.41,-124.829 0,-111.82 -134.62,-183.4683 -300.71,-183.4683 -97.712,0 -258.388,21.6993 -258.388,163.9183 0,56.449 27.148,78.172 64.043,99.902 -19.539,16.277 -46.668,37.977 -46.668,81.406 0,64.051 56.453,96.614 77.058,108.563 C 845.84,554.922 810,589.672 810,658.059 c 0,99.89 78.164,192.171 222.57,192.171 100.96,0 159.57,-43.429 182.37,-60.808 1.1,0 78.92,8.687 86.51,8.687"
             style="fill:url(#linearGradient5506);fill-opacity:1;fill-rule:nonzero;stroke:none"
             id="path5512"
             inkscape:connector-curvature="0" /></g></g><g
         id="g5514"><g
           id="g5516"
           clip-path="url(#clipPath5518)"><path
             d="m 331.055,971.02 c 84.519,4.082 117.004,53.82 114.367,108.53 -4.641,96.11 -106.574,91.19 -123.149,90.39 -10.769,-0.53 -18.191,-1.71 -27.261,-2.99 1.367,-28.16 3.242,-67.11 3.062,-97.85 -0.039,-68.1 -0.496,-75.6 0.512,-96.319 13.355,-1.84 20.047,-2.351 32.469,-1.761 z M 298.313,353.441 c -3.254,-8.691 -15.2,-10.851 -34.739,-11.941 -23.886,-1.07 -64.054,-1.07 -71.66,-1.07 -13.027,0 -92.6171,0 -99.1406,2.16 -8.6718,2.16 -10.8593,13.039 -11.9336,18.449 -2.1679,15.203 -2.1679,24.981 -2.1679,55.371 0,119.41 0.3515,709.76 4.7187,818.32 2.1641,49.95 3.2422,53.21 56.4334,53.21 8.692,0 159.231,0 180.946,-1.1 160.668,-7.6 226.886,-40.16 269.23,-71.64 54.277,-40.18 92.273,-110.75 92.273,-190 0,-72.731 -32.566,-151.989 -100.964,-202.989 -72.735,-55.391 -154.153,-61.902 -223.633,-61.902 -33.66,0 -49.942,1.082 -69.492,3.261 0,-26.07 15.546,-394.941 10.129,-410.129"
             style="fill:url(#linearGradient5522);fill-opacity:1;fill-rule:nonzero;stroke:none"
             id="path5528"
             inkscape:connector-curvature="0" /></g></g><g
         id="g5530"><g
           id="g5532"
           clip-path="url(#clipPath5534)"><path
             d="m 1554.57,648.5 c 3.61,-56.352 47.11,-55.73 60.1,-54.891 33.6,2.18 73.3,27.563 70.1,77.391 -3.7,57.422 -48.11,54.57 -62.19,53.66 -40.1,-2.57 -70.78,-32.84 -68.01,-76.16 z m -63.78,-378.34 c 2.99,-46.601 86.47,-92.359 187.22,-85.879 51.99,3.36 117.16,21.68 115.1,54.18 -1.14,17.34 -15.35,18.629 -67.7,20.68 -74.17,2.828 -157.63,14.879 -226.6,38.711 -3.86,-7.852 -8.78,-15.793 -8.02,-27.692 z m 379.19,543.32 c 10.84,0.68 15.31,-1.21 16.21,-15.289 4.14,-30.179 6.82,-55.05 7.38,-63.722 0.96,-15.16 -2.89,-23.02 -13.49,-26.977 -9.62,-2.781 -37.44,-4.562 -46.12,-5.133 4.05,-29.121 6.9,-56.109 -7.94,-96.25 -16.6,-46.75 -65.88,-126.07 -193.72,-134.289 -66.08,-4.25 -100.72,9.84 -129.72,21.012 -3.05,-3.441 -5.94,-9.07 -5.45,-16.66 1.89,-29.242 44.75,-36.293 136.01,-51.09 27.43,-3.672 148.28,-22 173.54,-25.82 51.69,-8.633 121.84,-33.524 127.2,-116.91 C 1941.04,170.75 1811.3,90.6094 1645.55,79.9492 1548.06,73.6719 1386.3,85.0195 1377.19,226.93 c -3.64,56.351 22.06,79.769 57.49,103.808 -20.54,15 -49.02,34.922 -51.82,78.25 -4.1,63.922 50.15,100.051 69.96,113.282 -21.89,19.269 -59.9,51.628 -64.28,119.89 -6.41,99.672 65.67,196.789 209.76,206.039 100.77,6.5 162.06,-33.078 185.92,-48.957 1.09,0.078 78.19,13.727 85.76,14.238"
             style="fill:url(#linearGradient5538);fill-opacity:1;fill-rule:nonzero;stroke:none"
             id="path5544"
             inkscape:connector-curvature="0" /></g></g><g
         id="g5546"><g
           id="g5548"
           clip-path="url(#clipPath5550)"><path
             d="m 2457.95,529.711 c 17.44,-1.551 22.05,-8.981 23.99,-32.82 2.02,-25.993 4.15,-62.481 4.48,-71.153 1.76,-48.828 2.03,-63.648 -65.23,-66.066 -16.27,-0.59 -407.86,-3.621 -418.7,-3.621 -55.24,0 -54.68,2.078 -56.82,61.781 -4.11,113.887 -5.23,476.777 1.43,562.828 4.02,39.26 6.04,43.69 51.6,45.32 16.27,0.59 84.6,4.14 98.74,3.56 54.33,-0.21 54.33,-0.21 55.1,-21.9 0.98,-27.128 -3.86,-405.429 -0.83,-488.968 40.14,1.449 291.01,11.578 306.24,11.039"
             style="fill:url(#linearGradient5554);fill-opacity:1;fill-rule:nonzero;stroke:none"
             id="path5560"
             inkscape:connector-curvature="0" /></g></g><g
         id="g5562"><g
           id="g5564"
           clip-path="url(#clipPath5566)"><path
             d="m 2443.37,933.898 c -50.08,-1.808 -49.51,-38.406 -52.87,-59.097 16.46,-0.231 85.47,1.449 106.79,3.039 0.94,19.781 -3.82,57.859 -53.92,56.058 z m 172.89,-115.867 c 1.24,-34.832 -10.18,-40.222 -30.05,-40.922 -33.98,-1.23 -120.37,0.621 -141.91,-0.16 -27.35,-0.969 -55.56,-1.168 -82.91,-2.148 2.38,-19.84 7.05,-80.231 85.78,-77.391 67.96,2.449 137.02,14.102 146.12,14.43 5.82,0.211 16.86,-5.711 18.94,-17.27 2.07,-11.539 -0.78,-65.761 -0.78,-74.289 0,-25.222 -58.41,-40.441 -192.96,-40.441 -134.53,0 -215.18,91.32 -219.23,204.051 -5.44,150.828 124.58,203.66 223.2,207.199 96.15,3.48 188.94,-37.981 193.8,-173.059"
             style="fill:url(#linearGradient5570);fill-opacity:1;fill-rule:nonzero;stroke:none"
             id="path5576"
             inkscape:connector-curvature="0" /></g></g><g
         id="g5578"><g
           id="g5580"
           clip-path="url(#clipPath5582)"><path
             d="m 3034.46,951.211 c 2.8,-26.77 3,-40.922 1.17,-60.441 -3.22,-18.391 -7.92,-22.739 -23.23,-24.329 -22.93,-2.421 -36.23,1.348 -70.64,-2.242 -39.5,-4.14 -56.76,-23.969 -54.77,-43.097 2.28,-21.68 16.1,-30.532 85.82,-81.243 84.95,-60.679 100.08,-106.777 104.07,-145.039 6.52,-62.48 -3.27,-220.879 -194.13,-238.879 -140.4,-13.23 -204.52,2.93 -253.65,12.829 -37.79,7.621 -43.16,20.39 -44.51,33.152 -1.73,16.558 -0.35,77.168 1.95,104.488 1.97,18.231 2.44,26 15.19,27.34 26.78,2.789 122.72,-33.77 205.83,-25.09 15.29,1.602 45.62,7.371 42.82,34.121 -1.46,14.039 -8.64,21.02 -75.96,73.258 -95.34,73.801 -103.76,129.609 -106.81,158.922 -11.34,108.359 74.45,199.801 260.56,219.258 100.71,10.521 101.24,5.422 106.29,-43.008"
             style="fill:url(#linearGradient5586);fill-opacity:1;fill-rule:nonzero;stroke:none"
             id="path5592"
             inkscape:connector-curvature="0" /></g></g><path
         d="m 1627.71,1712.71 c -28.33,204.6 -198.58,368.81 -415.3,384.06 -216.746,15.26 -408.301,-123.47 -465.047,-322.09 -61.504,-55.7 -100.066,-125.38 -105.539,-202.92 -14.527,-206.58 211.406,-390.83 504.656,-411.47 293.25,-20.64 542.77,130.13 557.33,336.72 5.46,77.54 -22.97,151.94 -76.1,215.7"
         style="fill:#152a5f;fill-opacity:1;fill-rule:nonzero;stroke:none"
         id="path5594"
         inkscape:connector-curvature="0" /><path
         d="m 1603.62,1701.63 c -24.22,191.5 -182.68,347.2 -386.83,364.39 -204.16,17.22 -386.477,-109.76 -442.372,-294.52 -58.695,-51.2 -95.863,-115.74 -101.98,-188.1 -16.254,-192.79 194.503,-367.95 470.712,-391.23 276.22,-23.28 513.31,114.16 529.55,306.95 6.1,72.34 -19.79,142.23 -69.08,202.51"
         style="fill:#6c99d7;fill-opacity:1;fill-rule:nonzero;stroke:none"
         id="path5596"
         inkscape:connector-curvature="0" /><path
         d="m 1018.4,1850.19 c 5.66,39.63 -96.095,32.11 -117.084,-34.46 68.696,68.47 113.464,8.99 117.084,34.46"
         style="fill:#2d5aa7;fill-opacity:1;fill-rule:nonzero;stroke:none"
         id="path5598"
         inkscape:connector-curvature="0" /><path
         d="m 1364.26,1795.05 c -2.7,39.95 98.21,24.85 114.18,-43.1 -63.4,73.4 -112.47,17.43 -114.18,43.1"
         style="fill:#2d5aa7;fill-opacity:1;fill-rule:nonzero;stroke:none"
         id="path5600"
         inkscape:connector-curvature="0" /><path
         d="m 1029.88,1690.41 c -4.36,-34.82 -37.685,-60.2 -74.392,-56.75 -36.758,3.51 -75.058,60.11 -75.058,60.11 0,0 30.3,71.73 90.769,65.95 36.751,-3.51 63.031,-34.52 58.681,-69.31"
         style="fill:#231f20;fill-opacity:1;fill-rule:nonzero;stroke:none"
         id="path5602"
         inkscape:connector-curvature="0" /><path
         d="m 1010.49,1693.55 c -2.78,-22.3 -25.873,-38.41 -51.564,-35.97 -25.723,2.43 -44.285,22.48 -41.477,44.76 2.754,22.31 25.871,38.42 51.543,36 25.715,-2.42 44.228,-22.49 41.498,-44.79"
         style="fill:#696667;fill-opacity:1;fill-rule:nonzero;stroke:none"
         id="path5604"
         inkscape:connector-curvature="0" /><path
         d="m 1000.55,1696.05 c -5.499,-18.53 -25.159,-29 -43.917,-23.47 -18.735,5.56 -29.485,25.09 -23.988,43.62 5.48,18.52 25.121,29.01 43.898,23.44 18.73,-5.55 29.487,-25.07 24.007,-43.59"
         style="fill:#231f20;fill-opacity:1;fill-rule:nonzero;stroke:none"
         id="path5606"
         inkscape:connector-curvature="0" /><path
         d="m 988.367,1718.03 c -0.965,-7.61 -6.25,-13.34 -11.785,-12.83 -5.527,0.54 -9.258,7.12 -8.328,14.75 0.957,7.61 6.258,13.37 11.773,12.84 5.559,-0.54 9.282,-7.14 8.34,-14.76"
         style="fill:#ffffff;fill-opacity:1;fill-rule:nonzero;stroke:none"
         id="path5608"
         inkscape:connector-curvature="0" /><path
         d="m 925.344,1313.61 c -30.199,20.78 -58.313,113.58 -56.977,123.34 6.692,48.36 116.36,-19.15 260.423,-39.08 144.08,-19.92 267.95,15.31 261.23,-33.05 -1.48,-10.6 -54.65,-108.3 -82.85,-113.2 -50.37,-8.75 -123.15,-2.89 -197.57,7.4 -74.94,10.37 -143.416,26.47 -184.256,54.59"
         style="fill:#47301d;fill-opacity:1;fill-rule:nonzero;stroke:none"
         id="path5610"
         inkscape:connector-curvature="0" /><path
         d="m 942.051,1327.91 c -28.203,18.49 -55.039,100.29 -53.848,108.87 5.879,42.48 108.399,-17.68 242.527,-36.22 134.19,-18.54 249.12,11.53 243.26,-30.96 -1.28,-9.29 -50.06,-94.83 -76.28,-98.95 -46.79,-7.31 -114.51,-1.65 -183.84,7.94 -69.78,9.66 -133.557,24.3 -171.819,49.32"
         style="fill:#937b40;fill-opacity:1;fill-rule:nonzero;stroke:none"
         id="path5612"
         inkscape:connector-curvature="0" /><path
         d="m 982.063,1347.95 c -15.137,6.27 -42.676,72.36 -41.918,77.95 3.82,27.69 84.305,-18.84 189.465,-33.38 105.17,-14.53 195.2,8.43 191.38,-19.27 -0.85,-6.06 -35.27,-66.02 -55.7,-68.22 -36.47,-3.98 -92.36,0.45 -146.7,7.96 -54.67,7.56 -102.65,20.96 -136.527,34.96"
         style="fill:#231f20;fill-opacity:1;fill-rule:nonzero;stroke:none"
         id="path5614"
         inkscape:connector-curvature="0" /><path
         d="m 1255.91,1456.46 c 0,0 24.49,-41.52 21.62,-66.83 -5.3,-46.81 -70.19,-77.95 -144.98,-69.5 -74.77,8.44 -131.1,53.25 -125.82,100.08 2.99,26.41 39.84,61.86 39.84,61.86 0,0 72.48,11.35 105.16,7.68 34.34,-3.9 104.18,-33.29 104.18,-33.29"
         style="fill:#8a4b85;fill-opacity:1;fill-rule:nonzero;stroke:none"
         id="path5616"
         inkscape:connector-curvature="0" /><path
         d="m 1255.91,1456.46 c 0,0 24.49,-41.52 21.62,-66.83 -5.3,-46.81 -70.19,-77.95 -144.98,-69.5 -74.77,8.44 -131.1,53.25 -125.82,100.08 2.99,26.41 39.84,61.86 39.84,61.86 0,0 72.48,11.35 105.16,7.68 34.34,-3.9 104.18,-33.29 104.18,-33.29 z"
         style="fill:none;stroke:#231f20;stroke-width:22.94300079;stroke-linecap:butt;stroke-linejoin:miter;stroke-miterlimit:4;stroke-dasharray:none;stroke-opacity:1"
         id="path5618"
         inkscape:connector-curvature="0" /><path
         d="m 1362.36,1459.86 c 9.55,87.5 -81.15,169.18 -202.54,182.44 -121.43,13.23 -227.586,-46.97 -237.117,-134.49 -2.223,-20.58 437.427,-68.55 439.657,-47.95"
         style="fill:#231f20;fill-opacity:1;fill-rule:nonzero;stroke:none"
         id="path5620"
         inkscape:connector-curvature="0" /><path
         d="m 1366.23,1510.98 c 22.51,-13.97 5.1,-49.85 12.58,-91.44 5.45,-30.19 43.5,-71.34 41.37,-85.44 -10.64,-69.67 -129.81,24.32 -290.8,48.92 -160.923,24.58 -302.759,-29.52 -292.075,40.16 2.312,15.3 51.316,39.38 67.59,68.83 19.57,35.35 5.632,76.3 37.75,84.16 57.257,13.97 134.135,19.69 217.305,6.98 83.71,-12.8 156.03,-40.94 206.28,-72.17"
         style="fill:#47301d;fill-opacity:1;fill-rule:nonzero;stroke:none"
         id="path5622"
         inkscape:connector-curvature="0" /><path
         d="m 1346.7,1503.29 c 20.72,-11.84 1.62,-47.37 9,-81.83 5.39,-25.05 32.9,-62.69 34.94,-74.26 8.74,-49.5 -113.27,37.16 -260.61,59.7 -147.335,22.5 -278.819,-27.24 -262.069,17.47 4.48,11.96 56.773,39.31 67.625,69.52 11.426,31.8 -5.898,62.98 23.332,69.04 52.122,10.78 122.242,14.46 198.402,2.83 76.61,-11.7 143.06,-35.97 189.38,-62.47"
         style="fill:#937b40;fill-opacity:1;fill-rule:nonzero;stroke:none"
         id="path5624"
         inkscape:connector-curvature="0" /><path
         d="m 1275.61,1572.3 c -2.06,-7.24 -30.44,15.68 -70.33,26.66 -39.83,10.94 -76.01,5.83 -73.99,13.04 1.96,7.27 38.62,14.21 78.49,3.23 39.87,-10.96 67.85,-35.69 65.83,-42.93"
         style="fill:#7b7979;fill-opacity:1;fill-rule:nonzero;stroke:none"
         id="path5626"
         inkscape:connector-curvature="0" /><path
         d="m 1319.09,1649.82 c -4.34,-34.82 21.72,-67.59 58.15,-73.28 36.47,-5.64 87.54,39.81 87.54,39.81 0,0 -11.74,76.99 -71.77,86.24 -36.49,5.64 -69.58,-17.96 -73.92,-52.77"
         style="fill:#231f20;fill-opacity:1;fill-rule:nonzero;stroke:none"
         id="path5628"
         inkscape:connector-curvature="0" /><path
         d="m 1338.65,1648.12 c -2.8,-22.3 15.63,-43.61 41.14,-47.54 25.53,-3.98 48.45,10.9 51.2,33.18 2.82,22.31 -15.62,43.6 -41.12,47.57 -25.5,3.98 -48.39,-10.93 -51.22,-33.21"
         style="fill:#696667;fill-opacity:1;fill-rule:nonzero;stroke:none"
         id="path5630"
         inkscape:connector-curvature="0" /><path
         d="m 1348.91,1648.1 c 0.76,-19.32 17.25,-34.31 36.8,-33.57 19.5,0.8 34.74,17.08 33.96,36.41 -0.75,19.29 -17.21,34.29 -36.78,33.49 -19.53,-0.76 -34.74,-17.05 -33.98,-36.33"
         style="fill:#231f20;fill-opacity:1;fill-rule:nonzero;stroke:none"
         id="path5632"
         inkscape:connector-curvature="0" /><path
         d="m 1405.08,1660.14 c -1.12,-7.6 -6.51,-13.23 -12.03,-12.61 -5.52,0.65 -9.11,7.31 -8.04,14.91 1.1,7.59 6.51,13.24 12.02,12.6 5.54,-0.64 9.13,-7.31 8.05,-14.9"
         style="fill:#ffffff;fill-opacity:1;fill-rule:nonzero;stroke:none"
         id="path5634"
         inkscape:connector-curvature="0" /><path
         d="m 163.563,1829.33 c 16.437,8.34 34.082,24.17 47.57,40.2 12.734,15.16 20.32,27.67 27.058,38.7 11.543,18.97 23.489,38.54 51.329,50.47 27.55,11.78 55.468,-2.18 80.07,-14.48 10.918,-5.47 31.191,-15.59 37.723,-14.2 28.515,18.46 98.324,25.68 119.945,6.83 31.414,-27.4 -18.781,-31.17 -14.199,-76.58 1.98,-19.77 8.418,-58.96 -1.664,-100.42 l -2.957,-7.91 c -42.254,-89.15 -178.04,-108.07 -220.989,-87.37 -19.39,9.36 -47.195,34.16 -47.195,34.16 0,0 -27.649,-0.92 -59.453,-8.44 -42.11,-9.94 -68.02,-30.81 -89.5315,-8.14 -25.8203,27.21 -19.2382,100.73 72.2935,147.18"
         style="fill:#47301d;fill-opacity:1;fill-rule:nonzero;stroke:none"
         id="path5636"
         inkscape:connector-curvature="0" /><path
         d="m 486.289,1765.92 c 26.211,76.83 -18.203,106.79 16.172,140.74 34.336,33.95 -33.914,28.47 -72.227,2.77 -38.3,-25.72 -98.418,41.25 -129.961,27.36 -31.523,-13.93 -31.71,-40.01 -70.183,-86.51 -49.289,-47.8 -95.793,-46.63 -119.629,-90.23 16.852,3.49 40.672,10.16 90.391,-8.58 49.714,-18.74 59.683,-46 97.793,-64.5 38.125,-18.49 161.433,2.13 187.644,78.95"
         style="fill:#937b40;fill-opacity:1;fill-rule:nonzero;stroke:none"
         id="path5638"
         inkscape:connector-curvature="0" /><path
         d="m 234.902,1857.45 c -18.156,-21.04 -45.382,-38.68 -45.382,-38.68 0,0 41.027,26.43 83.222,7.5 42.192,-18.95 38.313,-28.91 50.949,-34.61 27.579,-12.43 -28.425,96.97 -64.218,99.11 -4.793,-2.38 -10.125,-16.55 -24.571,-33.32"
         style="fill:#746030;fill-opacity:1;fill-rule:nonzero;stroke:none"
         id="path5640"
         inkscape:connector-curvature="0" /><path
         d="m 371.98,1914.34 c 0,0 1.965,-8.4 26.094,-30.82 24.133,-22.42 33.867,-39.07 42.121,-38.32 8.301,0.72 -15.925,20.48 -12.363,40.67 3.574,20.22 9.324,28.52 9.324,28.52 0,0 -15.554,-9 -26.531,-9.63 -11.023,-0.64 -38.645,9.58 -38.645,9.58"
         style="fill:#746030;fill-opacity:1;fill-rule:nonzero;stroke:none"
         id="path5642"
         inkscape:connector-curvature="0" /><path
         d="m 224.309,1716.25 c -95.754,-10.2 -102.715,-25.4 -113.84,-19.63 -18.0393,9.36 -5.332,44.73 -5.332,44.73 0,0 54.734,14.05 119.172,-25.1"
         style="fill:#746030;fill-opacity:1;fill-rule:nonzero;stroke:none"
         id="path5644"
         inkscape:connector-curvature="0" /><path
         d="m 2179.99,1417.09 c -12.39,13.65 -23.24,34.73 -30.13,54.51 -6.5,18.7 -9.13,33.09 -11.5,45.8 -4.02,21.84 -8.21,44.38 -29.98,65.45 -21.54,20.82 -52.61,17.72 -79.97,14.99 -12.15,-1.22 -34.7,-3.46 -40.31,0.16 -20.07,27.42 -82.72,59.03 -109.64,49.11 -39.11,-14.4 6.44,-35.8 -14.02,-76.61 -8.89,-17.76 -28.86,-52.08 -34.22,-94.41 l -0.05,-8.45 c 7.73,-98.35 127.86,-164.41 175.37,-160.37 21.45,1.84 56.27,15.11 56.27,15.11 0,0 25.49,-10.71 52.54,-29.07 35.81,-24.29 52.57,-53.02 80.76,-39.5 33.82,16.23 53.85,87.27 -15.12,163.28"
         style="fill:#47301d;fill-opacity:1;fill-rule:nonzero;stroke:none"
         id="path5646"
         inkscape:connector-curvature="0" /><path
         d="m 1855.85,1472.81 c 2.88,81.13 55.05,93.3 35.02,137.26 -19.99,43.96 41.84,14.53 68.48,-23.14 26.63,-37.67 106.66,3.49 131.18,-20.73 24.49,-24.25 15.38,-48.68 34.76,-105.83 29.03,-62.22 72.89,-77.7 79.64,-126.93 -14.51,9.26 -34.38,23.99 -87.52,24.18 -53.13,0.2 -72.16,-21.72 -114.35,-25.43 -42.22,-3.69 -150.09,59.51 -147.21,140.62"
         style="fill:#937b40;fill-opacity:1;fill-rule:nonzero;stroke:none"
         id="path5648"
         inkscape:connector-curvature="0" /><path
         d="m 2123.35,1468.79 c 9.46,-26.14 28.62,-52.33 28.62,-52.33 0,0 -28.91,39.32 -75.09,36.67 -46.17,-2.68 -46.1,-13.36 -59.94,-14.19 -30.19,-1.79 61.12,80.48 95.32,69.73 3.63,-3.93 3.57,-19.07 11.09,-39.88"
         style="fill:#746030;fill-opacity:1;fill-rule:nonzero;stroke:none"
         id="path5650"
         inkscape:connector-curvature="0" /><path
         d="m 2015.53,1570.77 c 0,0 -4.83,-7.15 -35.36,-19.5 -30.54,-12.35 -45.57,-24.44 -53.01,-20.81 -7.5,3.64 22.18,13.48 26.04,33.61 3.86,20.17 1.44,29.97 1.44,29.97 0,0 11.34,-13.96 21.37,-18.46 10.07,-4.52 39.52,-4.81 39.52,-4.81"
         style="fill:#746030;fill-opacity:1;fill-rule:nonzero;stroke:none"
         id="path5652"
         inkscape:connector-curvature="0" /><path
         d="m 2082.94,1333.07 c 85.84,-43.64 86.93,-60.32 99.38,-58.89 20.19,2.32 20.92,39.89 20.92,39.89 0,0 -46.14,32.63 -120.3,19"
         style="fill:#746030;fill-opacity:1;fill-rule:nonzero;stroke:none"
         id="path5654"
         inkscape:connector-curvature="0" /><path
         d="m 3207.19,1058.13 -0.84,-0.75 c -5.63,0.49 -11.27,0.49 -16.92,0.49 l -1.68,0 0,-17.52 c 0,-11.87 0.12,-23.63 0.36,-35.51 0.13,-7.199 0.13,-14.531 0.48,-21.711 l -0.72,-0.75 c -3.96,0 -8.03,-0.109 -11.99,-0.231 l -0.72,0.723 c 0.47,15.121 0.23,30.259 0.23,45.369 0,7.07 0.12,14.14 0.12,21.23 0,2.76 -0.12,5.53 -0.12,8.28 -6.48,-0.11 -12.97,-0.11 -19.43,-0.48 l -0.73,0.72 c 0.24,2.87 0.36,5.64 0.36,8.53 l 0.74,0.59 c 16.91,0 33.83,0 50.74,0.35 l 0.61,-0.7 c -0.12,-2.89 -0.38,-5.76 -0.49,-8.63"
         style="fill:#2d5aa7;fill-opacity:1;fill-rule:nonzero;stroke:none"
         id="path5656"
         inkscape:connector-curvature="0" /><path
         d="m 3289.04,982.379 c -3.96,0 -7.81,-0.109 -11.75,-0.231 l -0.73,0.723 c 0,24.729 -0.6,49.549 -0.95,74.279 l -12.25,-47.76 c -2.29,-8.76 -4.69,-17.402 -6.6,-26.261 l -0.96,-0.75 c -3.73,0 -7.56,-0.109 -11.29,-0.231 l -0.84,0.723 c -1.79,8.539 -4.08,17.051 -6.11,25.569 l -11.17,48.01 c -0.84,-24.5 -2.03,-48.85 -2.03,-73.321 l -0.84,-0.75 c -3.36,0 -6.72,-0.109 -10.08,-0.231 l -0.73,0.723 c 1.68,19.319 2.41,38.769 3.36,58.089 0.49,8.51 0.96,17.03 0.96,25.56 l 0.72,0.59 c 5.41,0 10.92,0.12 16.33,0.23 l 0.96,-0.58 c 1.19,-6.25 2.87,-12.37 4.43,-18.6 l 12.01,-48.98 c 5.88,22.46 12.11,44.77 17.52,67.34 l 0.84,0.59 c 5.28,0 10.55,0.12 15.84,0.23 l 0.84,-0.58 c 0.59,-27.85 1.68,-55.8 3.25,-83.631 l -0.73,-0.75"
         style="fill:#2d5aa7;fill-opacity:1;fill-rule:nonzero;stroke:none"
         id="path5658"
         inkscape:connector-curvature="0" /><path
         d="m 2382.7,1227.37 c -2.72,10.33 -4.33,17.61 -7.06,28.1 -2.75,-10.49 -4.55,-17.9 -13.96,-53.57 l 13.55,-0.04 c 5.18,0 8.88,0 14.05,0.16 l -6.58,25.35 z m -25.25,-43.39 c -2.92,-10.64 -4.88,-17.89 -6.83,-28.55 l -1.13,-0.95 c -1.29,0 -4.2,0.15 -6.3,0.14 -3.23,0 -5.48,-0.13 -8.72,-0.3 l -0.8,0.99 c 4.06,12.73 6.66,22.09 10.39,35.16 l 11.69,40.99 c 3.9,13.38 6.33,22.91 10.23,36.11 l 0.97,0.84 c 7.43,-0.03 12.58,0.13 19.86,0.28 l 1.13,-0.8 c 1.59,-6.8 23.41,-86.09 31.12,-112.42 l -0.81,-0.96 c -6.12,-0.16 -10.49,-0.14 -16.79,-0.46 l -0.96,0.96 c -2.4,11.32 -4.33,19.39 -7.04,30.54 l -0.97,3.87 -23.43,0.03 c -3.69,0.02 -6.43,0.02 -10.14,-0.14 l -1.47,-5.33"
         style="fill:#211d1d;fill-opacity:1;fill-rule:nonzero;stroke:none"
         id="path5660"
         inkscape:connector-curvature="0" /><path
         d="m 2418.55,1237.79 c 5.35,0.16 9.21,0.32 14.7,0.8 l 0.96,-0.98 c 1.43,-9.37 2.9,-15.97 12.81,-66.04 10.42,50.02 12.36,57.13 13.35,65.52 l 1.12,0.96 5.83,-0.02 c 4.36,0 7.42,0.16 11.63,0.34 l 1.12,-0.99 c 2.71,-15 8.63,-41.67 13.6,-65.9 6.68,34.06 11.72,59.59 12.54,65.54 l 0.98,0.96 5.15,-0.02 c 2.59,0 4.53,-0.01 7.11,0.16 l 0.66,-0.98 c -4.07,-15.16 -15.14,-64.53 -19.04,-81.97 l -1.13,-0.96 -5.16,0.02 c -3.87,0.01 -6.78,-0.16 -10.66,-0.32 l -0.97,0.97 c -1.59,9.21 -3.03,15.51 -4.96,24.71 l -9.13,42.62 c 0,0 -9.61,-43.73 -14.46,-66.95 l -0.98,-0.96 -4.22,0 c -4.19,0 -7.09,-0.14 -11.28,-0.32 l -1.14,0.98 c -1.91,8.4 -3.03,14.38 -5.11,22.93 l -6.89,29.41 c -2.58,10.95 -4.17,18.72 -7.07,29.54 l 0.64,0.95"
         style="fill:#211d1d;fill-opacity:1;fill-rule:nonzero;stroke:none"
         id="path5662"
         inkscape:connector-curvature="0" /><path
         d="m 2566.05,1200.76 -6.94,-1.44 c -11.94,-2.42 -20.03,-7.25 -20.05,-19.66 -0.02,-10.34 6.76,-14.7 13.21,-14.73 6.94,0 11.48,4.19 13.73,6.29 l 0.05,29.54 z m 15.26,-46.67 c -6.77,0 -7.91,0 -14.04,-0.32 l -0.98,0.97 c 0,0 -0.15,2.58 -0.14,5.49 -3.55,-2.89 -9.38,-7.41 -19.24,-7.37 -14.52,0.02 -23.04,11.48 -23.04,25.36 0.05,24.19 22.98,29.35 35.09,31.58 l 7.09,1.31 c 0.02,8.87 0.03,16.76 -14.16,16.79 -10.49,0 -16.31,-3.7 -19.87,-6.09 l -1.13,0.64 c 0.49,4.83 0.51,8.39 0.67,11.3 l 0.8,1.11 c 7.77,3.55 16.98,4.83 23.74,4.83 19.7,-0.06 25.34,-9.9 25.31,-24.92 l -0.04,-26.47 c -0.02,-15.5 -0.04,-22.27 0.9,-33.26 l -0.96,-0.95"
         style="fill:#211d1d;fill-opacity:1;fill-rule:nonzero;stroke:none"
         id="path5664"
         inkscape:connector-curvature="0" /><path
         d="m 2642.17,1154.62 c 0.35,12.58 0.54,35.99 0.54,41.16 0.04,19.86 0.06,30.35 -11.72,30.36 -6.95,0.02 -13.25,-5.13 -16.48,-8.53 -0.02,-12.59 -0.08,-47.92 0.86,-62.62 l -0.97,-0.95 c -7.43,0 -8.87,0 -15.34,-0.33 l -0.94,1 c 0.33,7.41 0.66,17.26 0.69,32.77 0.03,15.95 -0.12,32.11 -1.06,48.1 l 0.81,0.96 c 6.46,0.8 8.72,1.26 15.67,2.7 l 0.97,-0.96 c -0.34,-3.39 -0.66,-4.83 -0.67,-9.35 7.11,6.1 14.39,10.46 23.59,10.46 11.13,-0.04 15.64,-6.81 17.9,-12.8 2.41,-6.31 2.4,-10.15 2.38,-23.89 0.14,-18.88 0.11,-35.83 0.72,-47.8 l -0.98,-0.96 c -7.25,0.02 -8.54,0.02 -15.15,-0.28 l -0.82,0.96"
         style="fill:#211d1d;fill-opacity:1;fill-rule:nonzero;stroke:none"
         id="path5666"
         inkscape:connector-curvature="0" /><path
         d="m 2713.93,1200.51 -6.96,-1.44 c -11.94,-2.4 -20.01,-7.23 -20.04,-19.68 -0.02,-10.32 6.76,-14.69 13.22,-14.71 6.94,0.02 11.46,4.18 13.73,6.29 l 0.05,29.54 z m 15.24,-46.69 c -6.78,0.02 -7.9,0.02 -14.03,-0.28 l -0.98,0.97 c 0,0 -0.15,2.58 -0.14,5.47 -3.56,-2.89 -9.37,-7.39 -19.23,-7.37 -14.53,0.02 -23.06,11.5 -23.03,25.36 0.04,24.21 22.97,29.35 35.08,31.59 l 7.11,1.28 c 0.01,8.87 0.01,16.78 -14.18,16.8 -10.5,0.03 -16.31,-3.68 -19.87,-6.1 l -1.12,0.66 c 0.49,4.83 0.5,8.39 0.65,11.3 l 0.81,1.12 c 7.77,3.56 16.97,4.82 23.74,4.8 19.7,-0.03 25.33,-9.9 25.31,-24.9 l -0.04,-26.47 c -0.04,-15.48 -0.06,-22.29 0.91,-33.25 l -0.99,-0.98"
         style="fill:#211d1d;fill-opacity:1;fill-rule:nonzero;stroke:none"
         id="path5668"
         inkscape:connector-curvature="0" /><path
         d="m 2895.63,1265.8 c -0.48,-5.01 -0.82,-8.57 -1.14,-13.73 l -1.3,-0.65 c -4.5,3.58 -9.67,6.96 -19.67,6.98 -18.89,0.02 -32.81,-15.6 -32.85,-46.42 -0.04,-27.93 12.83,-44.28 33.18,-44.3 10.5,-0.01 16.78,4 21.32,7.71 l 1.29,-0.66 c -0.49,-5.3 -0.66,-9.02 -0.83,-14.34 l -0.82,-1.13 c -4.2,-2.74 -12.59,-5.47 -23.41,-5.46 -29.54,0.05 -48.87,21.4 -48.81,59.01 0.04,27.44 12.86,59.23 49.5,59.15 10.81,-0.01 18.55,-2.77 22.91,-4.7 l 0.63,-1.46"
         style="fill:#211d1d;fill-opacity:1;fill-rule:nonzero;stroke:none"
         id="path5670"
         inkscape:connector-curvature="0" /><path
         d="m 2908.87,1156.48 c 0.34,14.36 0.37,24.38 0.38,38.75 l 0.02,13.23 c 0.05,23.24 -0.09,41.96 -1.49,67.17 l 0.79,0.96 c 5.98,0.79 10.51,1.6 15.82,2.72 l 0.98,-0.99 c -0.17,-14.03 -0.19,-22.91 -0.2,-31.93 -0.07,-33.12 0.22,-56.53 1.14,-89.6 l -0.81,-0.97 c -0.82,-0.01 -3.71,0.15 -5.51,0.16 -3.7,0 -6.44,-0.31 -10.32,-0.46 l -0.8,0.96"
         style="fill:#211d1d;fill-opacity:1;fill-rule:nonzero;stroke:none"
         id="path5672"
         inkscape:connector-curvature="0" /><path
         d="m 3003.12,1238.98 c -0.36,-8.09 -0.51,-14.21 -0.54,-29.21 -0.03,-16.47 -0.06,-37.29 0.71,-53.13 l -0.96,-0.96 c -7.26,0 -8.89,0.02 -14.53,-0.28 l -0.96,0.96 0.34,7.77 c -10.36,-9.87 -19.07,-9.83 -22.46,-9.85 -11.79,0.04 -18.56,6.35 -20.8,16.37 -0.96,4.5 -1.11,9.35 -1.1,18.06 -0.01,3.71 0.08,42.46 -0.24,49.73 l 0.97,0.96 c 7.27,-0.01 8.56,0.15 15.01,0.6 l 0.96,-0.94 c -0.34,-14.06 -0.68,-31.79 -0.73,-53.42 0,-6.66 -0.02,-18.74 12.41,-18.76 7.74,-0.01 12.76,4.82 15.66,7.73 l 0.04,18.56 c 0.02,15.16 -0.11,30.18 -0.74,45.2 l 0.97,0.96 c 5.98,-0.02 8.24,0.12 15.01,0.61 l 0.98,-0.96"
         style="fill:#211d1d;fill-opacity:1;fill-rule:nonzero;stroke:none"
         id="path5674"
         inkscape:connector-curvature="0" /><path
         d="m 3035.97,1192.44 c -0.02,-8.4 0.12,-21.49 0.12,-25.02 1.45,-0.16 2.26,-0.16 3.7,-0.16 21.48,-0.04 27.49,16.08 27.51,33.02 0.04,17.12 -5.6,28.26 -17.38,28.3 -6.95,0 -11.32,-4.18 -13.9,-6.12 l -0.05,-30.02 z m -16.04,-36.15 c 0.34,13.08 0.36,22.13 0.38,35.19 0.05,28.09 -0.08,55.55 -1.63,83.96 l 0.81,0.97 c 5.97,0.79 10.17,1.44 15.98,2.72 l 0.97,-0.82 c -0.35,-10.66 -0.52,-18.08 -0.54,-28.74 0,-2.58 0.14,-10.01 0.14,-15.82 8.24,6.77 16.31,7.41 19.06,7.39 15.5,0 28.54,-13.27 28.52,-39.58 -0.06,-24.86 -12.03,-38.91 -25.59,-43.55 -6.3,-2.24 -14.86,-2.39 -19.38,-2.38 -6.61,0 -11.46,-0.14 -17.92,-0.3 l -0.8,0.96"
         style="fill:#211d1d;fill-opacity:1;fill-rule:nonzero;stroke:none"
         id="path5676"
         inkscape:connector-curvature="0" /><path
         d="m 3139.04,1236.5 c -0.34,-3.89 -0.5,-8.08 -0.5,-11.94 l -1.14,-0.34 c -4.83,4.36 -11.28,5.83 -15.63,5.85 -8.09,0 -13.11,-4.68 -13.11,-11.44 -0.02,-6.48 4.82,-9.53 9.99,-12.29 l 5.16,-2.73 c 8.37,-4.4 18.39,-10.06 18.36,-24.27 -0.02,-11.78 -8.26,-25.65 -28.78,-25.63 -6.93,0.04 -13.72,1.16 -20.01,4.09 l -0.8,1.46 c 0.34,3.86 0.5,7.91 0.52,11.78 l 1.11,0.46 c 2.74,-2.1 8.71,-6.79 17.75,-6.79 8.88,0 13.73,6.12 13.74,12.89 0.01,7.27 -4.82,10.19 -10.46,13.26 l -4.69,2.58 c -10.32,5.67 -17.74,10.84 -17.72,23.43 0.03,15.02 10.37,24.2 27.49,24.18 3.55,-0.01 11.3,-0.53 18.24,-3.43 l 0.48,-1.12"
         style="fill:#211d1d;fill-opacity:1;fill-rule:nonzero;stroke:none"
         id="path5678"
         inkscape:connector-curvature="0" /><path
         d="m 3194.7,1206.82 -1,15.09 c -0.12,1.95 0,4.36 -0.04,6.82 l -0.2,-0.02 c -0.64,-2.32 -1.39,-4.99 -2.16,-7.17 l -5.24,-14.39 -2.91,-0.01 -5.03,14.79 c -0.63,2.03 -1.27,4.48 -1.83,6.8 l -0.2,0 c -0.05,-2.39 0,-4.51 -0.11,-6.79 l -0.98,-15.07 -3.64,0 1.99,25.02 4.98,-0.02 4.85,-13.58 c 0.64,-1.89 1.14,-3.96 1.74,-6.3 l 0.13,0 c 0.59,2.31 1.15,4.51 1.79,6.33 l 4.92,13.56 4.92,-0.03 1.84,-25.05 -3.82,0.02 z m -24.18,25.07 -0.02,-3.2 -7.66,0 -0.05,-21.82 -3.77,0.02 0.05,21.82 -7.61,0 0.01,3.23 19.05,-0.05"
         style="fill:#231e1f;fill-opacity:1;fill-rule:nonzero;stroke:none"
         id="path5680"
         inkscape:connector-curvature="0" /><path
         d="m 2754.76,1172.16 c 3.73,-0.04 5.17,1.05 5.18,3.75 0.01,2.49 -1.13,3.5 -4.13,3.5 -0.83,0.01 -1.47,-0.02 -1.47,-0.02 l -0.04,-7.25 0.46,0.02 z m -0.53,-11.95 c -0.69,0 -1.24,0.05 -1.53,0.06 -0.42,-0.02 -1.06,-0.06 -1.86,-0.04 l -0.29,0.35 c 0,2.58 0.06,3.42 0.08,4.2 0,4.96 0.02,12.71 -0.18,16.92 l 0.37,0.39 6.02,-0.04 c 4.44,-0.03 7,-1.78 7.01,-6.11 -0.04,-2.98 -1.31,-4.77 -4.18,-5.9 2.01,-3.75 4.19,-7.72 5.28,-9.46 l -0.27,-0.37 c -1.69,0 -2.07,-0.07 -3.67,-0.11 l -0.36,0.31 c -2.55,4.98 -2.71,5.24 -4.5,8.89 -0.77,-0.04 -1.04,-0.05 -1.8,-0.04 0.05,-4.83 0.13,-8.73 0.13,-8.73 l -0.25,-0.32 z m 2.62,25.88 c -8.72,0.05 -15.6,-6.63 -15.63,-15.31 -0.05,-8.48 6.96,-15.42 15.62,-15.48 8.37,-0.05 15.19,6.75 15.24,15.16 0.05,8.86 -6.48,15.58 -15.23,15.63 z m 0.18,-33.48 c -10.67,0.08 -18.75,7.92 -18.68,18.17 0.06,10.23 8.1,18.07 18.53,17.99 10.32,-0.06 18.19,-7.87 18.14,-17.93 -0.08,-10.51 -7.7,-18.3 -17.99,-18.23"
         style="fill:#231e1f;fill-opacity:1;fill-rule:nonzero;stroke:none"
         id="path5682"
         inkscape:connector-curvature="0" /></g></g></svg>