<?xml version="1.0" encoding="UTF-8" standalone="no"?>
<!-- Created with Inkscape (http://www.inkscape.org/) -->

<svg
   xmlns:dc="http://purl.org/dc/elements/1.1/"
   xmlns:cc="http://creativecommons.org/ns#"
   xmlns:rdf="http://www.w3.org/1999/02/22-rdf-syntax-ns#"
   xmlns:svg="http://www.w3.org/2000/svg"
   xmlns="http://www.w3.org/2000/svg"
   xmlns:sodipodi="http://sodipodi.sourceforge.net/DTD/sodipodi-0.dtd"
   xmlns:inkscape="http://www.inkscape.org/namespaces/inkscape"
   version="1.1"
   id="svg157"
   xml:space="preserve"
   width="716.62946"
   height="969.13287"
   viewBox="0 0 716.62944 969.13287"
   sodipodi:docname="rise_up_white.svg"
   inkscape:version="0.91 r13725"
   inkscape:export-filename="/Users/rjsmith/Desktop/Logo/Rise Up Logo1.png"
   inkscape:export-xdpi="106.13603"
   inkscape:export-ydpi="106.13603"><metadata
     id="metadata163"><rdf:RDF><cc:Work
         rdf:about=""><dc:format>image/svg+xml</dc:format><dc:type
           rdf:resource="http://purl.org/dc/dcmitype/StillImage" /><dc:title /></cc:Work></rdf:RDF></metadata><defs
     id="defs161"><clipPath
       clipPathUnits="userSpaceOnUse"
       id="clipPath195"><path
         d="M 0,980 1400,980 1400,0 0,0 Z"
         id="path193"
         inkscape:connector-curvature="0" /></clipPath></defs><sodipodi:namedview
     pagecolor="#ffffff"
     bordercolor="#666666"
     borderopacity="1"
     objecttolerance="10"
     gridtolerance="10"
     guidetolerance="10"
     inkscape:pageopacity="0"
     inkscape:pageshadow="2"
     inkscape:window-width="1869"
     inkscape:window-height="1056"
     id="namedview159"
     showgrid="false"
     inkscape:snap-bbox="false"
     inkscape:bbox-paths="false"
     inkscape:object-paths="true"
     inkscape:snap-intersection-paths="true"
     showguides="true"
     inkscape:guide-bbox="true"
     inkscape:snap-grids="true"
     inkscape:snap-object-midpoints="true"
     showborder="true"
     inkscape:pagecheckerboard="false"
     inkscape:zoom="0.5"
     inkscape:cx="166.58161"
     inkscape:cy="507.52976"
     inkscape:window-x="51"
     inkscape:window-y="24"
     inkscape:window-maximized="1"
     inkscape:current-layer="layer1"
     fit-margin-top="0"
     fit-margin-left="0"
     fit-margin-right="0"
     fit-margin-bottom="0"><inkscape:grid
       type="xygrid"
       id="grid4120"
       originx="-24.355724"
       originy="-152.88415" /></sodipodi:namedview><g
     inkscape:groupmode="layer"
     id="layer1"
     inkscape:label="DD Arrow Set 55603"
     transform="translate(-24.355725,-184.64974)"
     style="display:inline"><path
       style="fill:#ffffff;fill-opacity:1;stroke:#214478;stroke-width:0;stroke-miterlimit:4;stroke-dasharray:none;stroke-opacity:1"
       d="M 266.18624,870.70423 C 215.29224,853.31676 164.6654,821.66439 126.27486,783.23037 60.1097,716.99024 24.35573,630.70916 24.35573,537.2803 c 0,-187.23801 144.63374,-337.92612 337.99703,-352.14557 25.18259,-1.85186 72.58901,1.80182 97.58074,7.5207 143.7244,32.88857 252.29706,144.48093 277.50957,285.2279 4.70543,26.26766 4.72729,94.11795 0.0382,118.79394 -24.16072,127.14631 -114.48914,231.91352 -235.41204,273.04204 -11.27445,3.83473 -20.9126,6.97225 -21.41793,6.97225 -0.50535,0 -0.91881,-77.00393 -0.91881,-171.11985 l 0,-171.11984 32.52691,0 c 17.8898,0 32.52691,-0.75654 32.52691,-1.68121 0,-1.92294 -150.90962,-200.68391 -158.33187,-208.53668 -4.66204,-4.93247 -8.39802,-0.50055 -85.83446,101.82338 l -80.96028,106.9803 32.45566,0.79688 32.45566,0.79685 0,171.0301 c 0,94.06653 -0.3182,170.98744 -0.70711,170.93534 -0.38891,-0.052 -8.34386,-2.70378 -17.67767,-5.8926 z"
       id="path267"
       inkscape:connector-curvature="0" /><g
       style="font-style:normal;font-weight:normal;font-size:40px;line-height:1.25;font-family:sans-serif;letter-spacing:0px;word-spacing:0px;fill:#ffffff;fill-opacity:1;stroke:none"
       id="text271"><path
         d="m 115.47244,1065.7506 0,54.24 -25.824,0 0,-138.816 42.336,0 q 14.208,0 24.288,2.976 10.176,2.88 16.608,8.16 6.528,5.28 9.504,12.672 3.072,7.296 3.072,16.128 0,7.008 -2.112,13.248 -2.016,6.24 -5.952,11.328 -3.84,5.088 -9.6,8.928 -5.664,3.84 -12.96,6.144 4.896,2.784 8.448,7.968 l 34.752,51.264 -23.232,0 q -3.36,0 -5.76,-1.344 -2.304,-1.344 -3.936,-3.84 l -29.184,-44.448 q -1.632,-2.496 -3.648,-3.552 -1.92,-1.056 -5.76,-1.056 l -11.04,0 z m 0,-18.528 16.128,0 q 7.296,0 12.672,-1.824 5.472,-1.824 8.928,-4.992 3.552,-3.264 5.28,-7.68 1.728,-4.416 1.728,-9.696 0,-10.56 -7.008,-16.224 -6.912,-5.664 -21.216,-5.664 l -16.512,0 0,46.08 z"
         style="font-style:normal;font-variant:normal;font-weight:bold;font-stretch:normal;font-size:192px;line-height:34.04999924;font-family:Lato;-inkscape-font-specification:'Lato Bold';letter-spacing:0px;fill:#ffffff;fill-opacity:1"
         id="path4203" /><path
         d="m 238.31344,1021.4946 0,98.496 -23.712,0 0,-98.496 23.712,0 z m 3.552,-28.704 q 0,3.072 -1.248,5.76 -1.248,2.688 -3.36,4.704 -2.016,2.016 -4.8,3.264 -2.784,1.152 -5.952,1.152 -3.072,0 -5.856,-1.152 -2.688,-1.248 -4.704,-3.264 -2.016,-2.016 -3.264,-4.704 -1.152,-2.688 -1.152,-5.76 0,-3.168 1.152,-5.952 1.248,-2.784 3.264,-4.8 2.016,-2.016 4.704,-3.168 2.784,-1.248 5.856,-1.248 3.168,0 5.952,1.248 2.784,1.152 4.8,3.168 2.112,2.016 3.36,4.8 1.248,2.784 1.248,5.952 z"
         style="font-style:normal;font-variant:normal;font-weight:bold;font-stretch:normal;font-size:192px;line-height:34.04999924;font-family:Lato;-inkscape-font-specification:'Lato Bold';letter-spacing:0px;fill:#ffffff;fill-opacity:1"
         id="path4205" /><path
         d="m 323.65444,1040.6946 q -0.96,1.536 -2.016,2.208 -1.056,0.576 -2.688,0.576 -1.728,0 -3.744,-0.96 -1.92,-0.96 -4.512,-2.112 -2.592,-1.248 -5.952,-2.208 -3.264,-0.96 -7.776,-0.96 -7.008,0 -11.04,2.976 -4.032,2.976 -4.032,7.776 0,3.168 2.016,5.376 2.112,2.112 5.472,3.744 3.456,1.632 7.776,2.976 4.32,1.248 8.832,2.784 4.512,1.536 8.832,3.552 4.32,1.92 7.68,4.992 3.456,2.976 5.472,7.2 2.112,4.224 2.112,10.176 0,7.104 -2.592,13.152 -2.592,5.952 -7.584,10.368 -4.992,4.32 -12.384,6.816 -7.296,2.4 -16.8,2.4 -5.088,0 -9.984,-0.96 -4.8,-0.864 -9.312,-2.496 -4.416,-1.632 -8.256,-3.84 -3.744,-2.208 -6.624,-4.8 l 5.472,-9.024 q 1.056,-1.632 2.496,-2.496 1.44,-0.864 3.648,-0.864 2.208,0 4.128,1.248 2.016,1.248 4.608,2.688 2.592,1.44 6.048,2.688 3.552,1.248 8.928,1.248 4.224,0 7.2,-0.96 3.072,-1.056 4.992,-2.688 2.016,-1.632 2.88,-3.744 0.96,-2.208 0.96,-4.512 0,-3.456 -2.112,-5.664 -2.016,-2.208 -5.472,-3.84 -3.36,-1.632 -7.776,-2.88 -4.32,-1.344 -8.928,-2.88 -4.512,-1.536 -8.928,-3.552 -4.32,-2.112 -7.776,-5.28 -3.36,-3.168 -5.472,-7.776 -2.016,-4.608 -2.016,-11.136 0,-6.048 2.4,-11.52 2.4,-5.472 7.008,-9.504 4.704,-4.128 11.616,-6.528 7.008,-2.496 16.128,-2.496 10.176,0 18.528,3.36 8.352,3.36 13.92,8.832 l -5.376,8.544 z"
         style="font-style:normal;font-variant:normal;font-weight:bold;font-stretch:normal;font-size:192px;line-height:34.04999924;font-family:Lato;-inkscape-font-specification:'Lato Bold';letter-spacing:0px;fill:#ffffff;fill-opacity:1"
         id="path4207" /><path
         d="m 389.89444,1019.9586 q 9.312,0 17.088,2.976 7.872,2.976 13.536,8.736 5.664,5.664 8.832,14.016 3.168,8.256 3.168,18.912 0,2.688 -0.288,4.512 -0.192,1.728 -0.864,2.784 -0.576,0.96 -1.632,1.44 -1.056,0.384 -2.688,0.384 l -60.864,0 q 1.056,15.168 8.16,22.272 7.104,7.104 18.816,7.104 5.76,0 9.888,-1.344 4.224,-1.344 7.296,-2.976 3.168,-1.632 5.472,-2.976 2.4,-1.344 4.608,-1.344 1.44,0 2.496,0.576 1.056,0.576 1.824,1.632 l 6.912,8.64 q -3.936,4.608 -8.832,7.776 -4.896,3.072 -10.272,4.992 -5.28,1.824 -10.848,2.592 -5.472,0.768 -10.656,0.768 -10.272,0 -19.104,-3.36 -8.832,-3.456 -15.36,-10.08 -6.528,-6.72 -10.272,-16.512 -3.744,-9.888 -3.744,-22.848 0,-10.08 3.264,-18.912 3.264,-8.928 9.312,-15.456 6.144,-6.624 14.88,-10.464 8.832,-3.84 19.872,-3.84 z m 0.48,16.992 q -10.368,0 -16.224,5.856 -5.856,5.856 -7.488,16.608 l 44.544,0 q 0,-4.608 -1.248,-8.64 -1.248,-4.128 -3.84,-7.2 -2.592,-3.072 -6.528,-4.8 -3.936,-1.824 -9.216,-1.824 z"
         style="font-style:normal;font-variant:normal;font-weight:bold;font-stretch:normal;font-size:192px;line-height:34.04999924;font-family:Lato;-inkscape-font-specification:'Lato Bold';letter-spacing:0px;fill:#ffffff;fill-opacity:1"
         id="path4209" /><path
         d="m 509.63644,1112.9826 q 9.792,0 17.472,-3.36 7.776,-3.456 13.152,-9.504 5.376,-6.048 8.16,-14.208 2.88,-8.256 2.88,-17.76 l 0,-84 9.792,0 0,84 q 0,11.232 -3.552,21.024 -3.552,9.696 -10.272,16.992 -6.624,7.2 -16.224,11.328 -9.504,4.128 -21.408,4.128 -11.904,0 -21.504,-4.128 -9.504,-4.128 -16.224,-11.328 -6.624,-7.296 -10.176,-16.992 -3.552,-9.792 -3.552,-21.024 l 0,-84 9.888,0 0,83.904 q 0,9.504 2.784,17.76 2.88,8.16 8.16,14.208 5.376,6.048 13.056,9.504 7.776,3.456 17.568,3.456 z"
         style="font-style:normal;font-variant:normal;font-weight:300;font-stretch:normal;font-size:192px;line-height:34.04999924;font-family:Lato;-inkscape-font-specification:'Lato Light';letter-spacing:0px;fill:#ffffff;fill-opacity:1"
         id="path4211" /><path
         d="m 595.82044,1153.7826 0,-129.312 4.992,0 q 1.248,0 2.016,0.576 0.768,0.48 0.864,1.824 l 0.864,14.784 q 6.336,-8.64 14.784,-13.728 8.544,-5.088 19.104,-5.088 17.664,0 27.456,12.192 9.792,12.192 9.792,36.576 0,10.464 -2.784,19.584 -2.688,9.024 -7.968,15.744 -5.28,6.624 -13.056,10.464 -7.68,3.84 -17.76,3.84 -9.792,0 -16.896,-3.552 -7.104,-3.552 -12.288,-10.56 l 0,46.656 -9.12,0 z m 40.032,-123.552 q -9.504,0 -17.28,4.992 -7.68,4.896 -13.632,13.728 l 0,50.112 q 5.472,8.256 12.096,11.616 6.72,3.36 15.264,3.36 8.448,0 14.784,-3.072 6.336,-3.072 10.56,-8.64 4.32,-5.664 6.432,-13.44 2.208,-7.872 2.208,-17.28 0,-21.312 -7.872,-31.296 -7.776,-10.08 -22.56,-10.08 z"
         style="font-style:normal;font-variant:normal;font-weight:300;font-stretch:normal;font-size:192px;line-height:34.04999924;font-family:Lato;-inkscape-font-specification:'Lato Light';letter-spacing:0px;fill:#ffffff;fill-opacity:1"
         id="path4213" /></g></g></svg>