<?xml version="1.0" encoding="UTF-8" standalone="no"?>
<!-- Created with Inkscape (http://www.inkscape.org/) -->

<svg
   xmlns:dc="http://purl.org/dc/elements/1.1/"
   xmlns:cc="http://creativecommons.org/ns#"
   xmlns:rdf="http://www.w3.org/1999/02/22-rdf-syntax-ns#"
   xmlns:svg="http://www.w3.org/2000/svg"
   xmlns="http://www.w3.org/2000/svg"
   xmlns:sodipodi="http://sodipodi.sourceforge.net/DTD/sodipodi-0.dtd"
   xmlns:inkscape="http://www.inkscape.org/namespaces/inkscape"
   id="svg4219"
   version="1.1"
   inkscape:version="0.91 r13725"
   xml:space="preserve"
   width="574.8125"
   height="514.97498"
   viewBox="0 0 574.8125 514.97498"
   sodipodi:docname="TT_logo_large.svg"><metadata
     id="metadata4225"><rdf:RDF><cc:Work
         rdf:about=""><dc:format>image/svg+xml</dc:format><dc:type
           rdf:resource="http://purl.org/dc/dcmitype/StillImage" /><dc:title></dc:title></cc:Work></rdf:RDF></metadata><defs
     id="defs4223" /><sodipodi:namedview
     pagecolor="#ffffff"
     bordercolor="#666666"
     borderopacity="1"
     objecttolerance="10"
     gridtolerance="10"
     guidetolerance="10"
     inkscape:pageopacity="0"
     inkscape:pageshadow="2"
     inkscape:window-width="1869"
     inkscape:window-height="1056"
     id="namedview4221"
     showgrid="false"
     inkscape:zoom="1.6894025"
     inkscape:cx="287.40625"
     inkscape:cy="257.48749"
     inkscape:window-x="51"
     inkscape:window-y="24"
     inkscape:window-maximized="1"
     inkscape:current-layer="g4227" /><g
     id="g4227"
     inkscape:groupmode="layer"
     inkscape:label="ink_ext_XXXXXX"
     transform="matrix(1.25,0,0,-1.25,0,514.975)"><g
       id="g4229"
       transform="scale(0.1,0.1)"><path
         d="M 3968.58,289.77 4598.51,2658.32 3225.26,4119.76 617.336,3804.79 0,1688.22 1310.26,0 3968.58,289.77"
         style="fill:#ffffff;fill-opacity:1;fill-rule:nonzero;stroke:none"
         id="path4231"
         inkscape:connector-curvature="0" /><path
         d="M 1099.41,3398.41 3028.44,3664.54 4060.91,2511.25 3649.41,739.52 1721.4,506.309 788.445,1796.85 1099.41,3398.41"
         style="fill:#ffffff;fill-opacity:1;fill-rule:nonzero;stroke:none"
         id="path4233"
         inkscape:connector-curvature="0" /><path
         d="m 2006.79,708.41 -918.04,1118.17 347.76,1439.28 1549.67,219.22 970.94,-968.12 L 3528.01,898.332 2006.79,708.41 Z M 4292.24,2603.48 3049.54,3894.37 959.129,3633.26 424.254,1766.77 1618.87,272.641 3723.9,513 4292.24,2603.48"
         style="fill:#59b734;fill-opacity:1;fill-rule:nonzero;stroke:none"
         id="path4235"
         inkscape:connector-curvature="0" /><path
         d="m 1864,2522.24 -339.18,-47.16 127.85,504.08 1202.41,156 L 2718.5,2626.04 2330.26,2581 1980.21,1168.07 1633.4,1582.29 1864,2522.24"
         style="fill:#59b734;fill-opacity:1;fill-rule:nonzero;stroke:none"
         id="path4237"
         inkscape:connector-curvature="0" /><path
         d="m 2863.68,2009.14 -307.18,-39.37 101.27,404.08 1062.9,110.83 -117,-387.3 -284.4,-35 -247.22,-989.03 -455.53,-51.35 247.16,987.14"
         style="fill:#59b734;fill-opacity:1;fill-rule:nonzero;stroke:none"
         id="path4239"
         inkscape:connector-curvature="0" /><path
         d="m 2441.47,1714.03 c 4.43,20.57 -5.41,38.86 -27.98,39.58 -24.52,0.75 -46.72,-15.42 -51.33,-40.81 -5.58,-27.15 7.93,-49.28 16.55,-72.1 30.61,13.96 57.01,40.58 62.76,73.33 z m -132.88,-259.8 c -22.13,-14.34 -42.97,-43.92 -47.48,-68.34 -9.14,-50.57 15.9,-92.9 61.08,-94.29 20.71,-0.69 34.17,4.51 52.47,18.04 l -66.07,144.59 z m 111.07,-242.2 c -40.56,-28.95 -94.01,-47.91 -140.08,-46.43 -115.96,3.66 -177.79,104.69 -156.26,215.33 15.78,81.56 65.67,137.49 137.87,183.29 -16.49,44.82 -31.84,96.24 -21.61,147.79 18.13,94.74 102.92,152.31 195.23,149.35 83.84,-2.7 153.91,-54.91 135.89,-145.71 -14.87,-80.7 -83.72,-140.78 -150.29,-187.72 l 65.99,-148.23 c 38.13,26.89 105.58,67.75 141.67,91.81 l -28.91,-142.91 c -12.24,-9.63 -26.7,-23.55 -56.58,-43.35 l -7.53,-5.29 37.59,-85.17 -135.62,-18.69 -17.36,35.93"
         style="fill:#59b734;fill-opacity:1;fill-rule:nonzero;stroke:none"
         id="path4241"
         inkscape:connector-curvature="0" /><path
         d="m 509.566,1441.35 -81.714,-21.23 42.789,-53.65 38.925,74.88 z m -51.488,-97.05 -54.805,68.64 -36.152,-9.26 -17.195,21.56 172.179,44.26 17.723,-22.07 -81.547,-158.04 -17.136,21.55 16.933,33.36"
         style="fill:#59b734;fill-opacity:1;fill-rule:nonzero;stroke:none"
         id="path4243"
         inkscape:connector-curvature="0" /><path
         d="m 613.609,1278.27 -53.246,-77.41 87.942,33.89 16.672,-20.84 -114.911,-40.26 -17.296,21.67 21.3,34.25 24.176,33.5 -38.234,-15.92 -38.051,-13.29 -17.34,21.83 64.676,103.25 16.773,-21.04 -52.64,-78.19 87.273,34.7 12.906,-16.14"
         style="fill:#59b734;fill-opacity:1;fill-rule:nonzero;stroke:none"
         id="path4245"
         inkscape:connector-curvature="0" /><path
         d="m 642.215,1150.63 c -18.469,-14.73 -19.317,-36.66 -6.594,-52.64 30.75,-38.62 89.965,8.7 59.215,47.26 -12.664,15.88 -34.289,20.07 -52.621,5.38 z m 91.223,-22.92 14.421,-18.15 c -29.699,-23.67 -59.496,-47.48 -89.336,-71.29 l -14.121,17.8 13.778,12.52 c -16.164,-3.21 -32.551,6.24 -41.453,17.34 -20.899,25.98 -19.848,59.12 10.597,83.37 29.883,23.79 62.86,16.69 83.414,-9.06 10.114,-12.64 13.875,-29.56 8.172,-43.29 l 14.528,10.76"
         style="fill:#59b734;fill-opacity:1;fill-rule:nonzero;stroke:none"
         id="path4247"
         inkscape:connector-curvature="0" /><path
         d="m 732.93,945.109 47.867,38.27 c 15.355,12.203 18.73,29.141 6.453,44.571 -11.855,14.85 -32.105,15.32 -46.754,3.58 l -46.812,-37.241 -14.809,18.671 89.461,71.38 13.613,-17.06 -12.199,-11.47 c 16.387,-0.89 29.031,-7.04 38.336,-18.75 17.34,-21.69 15.234,-50.619 -12.098,-72.388 l -48.066,-38.34 -14.992,18.777"
         style="fill:#59b734;fill-opacity:1;fill-rule:nonzero;stroke:none"
         id="path4249"
         inkscape:connector-curvature="0" /><path
         d="m 822.41,924.879 c -18.551,-14.77 -19.379,-36.82 -6.613,-52.699 30.73,-38.621 89.984,8.59 59.215,47.199 -12.727,16 -34.352,20.062 -52.602,5.5 z m 91.16,-23.008 14.465,-18.141 c -29.699,-23.628 -59.578,-47.5 -89.32,-71.21 l -14.141,17.781 13.781,12.441 c -16.187,-3.133 -32.613,6.25 -41.433,17.36 -20.942,25.968 -19.91,59.07 10.578,83.41 29.883,23.828 62.859,16.609 83.313,-9.043 10.214,-12.668 13.875,-29.617 8.23,-43.34 l 14.527,10.742"
         style="fill:#59b734;fill-opacity:1;fill-rule:nonzero;stroke:none"
         id="path4251"
         inkscape:connector-curvature="0" /><path
         d="m 1005.46,636.949 c -23.308,2.723 -42.71,14.832 -56.851,32.582 -36.656,46.02 -21.484,91.981 11.696,118.75 33.156,26.758 83.655,31.481 119.845,-13.761 13.57,-17.129 20.41,-38.68 17.76,-61.739 l -23.89,3.199 c 1.66,16.102 -3.73,31.372 -13.09,43.129 -25.71,32.27 -61.16,28.043 -84.364,9.223 -23.043,-18.691 -35.121,-50.801 -8.918,-83.59 9.364,-11.781 24.719,-20.961 40.602,-22.703 l -2.79,-25.09"
         style="fill:#59b734;fill-opacity:1;fill-rule:nonzero;stroke:none"
         id="path4253"
         inkscape:connector-curvature="0" /><path
         d="m 1145.15,688.059 -126.62,-101.008 -14.83,18.691 126.56,101.028 14.89,-18.711"
         style="fill:#59b734;fill-opacity:1;fill-rule:nonzero;stroke:none"
         id="path4255"
         inkscape:connector-curvature="0" /><path
         d="m 1142.38,615.031 -47.83,-38.199 c -15.19,-12.121 -18.77,-29.191 -6.33,-44.75 11.73,-14.711 31.9,-15.051 46.77,-3.32 l 46.55,37.117 14.83,-18.57 -89.4,-71.407 -13.45,16.77 12.42,11.707 c -16.95,0.711 -29.11,6.742 -39.1,19.203 -17.5,21.949 -14.37,50.297 12.7,71.797 l 48.01,38.363 14.83,-18.711"
         style="fill:#59b734;fill-opacity:1;fill-rule:nonzero;stroke:none"
         id="path4257"
         inkscape:connector-curvature="0" /><path
         d="m 1187.9,466.531 c -17.56,-14 -18.86,-36.133 -6.29,-51.89 12.44,-15.559 33.76,-19.36 51.68,-5.02 18.29,14.59 18.84,35.828 6.48,51.469 -12.42,15.558 -34.62,19.18 -51.87,5.441 z m 81.06,66.438 -51.28,-40.91 c 15.09,2.593 32.24,-7.77 40.92,-18.629 20.52,-25.711 20.03,-58.141 -10.44,-82.418 -29.47,-23.532 -62.25,-17.481 -82.94,8.519 -9.57,11.938 -14.55,27.489 -8.74,43.68 l -15.03,-10.219 -14.02,17.637 126.66,100.93 14.87,-18.59"
         style="fill:#59b734;fill-opacity:1;fill-rule:nonzero;stroke:none"
         id="path4259"
         inkscape:connector-curvature="0" /><path
         d="m 1332.3,332.02 c 0.87,12.222 -3.38,21.281 -10.48,30.16 -8.9,11.66 -18.77,16.172 -25.83,10.519 -7.28,-6.109 -3.99,-16.14 4.05,-28.48 11.69,-17.598 25.26,-42.117 2.14,-60.227 -16.89,-13.09 -40.12,-7.672 -58.57,15.477 -11.59,14.523 -19.89,31.582 -16.1,53.933 l 21.04,0.746 c -2.61,-15.738 3.52,-31.226 11.71,-41.878 7.16,-8.899 18.33,-16.258 26.87,-9.77 8.11,6.172 5.08,16.23 -4.23,30.531 -11.8,18.028 -21.85,41.821 -2.23,57.699 19.73,15.821 43.54,1.25 56.79,-15.48 10.99,-13.668 16.47,-26.879 15.52,-43.961 l -20.68,0.731"
         style="fill:#59b734;fill-opacity:1;fill-rule:nonzero;stroke:none"
         id="path4261"
         inkscape:connector-curvature="0" /><path
         d="m 3894.57,593.379 7.97,0 c 9.28,0 16.81,3.082 16.81,10.613 0,6.629 -4.87,11.047 -15.49,11.047 -4.44,0 -7.53,-0.43 -9.29,-0.867 l 0,-20.793 z m -0.46,-41.16 -16.81,0 0,72.57 c 6.63,1.32 15.95,2.223 27.89,2.223 13.73,0 19.9,-2.223 25.21,-5.313 4.01,-3.109 7.09,-8.847 7.09,-15.949 0,-7.961 -6.2,-14.16 -15.05,-16.82 l 0,-0.891 c 7.09,-2.648 11.07,-7.957 13.3,-17.68 2.19,-11.078 3.51,-15.488 5.3,-18.14 l -18.14,0 c -2.22,2.652 -3.55,9.281 -5.77,17.683 -1.33,7.957 -5.74,11.5 -15.06,11.5 l -7.96,0 0,-29.183 z m -44.68,38.043 c 0,-32.313 23.88,-57.981 56.65,-57.981 31.85,0 55.3,25.668 55.3,57.551 0,32.297 -23.45,58.41 -55.76,58.41 -32.31,0 -56.19,-26.113 -56.19,-57.98 z m 130.55,0 c 0,-41.16 -32.3,-73.473 -74.36,-73.473 -41.59,0 -74.79,32.313 -74.79,73.473 0,40.269 33.2,72.57 74.79,72.57 42.06,0 74.36,-32.301 74.36,-72.57"
         style="fill:#59b734;fill-opacity:1;fill-rule:nonzero;stroke:none"
         id="path4263"
         inkscape:connector-curvature="0" /></g></g></svg>