<?xml version="1.0" encoding="UTF-8" standalone="no"?>
<!-- Created with Inkscape (http://www.inkscape.org/) -->

<svg
   xmlns:dc="http://purl.org/dc/elements/1.1/"
   xmlns:cc="http://creativecommons.org/ns#"
   xmlns:rdf="http://www.w3.org/1999/02/22-rdf-syntax-ns#"
   xmlns:svg="http://www.w3.org/2000/svg"
   xmlns="http://www.w3.org/2000/svg"
   xmlns:sodipodi="http://sodipodi.sourceforge.net/DTD/sodipodi-0.dtd"
   xmlns:inkscape="http://www.inkscape.org/namespaces/inkscape"
   width="84.666672mm"
   height="96.541122mm"
   viewBox="0 0 300.00002 342.07484"
   id="svg2"
   version="1.1"
   inkscape:version="0.91 r13725"
   sodipodi:docname="youth_logo_white.svg">
  <defs
     id="defs4" />
  <sodipodi:namedview
     id="base"
     pagecolor="#ffffff"
     bordercolor="#666666"
     borderopacity="1.0"
     inkscape:pageopacity="0.0"
     inkscape:pageshadow="2"
     inkscape:zoom="1.4"
     inkscape:cx="-15.397062"
     inkscape:cy="151.99946"
     inkscape:document-units="px"
     inkscape:current-layer="g4267"
     showgrid="false"
     showborder="true"
     showguides="true"
     inkscape:guide-bbox="true"
     inkscape:window-width="1869"
     inkscape:window-height="1056"
     inkscape:window-x="51"
     inkscape:window-y="24"
     inkscape:window-maximized="1"
     fit-margin-top="0"
     fit-margin-left="0"
     fit-margin-right="0"
     fit-margin-bottom="0" />
  <metadata
     id="metadata7">
    <rdf:RDF>
      <cc:Work
         rdf:about="">
        <dc:format>image/svg+xml</dc:format>
        <dc:type
           rdf:resource="http://purl.org/dc/dcmitype/StillImage" />
        <dc:title></dc:title>
      </cc:Work>
    </rdf:RDF>
  </metadata>
  <g
     inkscape:label="Layer 1"
     inkscape:groupmode="layer"
     id="layer1"
     transform="translate(-3530.6391,-5296.0715)">
    <g
       id="g4267"
       transform="matrix(0.06997422,0,0,0.06997422,3283.5854,5243.6215)">
      <path
         style="color:#000000;font-style:normal;font-variant:normal;font-weight:normal;font-stretch:normal;font-size:medium;line-height:normal;font-family:sans-serif;text-indent:0;text-align:start;text-decoration:none;text-decoration-line:none;text-decoration-style:solid;text-decoration-color:#000000;letter-spacing:normal;word-spacing:normal;text-transform:none;direction:ltr;block-progression:tb;writing-mode:lr-tb;baseline-shift:baseline;text-anchor:start;white-space:normal;clip-rule:nonzero;display:inline;overflow:visible;visibility:visible;opacity:1;isolation:auto;mix-blend-mode:normal;color-interpolation:sRGB;color-interpolation-filters:linearRGB;solid-color:#000000;solid-opacity:1;fill:#ffffff;fill-opacity:1;fill-rule:nonzero;stroke:none;stroke-width:200;stroke-linecap:round;stroke-linejoin:round;stroke-miterlimit:4;stroke-dasharray:none;stroke-dashoffset:0;stroke-opacity:1;color-rendering:auto;image-rendering:auto;shape-rendering:auto;text-rendering:auto;enable-background:accumulate"
         d="M 150.08789 0 C 147.6033 -0.015740701 145.15821 0.63143775 143.00391 1.875 A 6.9981217 6.9981217 0 0 0 143.00195 1.875 L 6.9980469 80.396484 A 6.9981217 6.9981217 0 0 0 6.9960938 80.396484 C 2.6762493 82.890876 0.00032887883 87.529284 0 92.517578 L 0 249.5625 C 0 254.55079 2.6762493 259.18725 6.9960938 261.68164 A 6.9981217 6.9981217 0 0 0 6.9980469 261.68164 L 143.00195 340.20508 A 6.9981217 6.9981217 0 0 0 143.00391 340.20508 C 147.32408 342.69899 152.67787 342.69899 156.99805 340.20508 L 293.00195 261.68164 A 6.9981217 6.9981217 0 0 0 293.00391 261.68164 C 297.32374 259.18725 299.99966 254.55079 300 249.5625 L 300 92.517578 A 6.9981217 6.9981217 0 0 0 300 92.515625 C 300 87.527331 297.32374 82.890876 293.00391 80.396484 A 6.9981217 6.9981217 0 0 0 293.00195 80.396484 L 156.99805 1.875 A 6.9981217 6.9981217 0 0 0 156.99609 1.875 C 154.96564 0.70293391 152.67388 0.059081622 150.33008 0.00390625 C 150.24986 0.0020169461 150.16804 0.00051081181 150.08789 0 z M 150.16406 7 A 6.9981217 6.9981217 0 0 1 153.49805 7.9355469 L 289.50391 86.457031 A 6.9981217 6.9981217 0 0 1 293.00195 92.517578 L 293.00195 249.5625 A 6.9981217 6.9981217 0 0 1 289.50391 255.62109 L 153.49805 334.14453 A 6.9981217 6.9981217 0 0 1 146.50195 334.14453 L 10.496094 255.62109 A 6.9981217 6.9981217 0 0 1 6.9980469 249.5625 L 6.9980469 92.517578 A 6.9981217 6.9981217 0 0 1 10.496094 86.457031 L 146.50195 7.9355469 A 6.9981217 6.9981217 0 0 1 150.16406 7 z "
         id="path4795"
         transform="matrix(14.290977,0,0,14.290977,3530.6389,749.56177)" />
      <path
         style="color:#000000;clip-rule:nonzero;display:inline;overflow:visible;visibility:visible;opacity:1;isolation:auto;mix-blend-mode:normal;color-interpolation:sRGB;color-interpolation-filters:linearRGB;solid-color:#000000;solid-opacity:1;fill:none;fill-opacity:1;fill-rule:nonzero;stroke:#ffffff;stroke-width:42.87293243;stroke-linecap:round;stroke-linejoin:round;stroke-miterlimit:4;stroke-dasharray:none;stroke-dashoffset:0;stroke-opacity:1;color-rendering:auto;image-rendering:auto;shape-rendering:auto;text-rendering:auto;enable-background:accumulate"
         d="M 3730.6428,2066.6853 5674.2854,944.52271 7617.9281,2066.6853 l 0,2244.3252 L 5674.2855,5433.1731 3730.6428,4311.0105 Z"
         id="path4764"
         inkscape:connector-curvature="0" />
      <text
         sodipodi:linespacing="125%"
         id="text4766"
         y="3572.1726"
         x="3852.4614"
         style="font-style:normal;font-weight:normal;font-size:1022.3972168px;line-height:125%;font-family:sans-serif;letter-spacing:0px;word-spacing:0px;opacity:1;fill:#ffffff;fill-opacity:1;stroke:none;stroke-width:1px;stroke-linecap:butt;stroke-linejoin:miter;stroke-opacity:1"
         xml:space="preserve"><tspan
           style="font-style:normal;font-variant:normal;font-weight:normal;font-stretch:normal;font-family:Merriweather;-inkscape-font-specification:Merriweather;fill:#ffffff"
           y="3572.1726"
           x="3852.4614"
           id="tspan4768"
           sodipodi:role="line">YOUTH</tspan></text>
      <path
         inkscape:transform-center-y="-28.077842"
         d="m 5674.2852,4145.903 67.1947,201.5494 212.4491,1.6238 -170.9205,126.1881 64.1061,202.553 -172.8294,-123.5608 -172.8295,123.5608 64.1061,-202.553 -170.9205,-126.1881 212.4491,-1.6238 z"
         inkscape:randomized="0"
         inkscape:rounded="0"
         inkscape:flatsided="false"
         sodipodi:arg2="-0.94247777"
         sodipodi:arg1="-1.5707963"
         sodipodi:r2="114.31849"
         sodipodi:r1="294.03497"
         sodipodi:cy="4439.938"
         sodipodi:cx="5674.2854"
         sodipodi:sides="5"
         id="path4812"
         style="color:#000000;clip-rule:nonzero;display:inline;overflow:visible;visibility:visible;opacity:1;isolation:auto;mix-blend-mode:normal;color-interpolation:sRGB;color-interpolation-filters:linearRGB;solid-color:#000000;solid-opacity:1;fill:#ffffff;fill-opacity:1;fill-rule:nonzero;stroke:none;stroke-width:200;stroke-linecap:round;stroke-linejoin:round;stroke-miterlimit:4;stroke-dasharray:none;stroke-dashoffset:0;stroke-opacity:1;color-rendering:auto;image-rendering:auto;shape-rendering:auto;text-rendering:auto;enable-background:accumulate"
         sodipodi:type="star" />
      <g
         transform="matrix(2.316122,0,0,2.316122,416.7519,5291.3141)"
         id="g9290">
        <path
           style="color:#000000;clip-rule:nonzero;display:inline;overflow:visible;visibility:visible;opacity:1;isolation:auto;mix-blend-mode:normal;color-interpolation:sRGB;color-interpolation-filters:linearRGB;solid-color:#000000;solid-opacity:1;fill:#ffffff;fill-opacity:1;fill-rule:nonzero;stroke:none;stroke-width:0.30000001;stroke-linecap:round;stroke-linejoin:round;stroke-miterlimit:4;stroke-dasharray:none;stroke-dashoffset:0;stroke-opacity:1;color-rendering:auto;image-rendering:auto;shape-rendering:auto;text-rendering:auto;enable-background:accumulate"
           d="m 2436.5258,-1510.4996 a 166.5578,166.5578 0 0 1 -166.5578,166.5578 166.5578,166.5578 0 0 1 -166.5578,-166.5578 166.5578,166.5578 0 0 1 166.5578,-166.5578 166.5578,166.5578 0 0 1 166.5578,166.5578 z"
           id="circle4917"
           inkscape:connector-curvature="0" />
        <path
           style="color:#000000;font-style:normal;font-variant:normal;font-weight:normal;font-stretch:normal;font-size:medium;line-height:normal;font-family:sans-serif;text-indent:0;text-align:start;text-decoration:none;text-decoration-line:none;text-decoration-style:solid;text-decoration-color:#000000;letter-spacing:normal;word-spacing:normal;text-transform:none;direction:ltr;block-progression:tb;writing-mode:lr-tb;baseline-shift:baseline;text-anchor:start;white-space:normal;clip-rule:nonzero;display:inline;overflow:visible;visibility:visible;opacity:1;isolation:auto;mix-blend-mode:normal;color-interpolation:sRGB;color-interpolation-filters:linearRGB;solid-color:#000000;solid-opacity:1;fill:#ffffff;fill-opacity:1;fill-rule:nonzero;stroke:none;stroke-width:8.91647911;stroke-linecap:round;stroke-linejoin:round;stroke-miterlimit:4;stroke-dasharray:none;stroke-dashoffset:0;stroke-opacity:1;color-rendering:auto;image-rendering:auto;shape-rendering:auto;text-rendering:auto;enable-background:accumulate"
           d="m 153.3457,42.851562 c -16.61541,0 -30.14843,13.533028 -30.14843,30.148438 0,16.615426 13.53302,30.15039 30.14843,30.15039 16.61541,0 30.15039,-13.534964 30.15039,-30.15039 0,-16.615426 -13.53498,-30.148438 -30.15039,-30.148438 z m 0,1.886719 c 15.59406,0 28.26368,12.667651 28.26368,28.261719 0,15.594068 -12.66962,28.26367 -28.26368,28.26367 -15.59405,0 -28.26172,-12.669602 -28.26172,-28.26367 0,-15.594068 12.66767,-28.261719 28.26172,-28.261719 z"
           transform="matrix(6.1702179,0,0,6.1702179,1323.7902,-1960.9297)"
           id="path4950"
           inkscape:connector-curvature="0" />
        <g
           id="g4930"
           style="fill:#666666;fill-opacity:1"
           transform="matrix(1.8993601,0,0,1.8993601,2152.6798,-1686.7747)">
          <path
             id="circle4772"
             transform="matrix(3.2485772,0,0,3.2485772,-436.40469,-144.3407)"
             style="fill:#666666;fill-opacity:1;stroke:none;stroke-width:0.5;stroke-miterlimit:4;stroke-dasharray:none;stroke-opacity:1"
             d="m 153.2832,48.013672 c -0.0194,0.0014 -0.0393,0.004 -0.0586,0.0059 -0.0155,-0.0014 -0.0314,-0.003 -0.0469,-0.0039 l 0,0.0078 c -1.35772,0.08808 -2.41502,1.213639 -2.41796,2.574218 4.6e-4,1.362298 1.05852,2.489927 2.41796,2.578125 l 0,0.0039 c 0.0209,-4.59e-4 0.0417,-5.35e-4 0.0625,-0.002 0.014,9.15e-4 0.029,0.0015 0.043,0.002 l 0,-0.0039 c 0.0214,-0.0014 0.0412,-0.0059 0.0625,-0.0078 0.0213,0.0018 0.0431,0.0064 0.0645,0.0078 l 0,0.0039 c 0.014,-4.31e-4 0.027,-9.54e-4 0.041,-0.002 0.0208,0.0014 0.0416,0.0015 0.0625,0.002 l 0,-0.0039 c 1.35942,-0.0882 2.41751,-1.215827 2.41797,-2.578125 -0.005,-1.360579 -1.06024,-2.486135 -2.41797,-2.574218 l 0,-0.0078 c -0.0155,9.15e-4 -0.0314,0.0025 -0.0469,0.0039 -0.0193,-0.0018 -0.0373,-0.0045 -0.0566,-0.0059 l 0,0.0098 c -0.0214,0.0014 -0.0432,0.0059 -0.0645,0.0078 -0.0213,-0.0018 -0.0411,-0.0064 -0.0625,-0.0078 l 0,-0.0098 z m -0.10937,5.660156 c -0.74362,0.0034 -1.55219,0.152886 -2.37891,0.332031 -4.02963,1.226429 -8.99368,5.5774 -11.66601,6.828125 -2.67232,1.250725 -2.66904,1.068045 -4.03907,1.447266 -1.46872,0.406537 -4.71665,0.425565 -4.67578,0.904297 0.0344,0.403055 4.85948,0.06069 5.18164,0.660156 0.87163,1.621909 4.37704,8.354196 4.62891,8.837891 l 1.16016,0 c -1.08592,-3.0386 -2.07546,-9.427458 -1.70313,-9.945313 0.38432,-0.534528 5.24501,-6.017027 9.57813,-5.746093 0.7078,0.158993 1.89131,4.30668 3.19726,15.691406 l 1.77735,0 c 1.30597,-11.384741 2.48947,-15.532413 3.19726,-15.691406 4.33315,-0.270934 9.19382,5.211565 9.57813,5.746093 0.37232,0.517855 -0.61722,6.906713 -1.70313,9.945313 l 1.1582,0 c 0.25187,-0.483695 3.75729,-7.215982 4.62891,-8.837891 0.32214,-0.599468 5.14919,-0.257101 5.18359,-0.660156 0.0407,-0.478732 -3.20894,-0.49776 -4.67773,-0.904297 -1.36999,-0.379221 -1.36479,-0.196541 -4.03711,-1.447266 -2.67232,-1.250725 -7.63834,-5.601696 -11.66797,-6.828125 -0.8274,-0.179295 -1.63671,-0.328605 -2.38086,-0.332031 l -0.002,0 c -0.0345,0 -0.0674,0.0015 -0.10156,0.002 -0.0213,9.1e-5 -0.045,0.0034 -0.0664,0.0039 -0.0214,-3.26e-4 -0.043,-0.0039 -0.0644,-0.0039 -0.0342,-4.53e-4 -0.069,-0.002 -0.10352,-0.002 l -0.002,0 z m -16.47071,4.142578 c -0.86344,2.24e-4 -1.56423,0.699057 -1.56445,1.5625 2.2e-4,0.863443 0.70101,1.564229 1.56445,1.564453 0.8638,2.7e-4 1.56423,-0.700663 1.56446,-1.564453 -2.3e-4,-0.863791 -0.70066,-1.56277 -1.56446,-1.5625 z m 33.28516,0 c -0.86382,-2.7e-4 -1.56422,0.698709 -1.56445,1.5625 2.3e-4,0.86379 0.70063,1.564723 1.56445,1.564453 0.86345,-2.24e-4 1.56422,-0.70101 1.56445,-1.564453 -2.3e-4,-0.863443 -0.701,-1.562276 -1.56445,-1.5625 z m -29.79687,15.501953 -4.83399,7.746094 c -0.97207,-0.604335 -1.87848,-1.262401 -2.70703,-1.96875 l -1.07227,1.277344 c 0.8805,0.761225 1.84512,1.469937 2.88282,2.117187 l -2.33008,3.714844 c 0.30667,0.213915 0.62043,0.417619 0.94141,0.609375 0.27375,0.155956 0.5534,0.303945 0.83593,0.443359 l 2.0625,-3.898437 c 1.13985,0.598778 2.29891,1.090035 3.45899,1.474609 l 0.57226,-1.566406 c -1.08573,-0.367914 -2.04572,-1.063619 -3.11523,-1.626953 l 4.42969,-8.322266 -1.125,0 z m 12.29297,0 -0.55079,15.044922 c -1.79885,-0.05871 -3.55075,-0.242268 -5.23437,-0.552734 l -0.45313,2.583984 c 1.79749,0.344349 3.66788,0.549691 5.58985,0.615235 l -0.25196,6.890625 a 24.988716,24.98871 0 0 0 1.76172,0.08789 24.988716,24.98871 0 0 0 1.76172,-0.08789 l -0.25195,-6.890625 c 1.922,-0.06554 3.79236,-0.270886 5.58984,-0.615235 l -0.45312,-2.583984 c -1.68362,0.310466 -3.43553,0.494019 -5.23438,0.552734 l -0.55078,-15.044922 -1.72265,0 z m 12.88867,0 4.42968,8.322266 c -1.06948,0.563334 -2.02951,1.259039 -3.11523,1.626953 l 0.57227,1.566406 c 1.16011,-0.384574 2.31913,-0.875831 3.45898,-1.474609 l 2.06445,3.898437 c 0.28252,-0.139414 0.56025,-0.287403 0.83399,-0.443359 0.321,-0.191756 0.63472,-0.39546 0.9414,-0.609375 l -2.33007,-3.714844 c 1.03779,-0.64725 2.00429,-1.355962 2.88476,-2.117187 l -1.07226,-1.277344 c -0.82854,0.706349 -1.73495,1.364415 -2.70704,1.96875 l -4.83593,-7.746094 -1.125,0 z"
             inkscape:connector-curvature="0" />
        </g>
      </g>
    </g>
  </g>
</svg>
