<?xml version="1.0" encoding="UTF-8" standalone="no"?>
<!-- Created with Inkscape (http://www.inkscape.org/) -->

<svg
   xmlns:dc="http://purl.org/dc/elements/1.1/"
   xmlns:cc="http://creativecommons.org/ns#"
   xmlns:rdf="http://www.w3.org/1999/02/22-rdf-syntax-ns#"
   xmlns:svg="http://www.w3.org/2000/svg"
   xmlns="http://www.w3.org/2000/svg"
   xmlns:sodipodi="http://sodipodi.sourceforge.net/DTD/sodipodi-0.dtd"
   xmlns:inkscape="http://www.inkscape.org/namespaces/inkscape"
   width="84.666672mm"
   height="96.541122mm"
   viewBox="0 0 300.00002 342.07484"
   id="svg2"
   version="1.1"
   inkscape:version="0.91 r13725"
   sodipodi:docname="youth_logo_white.svg">
  <defs
     id="defs4" />
  <sodipodi:namedview
     id="base"
     pagecolor="#ffffff"
     bordercolor="#666666"
     borderopacity="1.0"
     inkscape:pageopacity="0.0"
     inkscape:pageshadow="2"
     inkscape:zoom="0.35"
     inkscape:cx="324.67509"
     inkscape:cy="207.64324"
     inkscape:document-units="px"
     inkscape:current-layer="g4267"
     showgrid="false"
     showborder="true"
     showguides="true"
     inkscape:guide-bbox="true"
     inkscape:window-width="1869"
     inkscape:window-height="1056"
     inkscape:window-x="51"
     inkscape:window-y="24"
     inkscape:window-maximized="1"
     fit-margin-top="0"
     fit-margin-left="0"
     fit-margin-right="0"
     fit-margin-bottom="0" />
  <metadata
     id="metadata7">
    <rdf:RDF>
      <cc:Work
         rdf:about="">
        <dc:format>image/svg+xml</dc:format>
        <dc:type
           rdf:resource="http://purl.org/dc/dcmitype/StillImage" />
        <dc:title />
      </cc:Work>
    </rdf:RDF>
  </metadata>
  <g
     inkscape:label="Layer 1"
     inkscape:groupmode="layer"
     id="layer1"
     transform="translate(-3530.6391,-5296.0715)">
    <g
       id="g4267"
       transform="matrix(0.06997422,0,0,0.06997422,3283.5854,5243.6215)">
      <path
         style="color:#000000;font-style:normal;font-variant:normal;font-weight:normal;font-stretch:normal;font-size:medium;line-height:normal;font-family:sans-serif;text-indent:0;text-align:start;text-decoration:none;text-decoration-line:none;text-decoration-style:solid;text-decoration-color:#000000;letter-spacing:normal;word-spacing:normal;text-transform:none;direction:ltr;block-progression:tb;writing-mode:lr-tb;baseline-shift:baseline;text-anchor:start;white-space:normal;clip-rule:nonzero;display:inline;overflow:visible;visibility:visible;opacity:1;isolation:auto;mix-blend-mode:normal;color-interpolation:sRGB;color-interpolation-filters:linearRGB;solid-color:#000000;solid-opacity:1;fill:#ffffff;fill-opacity:1;fill-rule:nonzero;stroke:none;stroke-width:200;stroke-linecap:round;stroke-linejoin:round;stroke-miterlimit:4;stroke-dasharray:none;stroke-dashoffset:0;stroke-opacity:1;color-rendering:auto;image-rendering:auto;shape-rendering:auto;text-rendering:auto;enable-background:accumulate"
         d="m 5675.5416,749.56177 c -35.5072,-0.22495 -70.4499,9.02386 -101.237,26.79558 a 100.01,100.01 0 0 0 -0.028,0 L 3630.648,1898.5061 a 100.01,100.01 0 0 0 -0.028,0 c -61.7348,35.6473 -99.9763,101.9347 -99.981,173.2222 l 0,2244.3254 c 0,71.2876 38.2462,137.5471 99.981,173.1944 a 100.01,100.01 0 0 0 0.028,0 l 1943.6286,1122.1766 a 100.01,100.01 0 0 0 0.028,0 c 61.7395,35.6405 138.2504,35.6405 199.99,0 L 7717.9232,4489.2481 a 100.01,100.01 0 0 0 0.028,0 c 61.7346,-35.6473 99.9761,-101.9068 99.981,-173.1944 l 0,-2244.3254 a 100.01,100.01 0 0 0 0,-0.028 c 0,-71.2876 -38.2464,-137.547 -99.981,-173.1943 a 100.01,100.01 0 0 0 -0.028,0 L 5774.2946,776.35735 a 100.01,100.01 0 0 0 -0.028,0 c -29.0172,-16.74997 -61.7686,-25.95125 -95.2638,-26.73976 -1.1465,-0.027 -2.3157,-0.0485 -3.4612,-0.0558 z m 1.0886,100.03684 a 100.01,100.01 0 0 1 47.646,13.36988 L 7667.9328,1985.1172 a 100.01,100.01 0 0 1 49.9904,86.6111 l 0,2244.3254 a 100.01,100.01 0 0 1 -49.9904,86.5832 L 5724.2762,5524.8136 a 100.01,100.01 0 0 1 -99.9812,0 L 3680.6385,4402.6369 a 100.01,100.01 0 0 1 -49.9905,-86.5832 l 0,-2244.3254 a 100.01,100.01 0 0 1 49.9905,-86.6111 L 5624.295,862.96849 a 100.01,100.01 0 0 1 52.3352,-13.36988 z"
         id="path4795"
         inkscape:connector-curvature="0" />
      <path
         style="color:#000000;clip-rule:nonzero;display:inline;overflow:visible;visibility:visible;opacity:1;isolation:auto;mix-blend-mode:normal;color-interpolation:sRGB;color-interpolation-filters:linearRGB;solid-color:#000000;solid-opacity:1;fill:none;fill-opacity:1;fill-rule:nonzero;stroke:#ffffff;stroke-width:42.87293243;stroke-linecap:round;stroke-linejoin:round;stroke-miterlimit:4;stroke-dasharray:none;stroke-dashoffset:0;stroke-opacity:1;color-rendering:auto;image-rendering:auto;shape-rendering:auto;text-rendering:auto;enable-background:accumulate"
         d="M 3730.643,2066.6853 5674.2856,944.52271 7617.9283,2066.6853 l 0,2244.3252 L 5674.2857,5433.1731 3730.643,4311.0105 Z"
         id="path4764"
         inkscape:connector-curvature="0" />
      <g
         style="font-style:normal;font-weight:normal;font-size:1022.3972168px;line-height:125%;font-family:sans-serif;letter-spacing:0px;word-spacing:0px;opacity:1;fill:#ffffff;fill-opacity:1;stroke:none;stroke-width:1px;stroke-linecap:butt;stroke-linejoin:miter;stroke-opacity:1"
         id="text4766"
         transform="translate(1.5134141e-4,0)">
        <path
           d="m 4131.5759,3276.6998 -230.0394,-399.7573 -61.3438,-13.2912 0,-51.1198 266.8456,0 0,51.1198 -80.7693,12.2688 144.158,274.0025 32.7167,77.7021 36.8063,-77.7021 135.9788,-274.0025 -83.8366,-12.2688 0,-51.1198 233.1066,0 0,51.1198 -66.4558,12.2688 -213.681,399.7573 0,235.1514 114.5084,11.2463 0,50.0975 -339.4358,0 0,-50.0975 111.4413,-10.2239 0,-235.1514 z"
           style="font-style:normal;font-variant:normal;font-weight:normal;font-stretch:normal;font-family:Merriweather;-inkscape-font-specification:Merriweather;fill:#ffffff"
           id="path5251"
           inkscape:connector-curvature="0" />
        <path
           d="m 4868.245,3583.419 q -104.2845,0 -176.8747,-48.0527 -71.5678,-48.0527 -108.3741,-134.9564 -36.8063,-87.9262 -36.8063,-203.4571 0,-117.5757 43.9631,-206.5242 44.9855,-88.9486 122.6877,-137.0012 77.7021,-49.0751 174.8299,-49.0751 159.4939,0 243.3305,101.2173 84.859,100.1949 84.859,278.0921 0,119.6204 -46.0079,210.6138 -44.9855,89.9709 -124.7324,140.0684 -78.7246,49.0751 -176.8748,49.0751 z m 13.2912,-725.902 q -99.1725,0 -156.4268,86.9037 -57.2542,85.8814 -57.2542,252.5321 0,153.3596 55.2094,243.3306 56.2319,88.9485 156.4268,88.9485 98.1501,0 155.4044,-88.9485 58.2766,-88.9486 58.2766,-255.5993 0,-154.382 -55.2094,-240.2634 -55.2095,-86.9037 -156.4268,-86.9037 z"
           style="font-style:normal;font-variant:normal;font-weight:normal;font-stretch:normal;font-family:Merriweather;-inkscape-font-specification:Merriweather;fill:#ffffff"
           id="path5253"
           inkscape:connector-curvature="0" />
        <path
           d="m 5639.8035,3580.3518 q -150.2924,0 -221.8602,-79.747 -70.5454,-80.7694 -70.5454,-249.4649 l 0,-375.2198 -72.5902,-12.2688 0,-51.1198 272.98,0 0,51.1198 -86.9037,13.2912 0,385.4438 q 0,139.046 49.075,200.3898 50.0975,61.3438 143.1356,61.3438 93.0382,0 139.0461,-65.4334 47.0302,-65.4334 47.0302,-190.1659 l 0,-391.5781 -85.8813,-13.2912 0,-51.1198 238.2185,0 0,51.1198 -74.635,12.2688 0,387.4885 q 0,159.494 -75.6574,238.2186 -75.6574,78.7246 -201.4122,78.7246 z"
           style="font-style:normal;font-variant:normal;font-weight:normal;font-stretch:normal;font-family:Merriweather;-inkscape-font-specification:Merriweather;fill:#ffffff"
           id="path5255"
           inkscape:connector-curvature="0" />
        <path
           d="m 6303.5789,2866.7185 -175.8523,6.1344 -35.7839,213.681 -67.4782,0 17.3807,-274.0024 636.9535,0 12.2688,274.0024 -64.411,0 -33.7392,-213.681 -176.8747,-6.1344 0,645.1327 145.1804,10.2239 0,50.0975 -390.5557,0 0,-50.0975 132.9116,-10.2239 0,-645.1327 z"
           style="font-style:normal;font-variant:normal;font-weight:normal;font-stretch:normal;font-family:Merriweather;-inkscape-font-specification:Merriweather;fill:#ffffff"
           id="path5257"
           inkscape:connector-curvature="0" />
        <path
           d="m 6847.9096,2875.9201 -80.7694,-12.2688 0,-51.1198 278.0921,0 0,51.1198 -87.9262,12.2688 0,275.0249 359.8838,0 0,-275.0249 -82.8141,-12.2688 0,-51.1198 274.0024,0 0,51.1198 -80.7694,12.2688 0,635.9311 80.7694,10.2239 0,50.0975 -275.0248,0 0,-50.0975 83.8365,-10.2239 0,-297.5176 -359.8838,0 0,297.5176 88.9486,10.2239 0,50.0975 -281.1593,0 0,-50.0975 82.8142,-10.2239 0,-635.9311 z"
           style="font-style:normal;font-variant:normal;font-weight:normal;font-stretch:normal;font-family:Merriweather;-inkscape-font-specification:Merriweather;fill:#ffffff"
           id="path5259"
           inkscape:connector-curvature="0" />
      </g>
      <path
         inkscape:transform-center-y="-28.077842"
         d="m 5674.2857,4145.903 67.1947,201.5494 212.4491,1.6238 -170.9205,126.1881 64.1061,202.553 -172.8295,-123.5608 -172.8294,123.5608 64.1061,-202.553 -170.9205,-126.1881 212.4491,-1.6238 z"
         inkscape:randomized="0"
         inkscape:rounded="0"
         inkscape:flatsided="false"
         sodipodi:arg2="-0.94247777"
         sodipodi:arg1="-1.5707963"
         sodipodi:r2="114.31849"
         sodipodi:r1="294.03497"
         sodipodi:cy="4439.938"
         sodipodi:cx="5674.2856"
         sodipodi:sides="5"
         id="path4812"
         style="color:#000000;clip-rule:nonzero;display:inline;overflow:visible;visibility:visible;opacity:1;isolation:auto;mix-blend-mode:normal;color-interpolation:sRGB;color-interpolation-filters:linearRGB;solid-color:#000000;solid-opacity:1;fill:#ffffff;fill-opacity:1;fill-rule:nonzero;stroke:none;stroke-width:200;stroke-linecap:round;stroke-linejoin:round;stroke-miterlimit:4;stroke-dasharray:none;stroke-dashoffset:0;stroke-opacity:1;color-rendering:auto;image-rendering:auto;shape-rendering:auto;text-rendering:auto;enable-background:accumulate"
         sodipodi:type="star" />
      <g
         transform="matrix(2.316122,0,0,2.316122,416.75205,5291.3141)"
         id="g9290">
        <path
           style="color:#000000;font-style:normal;font-variant:normal;font-weight:normal;font-stretch:normal;font-size:medium;line-height:normal;font-family:sans-serif;text-indent:0;text-align:start;text-decoration:none;text-decoration-line:none;text-decoration-style:solid;text-decoration-color:#000000;letter-spacing:normal;word-spacing:normal;text-transform:none;direction:ltr;block-progression:tb;writing-mode:lr-tb;baseline-shift:baseline;text-anchor:start;white-space:normal;clip-rule:nonzero;display:inline;overflow:visible;visibility:visible;opacity:1;isolation:auto;mix-blend-mode:normal;color-interpolation:sRGB;color-interpolation-filters:linearRGB;solid-color:#000000;solid-opacity:1;fill:#ffffff;fill-opacity:1;fill-rule:nonzero;stroke:none;stroke-width:8.91647911;stroke-linecap:round;stroke-linejoin:round;stroke-miterlimit:4;stroke-dasharray:none;stroke-dashoffset:0;stroke-opacity:1;color-rendering:auto;image-rendering:auto;shape-rendering:auto;text-rendering:auto;enable-background:accumulate"
           d="m 153.3457,42.851562 c -16.61541,0 -30.14843,13.533028 -30.14843,30.148438 0,16.615426 13.53302,30.15039 30.14843,30.15039 16.61541,0 30.15039,-13.534964 30.15039,-30.15039 0,-16.615426 -13.53498,-30.148438 -30.15039,-30.148438 z m 0,1.886719 c 15.59406,0 28.26368,12.667651 28.26368,28.261719 0,15.594068 -12.66962,28.26367 -28.26368,28.26367 -15.59405,0 -28.26172,-12.669602 -28.26172,-28.26367 0,-15.594068 12.66767,-28.261719 28.26172,-28.261719 z"
           transform="matrix(6.1702179,0,0,6.1702179,1323.7902,-1960.9297)"
           id="path4950"
           inkscape:connector-curvature="0" />
        <g
           id="g4930"
           style="fill:#666666;fill-opacity:1"
           transform="matrix(1.8993601,0,0,1.8993601,2152.6798,-1686.7747)">
          <path
             id="circle4772"
             transform="matrix(3.2485772,0,0,3.2485772,-436.40469,-144.3407)"
             style="fill:#ffffff;fill-opacity:1;stroke:none;stroke-width:0.5;stroke-miterlimit:4;stroke-dasharray:none;stroke-opacity:1"
             d="m 153.2832,48.013672 c -0.0194,0.0014 -0.0393,0.004 -0.0586,0.0059 -0.0155,-0.0014 -0.0314,-0.003 -0.0469,-0.0039 l 0,0.0078 c -1.35772,0.08808 -2.41502,1.213639 -2.41796,2.574218 4.6e-4,1.362298 1.05852,2.489927 2.41796,2.578125 l 0,0.0039 c 0.0209,-4.59e-4 0.0417,-5.35e-4 0.0625,-0.002 0.014,9.15e-4 0.029,0.0015 0.043,0.002 l 0,-0.0039 c 0.0214,-0.0014 0.0412,-0.0059 0.0625,-0.0078 0.0213,0.0018 0.0431,0.0064 0.0645,0.0078 l 0,0.0039 c 0.014,-4.31e-4 0.027,-9.54e-4 0.041,-0.002 0.0208,0.0014 0.0416,0.0015 0.0625,0.002 l 0,-0.0039 c 1.35942,-0.0882 2.41751,-1.215827 2.41797,-2.578125 -0.005,-1.360579 -1.06024,-2.486135 -2.41797,-2.574218 l 0,-0.0078 c -0.0155,9.15e-4 -0.0314,0.0025 -0.0469,0.0039 -0.0193,-0.0018 -0.0373,-0.0045 -0.0566,-0.0059 l 0,0.0098 c -0.0214,0.0014 -0.0432,0.0059 -0.0645,0.0078 -0.0213,-0.0018 -0.0411,-0.0064 -0.0625,-0.0078 l 0,-0.0098 z m -0.10937,5.660156 c -0.74362,0.0034 -1.55219,0.152886 -2.37891,0.332031 -4.02963,1.226429 -8.99368,5.5774 -11.66601,6.828125 -2.67232,1.250725 -2.66904,1.068045 -4.03907,1.447266 -1.46872,0.406537 -4.71665,0.425565 -4.67578,0.904297 0.0344,0.403055 4.85948,0.06069 5.18164,0.660156 0.87163,1.621909 4.37704,8.354196 4.62891,8.837891 l 1.16016,0 c -1.08592,-3.0386 -2.07546,-9.427458 -1.70313,-9.945313 0.38432,-0.534528 5.24501,-6.017027 9.57813,-5.746093 0.7078,0.158993 1.89131,4.30668 3.19726,15.691406 l 1.77735,0 c 1.30597,-11.384741 2.48947,-15.532413 3.19726,-15.691406 4.33315,-0.270934 9.19382,5.211565 9.57813,5.746093 0.37232,0.517855 -0.61722,6.906713 -1.70313,9.945313 l 1.1582,0 c 0.25187,-0.483695 3.75729,-7.215982 4.62891,-8.837891 0.32214,-0.599468 5.14919,-0.257101 5.18359,-0.660156 0.0407,-0.478732 -3.20894,-0.49776 -4.67773,-0.904297 -1.36999,-0.379221 -1.36479,-0.196541 -4.03711,-1.447266 -2.67232,-1.250725 -7.63834,-5.601696 -11.66797,-6.828125 -0.8274,-0.179295 -1.63671,-0.328605 -2.38086,-0.332031 l -0.002,0 c -0.0345,0 -0.0674,0.0015 -0.10156,0.002 -0.0213,9.1e-5 -0.045,0.0034 -0.0664,0.0039 -0.0214,-3.26e-4 -0.043,-0.0039 -0.0644,-0.0039 -0.0342,-4.53e-4 -0.069,-0.002 -0.10352,-0.002 l -0.002,0 z m -16.47071,4.142578 c -0.86344,2.24e-4 -1.56423,0.699057 -1.56445,1.5625 2.2e-4,0.863443 0.70101,1.564229 1.56445,1.564453 0.8638,2.7e-4 1.56423,-0.700663 1.56446,-1.564453 -2.3e-4,-0.863791 -0.70066,-1.56277 -1.56446,-1.5625 z m 33.28516,0 c -0.86382,-2.7e-4 -1.56422,0.698709 -1.56445,1.5625 2.3e-4,0.86379 0.70063,1.564723 1.56445,1.564453 0.86345,-2.24e-4 1.56422,-0.70101 1.56445,-1.564453 -2.3e-4,-0.863443 -0.701,-1.562276 -1.56445,-1.5625 z m -29.79687,15.501953 -4.83399,7.746094 c -0.97207,-0.604335 -1.87848,-1.262401 -2.70703,-1.96875 l -1.07227,1.277344 c 0.8805,0.761225 1.84512,1.469937 2.88282,2.117187 l -2.33008,3.714844 c 0.30667,0.213915 0.62043,0.417619 0.94141,0.609375 0.27375,0.155956 0.5534,0.303945 0.83593,0.443359 l 2.0625,-3.898437 c 1.13985,0.598778 2.29891,1.090035 3.45899,1.474609 l 0.57226,-1.566406 c -1.08573,-0.367914 -2.04572,-1.063619 -3.11523,-1.626953 l 4.42969,-8.322266 -1.125,0 z m 12.29297,0 -0.55079,15.044922 c -1.79885,-0.05871 -3.55075,-0.242268 -5.23437,-0.552734 l -0.45313,2.583984 c 1.79749,0.344349 3.66788,0.549691 5.58985,0.615235 l -0.25196,6.890625 a 24.988716,24.98871 0 0 0 1.76172,0.08789 24.988716,24.98871 0 0 0 1.76172,-0.08789 l -0.25195,-6.890625 c 1.922,-0.06554 3.79236,-0.270886 5.58984,-0.615235 l -0.45312,-2.583984 c -1.68362,0.310466 -3.43553,0.494019 -5.23438,0.552734 l -0.55078,-15.044922 -1.72265,0 z m 12.88867,0 4.42968,8.322266 c -1.06948,0.563334 -2.02951,1.259039 -3.11523,1.626953 l 0.57227,1.566406 c 1.16011,-0.384574 2.31913,-0.875831 3.45898,-1.474609 l 2.06445,3.898437 c 0.28252,-0.139414 0.56025,-0.287403 0.83399,-0.443359 0.321,-0.191756 0.63472,-0.39546 0.9414,-0.609375 l -2.33007,-3.714844 c 1.03779,-0.64725 2.00429,-1.355962 2.88476,-2.117187 l -1.07226,-1.277344 c -0.82854,0.706349 -1.73495,1.364415 -2.70704,1.96875 l -4.83593,-7.746094 -1.125,0 z m 14.96672,-0.317685 a 26.993828,26.993828 0 0 1 -26.99383,26.993828 26.993828,26.993828 0 0 1 -26.99383,-26.993828 26.993828,26.993828 0 0 1 26.99383,-26.993828 26.993828,26.993828 0 0 1 26.99383,26.993828 z"
             inkscape:connector-curvature="0" />
        </g>
      </g>
    </g>
  </g>
</svg>
