<?xml version="1.0" encoding="UTF-8" standalone="no"?>
<!-- Created with Inkscape (http://www.inkscape.org/) -->

<svg
   xmlns:dc="http://purl.org/dc/elements/1.1/"
   xmlns:cc="http://creativecommons.org/ns#"
   xmlns:rdf="http://www.w3.org/1999/02/22-rdf-syntax-ns#"
   xmlns:svg="http://www.w3.org/2000/svg"
   xmlns="http://www.w3.org/2000/svg"
   xmlns:sodipodi="http://sodipodi.sourceforge.net/DTD/sodipodi-0.dtd"
   xmlns:inkscape="http://www.inkscape.org/namespaces/inkscape"
   width="84.666672mm"
   height="96.541122mm"
   viewBox="0 0 300.00002 342.07484"
   id="svg2"
   version="1.1"
   inkscape:version="0.91 r13725"
   sodipodi:docname="youth_logo.svg">
  <defs
     id="defs4" />
  <sodipodi:namedview
     id="base"
     pagecolor="#ffffff"
     bordercolor="#666666"
     borderopacity="1.0"
     inkscape:pageopacity="0.0"
     inkscape:pageshadow="2"
     inkscape:zoom="2.8"
     inkscape:cx="234.45535"
     inkscape:cy="215.95236"
     inkscape:document-units="px"
     inkscape:current-layer="text4766"
     showgrid="false"
     showborder="true"
     showguides="true"
     inkscape:guide-bbox="true"
     inkscape:window-width="1869"
     inkscape:window-height="1056"
     inkscape:window-x="51"
     inkscape:window-y="24"
     inkscape:window-maximized="1"
     fit-margin-top="0"
     fit-margin-left="0"
     fit-margin-right="0"
     fit-margin-bottom="0" />
  <metadata
     id="metadata7">
    <rdf:RDF>
      <cc:Work
         rdf:about="">
        <dc:format>image/svg+xml</dc:format>
        <dc:type
           rdf:resource="http://purl.org/dc/dcmitype/StillImage" />
        <dc:title></dc:title>
      </cc:Work>
    </rdf:RDF>
  </metadata>
  <g
     inkscape:label="Layer 1"
     inkscape:groupmode="layer"
     id="layer1"
     transform="translate(-3530.6391,-5296.0715)">
    <g
       id="g4267"
       transform="matrix(0.06997422,0,0,0.06997422,3283.5854,5243.6215)">
      <path
         inkscape:connector-curvature="0"
         id="path4795"
         d="m 5675.5533,749.56641 c -35.5072,-0.22495 -70.4746,9.01343 -101.2617,26.78515 a 100.01,100.01 0 0 0 -0.01,0.004 L 3630.6432,1898.5195 a 100.01,100.01 0 0 0 -0.01,0 c -61.7348,35.6473 -99.9894,101.9077 -99.9941,173.1953 a 100.01,100.01 0 0 0 0,0.01 l 0,2244.3262 a 100.01,100.01 0 0 0 0,0.01 c 0,71.2875 38.2593,137.5481 99.9941,173.1954 a 100.01,100.01 0 0 0 0.01,0 L 5574.2857,5611.416 a 100.01,100.01 0 0 0 0.01,0 c 61.7395,35.6405 138.2488,35.6405 199.9883,0 a 100.01,100.01 0 0 0 0.01,0 L 7717.9283,4489.2539 a 100.01,100.01 0 0 0 0.01,0 c 61.7347,-35.6473 99.9893,-101.9078 99.9941,-173.1953 a 100.01,100.01 0 0 0 0,-0.01 l 0,-2244.3261 a 100.01,100.01 0 0 0 0,-0.01 c 0,-71.2876 -38.2594,-137.548 -99.9941,-173.1953 a 100.01,100.01 0 0 0 -0.01,0 L 5774.2857,776.35547 a 100.01,100.01 0 0 0 -0.01,-0.006 c -29.0171,-16.74997 -61.788,-25.94391 -95.2832,-26.73242 l 0,0 c -1.1464,-0.027 -2.2921,-0.0435 -3.4375,-0.0508 z"
         style="color:#000000;font-style:normal;font-variant:normal;font-weight:normal;font-stretch:normal;font-size:medium;line-height:normal;font-family:sans-serif;text-indent:0;text-align:start;text-decoration:none;text-decoration-line:none;text-decoration-style:solid;text-decoration-color:#000000;letter-spacing:normal;word-spacing:normal;text-transform:none;direction:ltr;block-progression:tb;writing-mode:lr-tb;baseline-shift:baseline;text-anchor:start;white-space:normal;clip-rule:nonzero;display:inline;overflow:visible;visibility:visible;opacity:1;isolation:auto;mix-blend-mode:normal;color-interpolation:sRGB;color-interpolation-filters:linearRGB;solid-color:#000000;solid-opacity:1;fill:#333333;fill-opacity:1;fill-rule:nonzero;stroke:none;stroke-width:200;stroke-linecap:round;stroke-linejoin:round;stroke-miterlimit:4;stroke-dasharray:none;stroke-dashoffset:0;stroke-opacity:1;color-rendering:auto;image-rendering:auto;shape-rendering:auto;text-rendering:auto;enable-background:accumulate" />
      <path
         inkscape:connector-curvature="0"
         id="path4786"
         d="m 5676.6393,849.58984 a 100.01,100.01 0 0 0 -52.3536,13.36719 L 3680.6432,1985.1211 a 100.01,100.01 0 0 0 -50,86.6016 l 0,2244.3261 a 100.01,100.01 0 0 0 50,86.6016 l 1943.6425,1122.1621 a 100.01,100.01 0 0 0 100,0 L 7667.9283,4402.6504 a 100.01,100.01 0 0 0 50,-86.6016 l 0,-2244.3261 a 100.01,100.01 0 0 0 -50,-86.6016 L 5724.2857,862.95703 a 100.01,100.01 0 0 0 -47.6464,-13.36719 z"
         style="color:#000000;font-style:normal;font-variant:normal;font-weight:normal;font-stretch:normal;font-size:medium;line-height:normal;font-family:sans-serif;text-indent:0;text-align:start;text-decoration:none;text-decoration-line:none;text-decoration-style:solid;text-decoration-color:#000000;letter-spacing:normal;word-spacing:normal;text-transform:none;direction:ltr;block-progression:tb;writing-mode:lr-tb;baseline-shift:baseline;text-anchor:start;white-space:normal;clip-rule:nonzero;display:inline;overflow:visible;visibility:visible;opacity:1;isolation:auto;mix-blend-mode:normal;color-interpolation:sRGB;color-interpolation-filters:linearRGB;solid-color:#000000;solid-opacity:1;fill:#ffffff;fill-opacity:1;fill-rule:nonzero;stroke:none;stroke-width:200;stroke-linecap:round;stroke-linejoin:round;stroke-miterlimit:4;stroke-dasharray:none;stroke-dashoffset:0;stroke-opacity:1;color-rendering:auto;image-rendering:auto;shape-rendering:auto;text-rendering:auto;enable-background:accumulate" />
      <path
         d="M 3730.643,2066.6853 5674.2856,944.52271 7617.9283,2066.6853 l 0,2244.3252 L 5674.2857,5433.1731 3730.643,4311.0105 Z"
         inkscape:randomized="0"
         inkscape:rounded="0"
         inkscape:flatsided="true"
         sodipodi:arg2="-2.0943951"
         sodipodi:arg1="-2.6179939"
         sodipodi:r2="1943.6427"
         sodipodi:r1="2244.3252"
         sodipodi:cy="3188.8479"
         sodipodi:cx="5674.2858"
         sodipodi:sides="6"
         id="path4764"
         style="color:#000000;clip-rule:nonzero;display:inline;overflow:visible;visibility:visible;opacity:1;isolation:auto;mix-blend-mode:normal;color-interpolation:sRGB;color-interpolation-filters:linearRGB;solid-color:#000000;solid-opacity:1;fill:#4d4d4d;fill-opacity:1;fill-rule:nonzero;stroke:none;stroke-width:10;stroke-linecap:round;stroke-linejoin:round;stroke-miterlimit:4;stroke-dasharray:none;stroke-dashoffset:0;stroke-opacity:1;color-rendering:auto;image-rendering:auto;shape-rendering:auto;text-rendering:auto;enable-background:accumulate"
         sodipodi:type="star" />
      <g
         style="font-style:normal;font-weight:normal;font-size:1022.3972168px;line-height:125%;font-family:sans-serif;letter-spacing:0px;word-spacing:0px;opacity:1;fill:#000000;fill-opacity:1;stroke:none;stroke-width:1px;stroke-linecap:butt;stroke-linejoin:miter;stroke-opacity:1"
         id="text4766">
        <path
           d="m 4131.5761,3276.6998 -230.0394,-399.7573 -61.3438,-13.2912 0,-51.1198 266.8457,0 0,51.1198 -80.7694,12.2688 144.158,274.0025 32.7167,77.7021 36.8063,-77.7021 135.9788,-274.0025 -83.8365,-12.2688 0,-51.1198 233.1065,0 0,51.1198 -66.4558,12.2688 -213.681,399.7573 0,235.1514 114.5085,11.2463 0,50.0975 -339.4359,0 0,-50.0975 111.4413,-10.2239 0,-235.1514 z"
           style="font-style:normal;font-variant:normal;font-weight:normal;font-stretch:normal;font-family:Merriweather;-inkscape-font-specification:Merriweather;fill:#ffffff"
           id="path4620" />
        <path
           d="m 4868.2453,3583.419 q -104.2845,0 -176.8747,-48.0527 -71.5678,-48.0527 -108.3741,-134.9564 -36.8063,-87.9262 -36.8063,-203.4571 0,-117.5757 43.963,-206.5242 44.9855,-88.9486 122.6877,-137.0012 77.7022,-49.0751 174.8299,-49.0751 159.494,0 243.3306,101.2173 84.8589,100.1949 84.8589,278.0921 0,119.6204 -46.0078,210.6138 -44.9855,89.9709 -124.7325,140.0684 -78.7246,49.0751 -176.8747,49.0751 z m 13.2911,-725.902 q -99.1725,0 -156.4267,86.9037 -57.2543,85.8814 -57.2543,252.5321 0,153.3596 55.2095,243.3306 56.2318,88.9485 156.4267,88.9485 98.1502,0 155.4044,-88.9485 58.2767,-88.9486 58.2767,-255.5993 0,-154.382 -55.2095,-240.2634 -55.2094,-86.9037 -156.4268,-86.9037 z"
           style="font-style:normal;font-variant:normal;font-weight:normal;font-stretch:normal;font-family:Merriweather;-inkscape-font-specification:Merriweather;fill:#ffffff"
           id="path4622" />
        <path
           d="m 5639.8037,3580.3518 q -150.2924,0 -221.8602,-79.747 -70.5454,-80.7694 -70.5454,-249.4649 l 0,-375.2198 -72.5902,-12.2688 0,-51.1198 272.9801,0 0,51.1198 -86.9038,13.2912 0,385.4438 q 0,139.046 49.0751,200.3898 50.0974,61.3438 143.1356,61.3438 93.0381,0 139.046,-65.4334 47.0303,-65.4334 47.0303,-190.1659 l 0,-391.5781 -85.8814,-13.2912 0,-51.1198 238.2186,0 0,51.1198 -74.635,12.2688 0,387.4885 q 0,159.494 -75.6574,238.2186 -75.6574,78.7246 -201.4123,78.7246 z"
           style="font-style:normal;font-variant:normal;font-weight:normal;font-stretch:normal;font-family:Merriweather;-inkscape-font-specification:Merriweather;fill:#ffffff"
           id="path4624" />
        <path
           d="m 6303.5792,2866.7185 -175.8523,6.1344 -35.7839,213.681 -67.4783,0 17.3808,-274.0024 636.9535,0 12.2687,274.0024 -64.411,0 -33.7391,-213.681 -176.8747,-6.1344 0,645.1327 145.1804,10.2239 0,50.0975 -390.5558,0 0,-50.0975 132.9117,-10.2239 0,-645.1327 z"
           style="font-style:normal;font-variant:normal;font-weight:normal;font-stretch:normal;font-family:Merriweather;-inkscape-font-specification:Merriweather;fill:#ffffff"
           id="path4626" />
        <path
           d="m 6847.9099,2875.9201 -80.7694,-12.2688 0,-51.1198 278.092,0 0,51.1198 -87.9261,12.2688 0,275.0249 359.8838,0 0,-275.0249 -82.8142,-12.2688 0,-51.1198 274.0025,0 0,51.1198 -80.7694,12.2688 0,635.9311 80.7694,10.2239 0,50.0975 -275.0249,0 0,-50.0975 83.8366,-10.2239 0,-297.5176 -359.8838,0 0,297.5176 88.9485,10.2239 0,50.0975 -281.1592,0 0,-50.0975 82.8142,-10.2239 0,-635.9311 z"
           style="font-style:normal;font-variant:normal;font-weight:normal;font-stretch:normal;font-family:Merriweather;-inkscape-font-specification:Merriweather;fill:#ffffff"
           id="path4628" />
      </g>
      <path
         inkscape:transform-center-y="-28.077842"
         d="m 5674.2857,4145.903 67.1947,201.5494 212.4491,1.6238 -170.9205,126.1881 64.1061,202.553 -172.8295,-123.5608 -172.8294,123.5608 64.1061,-202.553 -170.9205,-126.1881 212.4491,-1.6238 z"
         inkscape:randomized="0"
         inkscape:rounded="0"
         inkscape:flatsided="false"
         sodipodi:arg2="-0.94247777"
         sodipodi:arg1="-1.5707963"
         sodipodi:r2="114.31849"
         sodipodi:r1="294.03497"
         sodipodi:cy="4439.938"
         sodipodi:cx="5674.2857"
         sodipodi:sides="5"
         id="path4812"
         style="color:#000000;clip-rule:nonzero;display:inline;overflow:visible;visibility:visible;opacity:1;isolation:auto;mix-blend-mode:normal;color-interpolation:sRGB;color-interpolation-filters:linearRGB;solid-color:#000000;solid-opacity:1;fill:#ffffff;fill-opacity:1;fill-rule:nonzero;stroke:none;stroke-width:200;stroke-linecap:round;stroke-linejoin:round;stroke-miterlimit:4;stroke-dasharray:none;stroke-dashoffset:0;stroke-opacity:1;color-rendering:auto;image-rendering:auto;shape-rendering:auto;text-rendering:auto;enable-background:accumulate"
         sodipodi:type="star" />
      <g
         transform="matrix(2.316122,0,0,2.316122,416.75991,5299.4344)"
         id="g9290">
        <circle
           style="color:#000000;clip-rule:nonzero;display:inline;overflow:visible;visibility:visible;opacity:1;isolation:auto;mix-blend-mode:normal;color-interpolation:sRGB;color-interpolation-filters:linearRGB;solid-color:#000000;solid-opacity:1;fill:#ffbb88;fill-opacity:1;fill-rule:nonzero;stroke:none;stroke-width:0.30000001;stroke-linecap:round;stroke-linejoin:round;stroke-miterlimit:4;stroke-dasharray:none;stroke-dashoffset:0;stroke-opacity:1;color-rendering:auto;image-rendering:auto;shape-rendering:auto;text-rendering:auto;enable-background:accumulate"
           id="circle4915"
           cx="2269.968"
           cy="-1510.4996"
           r="166.5578" />
        <path
           inkscape:connector-curvature="0"
           style="color:#000000;font-style:normal;font-variant:normal;font-weight:normal;font-stretch:normal;font-size:medium;line-height:normal;font-family:sans-serif;text-indent:0;text-align:start;text-decoration:none;text-decoration-line:none;text-decoration-style:solid;text-decoration-color:#000000;letter-spacing:normal;word-spacing:normal;text-transform:none;direction:ltr;block-progression:tb;writing-mode:lr-tb;baseline-shift:baseline;text-anchor:start;white-space:normal;clip-rule:nonzero;display:inline;overflow:visible;visibility:visible;opacity:1;isolation:auto;mix-blend-mode:normal;color-interpolation:sRGB;color-interpolation-filters:linearRGB;solid-color:#000000;solid-opacity:1;fill:#ffffff;fill-opacity:1;fill-rule:nonzero;stroke:none;stroke-width:8.91647911;stroke-linecap:round;stroke-linejoin:round;stroke-miterlimit:4;stroke-dasharray:none;stroke-dashoffset:0;stroke-opacity:1;color-rendering:auto;image-rendering:auto;shape-rendering:auto;text-rendering:auto;enable-background:accumulate"
           d="m 2269.9693,-1696.5259 c -102.5207,0 -186.0263,83.5057 -186.0263,186.0264 0,102.5208 83.5056,186.0264 186.0263,186.0264 102.5207,0 186.0263,-83.5056 186.0263,-186.0264 0,-102.5208 -83.5056,-186.0264 -186.0263,-186.0264 z"
           id="path4950" />
        <path
           inkscape:connector-curvature="0"
           style="color:#000000;font-style:normal;font-variant:normal;font-weight:normal;font-stretch:normal;font-size:medium;line-height:normal;font-family:sans-serif;text-indent:0;text-align:start;text-decoration:none;text-decoration-line:none;text-decoration-style:solid;text-decoration-color:#000000;letter-spacing:normal;word-spacing:normal;text-transform:none;direction:ltr;block-progression:tb;writing-mode:lr-tb;baseline-shift:baseline;text-anchor:start;white-space:normal;clip-rule:nonzero;display:inline;overflow:visible;visibility:visible;opacity:1;isolation:auto;mix-blend-mode:normal;color-interpolation:sRGB;color-interpolation-filters:linearRGB;solid-color:#000000;solid-opacity:1;fill:#666666;fill-opacity:1;fill-rule:nonzero;stroke:none;stroke-width:8.91647911;stroke-linecap:round;stroke-linejoin:round;stroke-miterlimit:4;stroke-dasharray:none;stroke-dashoffset:0;stroke-opacity:1;color-rendering:auto;image-rendering:auto;shape-rendering:auto;text-rendering:auto;enable-background:accumulate"
           d="m 2269.9693,-1684.8884 c -96.2187,0 -174.3888,78.1701 -174.3888,174.3889 0,96.2188 78.1701,174.3889 174.3888,174.3889 96.2187,0 174.389,-78.1701 174.389,-174.3889 0,-96.2188 -78.1703,-174.3889 -174.389,-174.3889 z"
           id="path4941" />
        <g
           id="g4930"
           style="fill:#666666;fill-opacity:1"
           transform="matrix(1.8993601,0,0,1.8993601,2152.6798,-1686.7747)">
          <path
             id="circle4772"
             transform="matrix(1.4860799,0,0,1.4860799,-1422.2843,940.1864)"
             style="fill:#ffffff;fill-opacity:1;stroke:none;stroke-width:0.5;stroke-miterlimit:4;stroke-dasharray:none;stroke-opacity:1"
             d="m 998.48633,-624.83008 c -0.0423,0.003 -0.0847,0.006 -0.12695,0.01 -0.0338,-0.003 -0.0677,-0.006 -0.10157,-0.008 l 0,0.0156 c -2.96799,0.19255 -5.27873,2.65272 -5.28515,5.62695 10e-4,2.97799 2.3134,5.44392 5.28515,5.63672 l 0,0.0117 c 0.0456,-10e-4 0.0912,-0.003 0.13672,-0.006 0.0306,0.002 0.0612,0.003 0.0918,0.004 l 0,-0.008 c 0.0469,-0.003 0.0921,-0.0114 0.13867,-0.0156 0.0466,0.004 0.0918,0.0126 0.13867,0.0156 l 0,0.008 c 0.0306,-9.4e-4 0.0612,-0.002 0.0918,-0.004 0.0455,0.003 0.0911,0.005 0.13672,0.006 l 0,-0.0117 c 2.97171,-0.1928 5.28411,-2.65873 5.28511,-5.63672 -0.01,-2.97423 -2.3171,-5.4344 -5.28511,-5.62695 l 0,-0.0156 c -0.0339,0.002 -0.0677,0.005 -0.10157,0.008 -0.0422,-0.004 -0.0847,-0.007 -0.12695,-0.01 l 0,0.0195 c -0.0469,0.003 -0.0921,0.0115 -0.13867,0.0156 -0.0465,-0.004 -0.0918,-0.0126 -0.13867,-0.0156 l 0,-0.0195 z m -0.23242,12.37305 c -1.6267,0.007 -3.3944,0.33267 -5.20313,0.72461 -8.80878,2.68098 -19.66415,12.19169 -25.50586,14.92578 -5.8417,2.73409 -5.83128,2.33508 -8.82617,3.16406 -3.21062,0.88869 -10.31396,0.9281 -10.22461,1.97461 0.0752,0.88108 10.62584,0.13487 11.33008,1.44531 1.97363,3.67248 10.48047,20.01172 10.48047,20.01172 l -11.00391,17.62696 c -2.12494,-1.32108 -4.10676,-2.76061 -5.91797,-4.30469 l -2.34375,2.79492 c 1.92476,1.66404 4.03626,3.21206 6.30469,4.62695 l -5.09375,8.12305 c 0.67038,0.46762 1.35691,0.9109 2.05859,1.33008 0.59842,0.34092 1.2066,0.66399 1.82422,0.96875 l 4.51172,-8.51953 c 2.49172,1.30893 5.0246,2.38197 7.56055,3.22265 l 1.25,-3.42382 c -2.37341,-0.80426 -4.47064,-2.32715 -6.8086,-3.5586 l 10.05469,-18.88672 0.004,-0.008 c -2.46142,-6.34343 -4.79129,-21.25535 -3.95117,-22.42383 0.84012,-1.16848 11.46722,-13.15476 20.93945,-12.5625 1.56262,0.35101 4.18578,9.54084 7.07422,34.99414 l -1.22852,33.58399 c -3.93229,-0.12834 -7.76296,-0.53226 -11.44336,-1.21094 l -0.99218,5.65039 c 3.92932,0.75275 8.0212,1.20047 12.22265,1.34375 l -0.55078,15.06445 a 54.625443,54.625431 0 0 0 3.84961,0.19336 54.625443,54.625431 0 0 0 3.84961,-0.19336 l -0.5508,-15.06445 c 4.2015,-0.14328 8.2934,-0.591 12.2227,-1.34375 l -0.9922,-5.65039 c -3.6804,0.67868 -7.5111,1.08259 -11.4434,1.21094 l -1.2285,-33.58399 c 2.8885,-25.4533 5.5116,-34.64313 7.0742,-34.99414 9.4723,-0.59226 20.0994,11.39402 20.9395,12.5625 0.8401,1.16848 -1.4898,16.0804 -3.9512,22.42383 l 0,0.008 10.0547,18.88672 c -2.3379,1.23145 -4.4352,2.75434 -6.8086,3.5586 l 1.25,3.42382 c 2.536,-0.84068 5.0689,-1.91372 7.5606,-3.22265 l 4.5117,8.51953 c 0.6176,-0.30476 1.2258,-0.62783 1.8242,-0.96875 0.7017,-0.41918 1.3882,-0.86246 2.0586,-1.33008 l -5.0938,-8.12305 c 2.2686,-1.41489 4.38,-2.96291 6.3047,-4.62695 l -2.3437,-2.79492 c -1.8112,1.54408 -3.793,2.98361 -5.918,4.30469 l -11.0039,-17.62696 c 0,0 8.5069,-16.33924 10.4805,-20.01172 0.7042,-1.31044 11.2549,-0.56423 11.3301,-1.44531 0.089,-1.04651 -7.0139,-1.08592 -10.2247,-1.97461 -2.9948,-0.82898 -2.9844,-0.42997 -8.8261,-3.16406 -5.8417,-2.73409 -16.6971,-12.2448 -25.5059,-14.92578 -1.8087,-0.39194 -3.5764,-0.71712 -5.20312,-0.72461 l -0.004,0 c -0.0754,0 -0.14991,9.4e-4 -0.22461,0.002 -0.0466,2e-4 -0.0958,0.007 -0.14258,0.008 -0.0468,-7.1e-4 -0.096,-0.008 -0.14258,-0.008 -0.0747,-9.9e-4 -0.14925,-0.002 -0.22461,-0.002 l -0.004,0 z m -36.00977,9.05273 c -1.88749,4.9e-4 -3.41748,1.53048 -3.41797,3.41797 4.9e-4,1.88749 1.53048,3.41748 3.41797,3.41797 1.88825,5.9e-4 3.41943,-1.52972 3.41992,-3.41797 -4.9e-4,-1.88825 -1.53167,-3.41856 -3.41992,-3.41797 z m 72.76176,0 c -1.8883,-5.9e-4 -3.4195,1.52972 -3.42,3.41797 5e-4,1.88825 1.5317,3.41856 3.42,3.41797 1.8875,-4.9e-4 3.4174,-1.53048 3.4179,-3.41797 -5e-4,-1.88749 -1.5304,-3.41748 -3.4179,-3.41797 z m 22.6272,33.19352 a 59.008626,59.008626 0 0 1 -59.00865,59.00863 59.008626,59.008626 0 0 1 -59.00862,-59.00863 59.008626,59.008626 0 0 1 59.00862,-59.00862 59.008626,59.008626 0 0 1 59.00865,59.00862 z"
             inkscape:connector-curvature="0" />
        </g>
      </g>
    </g>
  </g>
</svg>
